<?xml version="1.0" standalone="no"?><!DOCTYPE svg PUBLIC "-//W3C//DTD SVG 1.1//EN" "http://www.w3.org/Graphics/SVG/1.1/DTD/svg11.dtd" ><svg version="1.1" xmlns="http://www.w3.org/2000/svg"><defs><font horiz-adv-x="0" id="font"><font-face ascent="750" bbox="-85 -279.3 1415 970" cap-height="682" descent="-250" font-family="Web use ONLY | Copyright (C) Emtype Foundry" font-stretch="normal" font-weight="400" units-per-em="1000" x-height="461" /><missing-glyph d="M279 339 440 0H385L252 282L118 0H64L225 339L61 684H117L252 398L387 684H443Z" horiz-adv-x="504" /><glyph d="M623 46Q640 42 653.5 37.5Q667 33 677 28L673 0H441L436 28Q452 34 471.5 38Q491 42 515 45Q512 65 504.5 94Q497 123 478 189Q477 193 475.5 198Q474 203 470 215Q466 226 464.5 232Q463 238 461 243H195Q193 235 190.5 226.5Q188 218 182 204Q180 197 179 193.5Q178 190 177 188Q167 158 158 121Q149 84 142 45Q166 42 186 38Q206 34 221 28L217 0H4L0 28Q10 33 23.5 37.5Q37 42 53 46Q78 99 92 132Q106 165 116 193Q133 240 174.5 362Q216 484 283 682H393Q464 479 506 356.5Q548 234 561 192Q571 160 587.5 121.5Q604 83 623 46ZM328 635Q301 559 267 458.5Q233 358 210 290H447Q361 541 347.5 580Q334 619 328 635ZM339 682ZM562 0Z" glyph-name="A" horiz-adv-x="667" unicode="A" /><glyph d="M765 57Q770 82 776.5 101Q783 120 792 133H827Q822 85 819.5 55.5Q817 26 817 15V-8Q793 -4 770.5 -2Q748 0 727 0H368L365 29Q379 34 396.5 38Q414 42 436 45Q442 87 444.5 123.5Q447 160 447 191V243H195Q188 222 183.5 208.5Q179 195 177 188Q167 158 158 121Q149 84 142 45Q166 42 186 38Q206 34 221 28L217 0H4L0 28Q10 33 23.5 37.5Q37 42 53 46Q71 82 87.5 120.5Q104 159 116 193Q129 229 165 334.5Q201 440 268 637Q246 640 228 644Q210 648 196 652L199 681H710Q730 681 752.5 683Q775 685 799 689V666Q799 655 801.5 626Q804 597 809 549H774Q765 562 758 580.5Q751 599 745 624Q728 627 705.5 628.5Q683 630 661 630H535Q530 597 527.5 565.5Q525 534 525 507V370H646Q679 370 705 373.5Q731 377 749 383L757 380L738 304Q708 311 677.5 314Q647 317 616 317H525V191Q525 156 528 119Q531 82 537 51H679Q698 51 730.5 54Q763 57 765 57ZM438 631H326Q288 520 259 434.5Q230 349 210 290H447V508Q447 533 445 562Q443 591 438 631ZM414 682Z" glyph-name="AE" horiz-adv-x="881" unicode="&#198;" /><glyph d="M623 46Q640 42 653.5 37.5Q667 33 677 28L673 0H441L436 28Q452 34 471.5 38Q491 42 515 45Q512 65 504.5 94Q497 123 478 189Q477 193 475.5 198Q474 203 470 215Q466 226 464.5 232Q463 238 461 243H195Q193 235 190.5 226.5Q188 218 182 204Q180 197 179 193.5Q178 190 177 188Q167 158 158 121Q149 84 142 45Q166 42 186 38Q206 34 221 28L217 0H4L0 28Q10 33 23.5 37.5Q37 42 53 46Q78 99 92 132Q106 165 116 193Q133 240 174.5 362Q216 484 283 682H393Q464 479 506 356.5Q548 234 561 192Q571 160 587.5 121.5Q604 83 623 46ZM328 635Q301 559 267 458.5Q233 358 210 290H447Q361 541 347.5 580Q334 619 328 635ZM339 682ZM562 0ZM417 821Q395 803 372.5 787Q350 771 327 757L301 783Q333 811 370 852.5Q407 894 448 948Q459 937 470 925Q481 913 492 900Q482 883 463 863.5Q444 844 417 821ZM339 682Z" glyph-name="Aacute" horiz-adv-x="667" unicode="&#193;" /><glyph d="M623 46Q640 42 653.5 37.5Q667 33 677 28L673 0H441L436 28Q452 34 471.5 38Q491 42 515 45Q512 65 504.5 94Q497 123 478 189Q477 193 475.5 198Q474 203 470 215Q466 226 464.5 232Q463 238 461 243H195Q193 235 190.5 226.5Q188 218 182 204Q180 197 179 193.5Q178 190 177 188Q167 158 158 121Q149 84 142 45Q166 42 186 38Q206 34 221 28L217 0H4L0 28Q10 33 23.5 37.5Q37 42 53 46Q78 99 92 132Q106 165 116 193Q133 240 174.5 362Q216 484 283 682H393Q464 479 506 356.5Q548 234 561 192Q571 160 587.5 121.5Q604 83 623 46ZM328 635Q301 559 267 458.5Q233 358 210 290H447Q361 541 347.5 580Q334 619 328 635ZM339 682ZM562 0ZM339 809Q379 809 406.5 835.5Q434 862 446 909H482Q482 846 439.5 801.5Q397 757 338 757Q278 757 236.5 801.5Q195 846 195 909H233Q244 862 271.5 835.5Q299 809 339 809ZM339 682Z" glyph-name="Abreve" horiz-adv-x="667" unicode="&#258;" /><glyph d="M623 46Q640 42 653.5 37.5Q667 33 677 28L673 0H441L436 28Q452 34 471.5 38Q491 42 515 45Q512 65 504.5 94Q497 123 478 189Q477 193 475.5 198Q474 203 470 215Q466 226 464.5 232Q463 238 461 243H195Q193 235 190.5 226.5Q188 218 182 204Q180 197 179 193.5Q178 190 177 188Q167 158 158 121Q149 84 142 45Q166 42 186 38Q206 34 221 28L217 0H4L0 28Q10 33 23.5 37.5Q37 42 53 46Q78 99 92 132Q106 165 116 193Q133 240 174.5 362Q216 484 283 682H393Q464 479 506 356.5Q548 234 561 192Q571 160 587.5 121.5Q604 83 623 46ZM328 635Q301 559 267 458.5Q233 358 210 290H447Q361 541 347.5 580Q334 619 328 635ZM339 682ZM562 0ZM448 825Q460 813 471.5 802.5Q483 792 493 783L466 757Q448 769 431 781Q414 793 399 804Q385 814 370 827.5Q355 841 339 858Q326 845 305 826.5Q284 808 278 804Q263 793 246 781Q229 769 211 757L184 783Q199 796 210 806Q221 816 230 825Q257 851 284 881.5Q311 912 338 948H339Q365 914 392 883.5Q419 853 448 825ZM339 682Z" glyph-name="Acircumflex" horiz-adv-x="667" unicode="&#194;" /><glyph d="M623 46Q640 42 653.5 37.5Q667 33 677 28L673 0H441L436 28Q452 34 471.5 38Q491 42 515 45Q512 65 504.5 94Q497 123 478 189Q477 193 475.5 198Q474 203 470 215Q466 226 464.5 232Q463 238 461 243H195Q193 235 190.5 226.5Q188 218 182 204Q180 197 179 193.5Q178 190 177 188Q167 158 158 121Q149 84 142 45Q166 42 186 38Q206 34 221 28L217 0H4L0 28Q10 33 23.5 37.5Q37 42 53 46Q78 99 92 132Q106 165 116 193Q133 240 174.5 362Q216 484 283 682H393Q464 479 506 356.5Q548 234 561 192Q571 160 587.5 121.5Q604 83 623 46ZM328 635Q301 559 267 458.5Q233 358 210 290H447Q361 541 347.5 580Q334 619 328 635ZM339 682ZM562 0ZM258 906Q269 906 278 904Q287 902 294 898Q298 891 300.5 881Q303 871 303 860Q303 848 301 838Q299 828 295 820Q287 816 277 814Q267 812 254 812Q243 812 233.5 814Q224 816 217 819Q213 827 210.5 837.5Q208 848 208 860Q208 870 210 880Q212 890 216 897Q226 901 237 903.5Q248 906 258 906ZM423 906Q434 906 443.5 904Q453 902 460 898Q464 891 466.5 881Q469 871 469 860Q469 848 467 838Q465 828 461 820Q453 816 442.5 814Q432 812 420 812Q409 812 399.5 814Q390 816 383 819Q379 827 376.5 837.5Q374 848 374 860Q374 870 376 880Q378 890 382 897Q392 901 402.5 903.5Q413 906 423 906ZM339 682Z" glyph-name="Adieresis" horiz-adv-x="667" unicode="&#196;" /><glyph d="M623 46Q640 42 653.5 37.5Q667 33 677 28L673 0H441L436 28Q452 34 471.5 38Q491 42 515 45Q512 65 504.5 94Q497 123 478 189Q477 193 475.5 198Q474 203 470 215Q466 226 464.5 232Q463 238 461 243H195Q193 235 190.5 226.5Q188 218 182 204Q180 197 179 193.5Q178 190 177 188Q167 158 158 121Q149 84 142 45Q166 42 186 38Q206 34 221 28L217 0H4L0 28Q10 33 23.5 37.5Q37 42 53 46Q78 99 92 132Q106 165 116 193Q133 240 174.5 362Q216 484 283 682H393Q464 479 506 356.5Q548 234 561 192Q571 160 587.5 121.5Q604 83 623 46ZM328 635Q301 559 267 458.5Q233 358 210 290H447Q361 541 347.5 580Q334 619 328 635ZM339 682ZM562 0ZM230 948Q272 894 308.5 852.5Q345 811 377 783L351 757Q328 771 305.5 787Q283 803 261 821Q234 844 215 863.5Q196 883 186 900Q197 913 208 925Q219 937 230 948ZM339 682Z" glyph-name="Agrave" horiz-adv-x="667" unicode="&#192;" /><glyph d="M623 46Q640 42 653.5 37.5Q667 33 677 28L673 0H441L436 28Q452 34 471.5 38Q491 42 515 45Q512 65 504.5 94Q497 123 478 189Q477 193 475.5 198Q474 203 470 215Q466 226 464.5 232Q463 238 461 243H195Q193 235 190.5 226.5Q188 218 182 204Q180 197 179 193.5Q178 190 177 188Q167 158 158 121Q149 84 142 45Q166 42 186 38Q206 34 221 28L217 0H4L0 28Q10 33 23.5 37.5Q37 42 53 46Q78 99 92 132Q106 165 116 193Q133 240 174.5 362Q216 484 283 682H393Q464 479 506 356.5Q548 234 561 192Q571 160 587.5 121.5Q604 83 623 46ZM328 635Q301 559 267 458.5Q233 358 210 290H447Q361 541 347.5 580Q334 619 328 635ZM339 682ZM562 0ZM495 792H182V848H495ZM339 682Z" glyph-name="Amacron" horiz-adv-x="667" unicode="&#256;" /><glyph d="M328 635Q301 559 267 458.5Q233 358 210 290H447Q361 541 347.5 580Q334 619 328 635ZM632 -122V-154Q621 -163 604.5 -167Q588 -171 567 -171Q521 -171 492.5 -150.5Q464 -130 464 -96Q464 -71 482 -47.5Q500 -24 538 0H441L436 28Q452 34 471.5 38Q491 42 515 45Q512 65 504.5 94Q497 123 478 189Q477 193 475.5 198Q474 203 470 215Q466 226 464.5 232Q463 238 461 243H195Q193 235 190.5 226.5Q188 218 182 204Q180 197 179 193.5Q178 190 177 188Q167 158 158 121Q149 84 142 45Q166 42 186 38Q206 34 221 28L217 0H4L0 28Q10 33 23.5 37.5Q37 42 53 46Q78 99 92 132Q106 165 116 193Q133 240 174.5 362Q216 484 283 682H393Q464 479 506 356.5Q548 234 561 192Q571 160 587.5 121.5Q604 83 623 46Q640 42 653.5 37.5Q667 33 677 28L673 0H575Q550 -23 537.5 -42.5Q525 -62 525 -80Q525 -105 539 -118Q553 -131 581 -131Q590 -131 603 -129Q616 -127 632 -122Z" glyph-name="Aogonek" horiz-adv-x="667" unicode="&#260;" /><glyph d="M623 46Q640 42 653.5 37.5Q667 33 677 28L673 0H441L436 28Q452 34 471.5 38Q491 42 515 45Q512 65 504.5 94Q497 123 478 189Q477 193 475.5 198Q474 203 470 215Q466 226 464.5 232Q463 238 461 243H195Q193 235 190.5 226.5Q188 218 182 204Q180 197 179 193.5Q178 190 177 188Q167 158 158 121Q149 84 142 45Q166 42 186 38Q206 34 221 28L217 0H4L0 28Q10 33 23.5 37.5Q37 42 53 46Q78 99 92 132Q106 165 116 193Q133 240 174.5 362Q216 484 283 682H393Q464 479 506 356.5Q548 234 561 192Q571 160 587.5 121.5Q604 83 623 46ZM328 635Q301 559 267 458.5Q233 358 210 290H447Q361 541 347.5 580Q334 619 328 635ZM339 682ZM562 0ZM339 960Q359 960 379 956Q399 952 418 944Q428 929 433 907.5Q438 886 438 862Q438 841 433.5 820Q429 799 421 781Q402 772 380.5 767.5Q359 763 339 763Q313 763 293 767Q273 771 258 779Q249 795 244.5 816.5Q240 838 240 862Q240 884 244 905Q248 926 256 942Q277 951 298 955.5Q319 960 339 960ZM401 861Q401 876 398 889Q395 902 389 912Q378 917 365.5 919.5Q353 922 339 922Q327 922 313.5 919Q300 916 287 911Q282 901 279.5 888Q277 875 277 861Q277 847 280 834Q283 821 289 811Q298 806 311 803.5Q324 801 339 801Q353 801 366 804Q379 807 390 813Q395 823 398 835.5Q401 848 401 861ZM339 682Z" glyph-name="Aring" horiz-adv-x="667" unicode="&#197;" /><glyph d="M623 46Q640 42 653.5 37.5Q667 33 677 28L673 0H441L436 28Q452 34 471.5 38Q491 42 515 45Q512 65 504.5 94Q497 123 478 189Q477 193 475.5 198Q474 203 470 215Q466 226 464.5 232Q463 238 461 243H195Q193 235 190.5 226.5Q188 218 182 204Q180 197 179 193.5Q178 190 177 188Q167 158 158 121Q149 84 142 45Q166 42 186 38Q206 34 221 28L217 0H4L0 28Q10 33 23.5 37.5Q37 42 53 46Q78 99 92 132Q106 165 116 193Q133 240 174.5 362Q216 484 283 682H393Q464 479 506 356.5Q548 234 561 192Q571 160 587.5 121.5Q604 83 623 46ZM328 635Q301 559 267 458.5Q233 358 210 290H447Q361 541 347.5 580Q334 619 328 635ZM339 682ZM562 0ZM273 845Q251 845 231 837.5Q211 830 193 815L173 844Q175 848 187.5 857Q200 866 221 880Q236 888 250.5 891.5Q265 895 280 895Q298 895 314.5 891.5Q331 888 357 876Q380 866 393 863Q406 860 419 860Q437 860 450.5 868Q464 876 474 893L504 878Q501 863 493.5 850.5Q486 838 475 827Q464 817 450 811.5Q436 806 420 806Q404 806 388.5 810Q373 814 344 826Q316 838 301.5 841.5Q287 845 273 845ZM339 682Z" glyph-name="Atilde" horiz-adv-x="667" unicode="&#195;" /><glyph d="M395 369V366Q480 353 526 308.5Q572 264 572 192Q572 100 501 49.5Q430 -1 304 -1Q292 -1 277 -1Q262 -1 234 0Q220 0 215 0Q210 0 207 0H67L61 28Q74 33 92 37Q110 41 133 43Q140 96 142.5 129.5Q145 163 145 191V507Q145 532 142.5 561.5Q140 591 133 638Q111 641 93 645Q75 649 61 653L67 682H223Q264 682 288.5 681.5Q313 681 328 680Q415 673 462 631Q509 589 509 523Q509 466 479 425.5Q449 385 395 369ZM233 633Q228 609 225.5 574.5Q223 540 223 507V191Q223 154 225.5 115.5Q228 77 233 49Q240 48 249 48Q258 48 277 48Q289 48 303.5 48.5Q318 49 340 51Q344 51 345.5 51Q347 51 347 51Q412 56 450.5 96.5Q489 137 489 195Q489 257 447.5 294Q406 331 330 338L286 343V375Q302 378 312 379.5Q322 381 326 382Q373 393 400 427.5Q427 462 427 511Q427 560 398.5 592.5Q370 625 316 632Q309 633 298.5 633.5Q288 634 273 634Q259 634 250 634Q241 634 233 633Z" glyph-name="B" horiz-adv-x="629" unicode="B" /><glyph d="M612 533H563L541 634Q519 639 493.5 642Q468 645 443 645Q429 645 414 644Q399 643 381 640Q283 626 217.5 545Q152 464 152 343Q152 216 218.5 136Q285 56 391 42Q399 41 408.5 40.5Q418 40 436 40Q461 40 487.5 42.5Q514 45 539 49L569 151L616 147Q626 108 630.5 86Q635 64 635 59Q635 46 628 36.5Q621 27 608 21Q573 5 525 -3Q477 -11 422 -11Q249 -11 155.5 76Q62 163 62 326Q62 409 88 476Q114 543 165 592Q215 641 285 667.5Q355 694 432 694Q491 694 543.5 685Q596 676 617 663Q628 657 633.5 647.5Q639 638 639 626Q639 621 632.5 598Q626 575 612 533ZM351 10ZM388 682Z" glyph-name="C" horiz-adv-x="686" unicode="C" /><glyph glyph-name="CR" horiz-adv-x="0" /><glyph d="M612 533H563L541 634Q519 639 493.5 642Q468 645 443 645Q429 645 414 644Q399 643 381 640Q283 626 217.5 545Q152 464 152 343Q152 216 218.5 136Q285 56 391 42Q399 41 408.5 40.5Q418 40 436 40Q461 40 487.5 42.5Q514 45 539 49L569 151L616 147Q626 108 630.5 86Q635 64 635 59Q635 46 628 36.5Q621 27 608 21Q573 5 525 -3Q477 -11 422 -11Q249 -11 155.5 76Q62 163 62 326Q62 409 88 476Q114 543 165 592Q215 641 285 667.5Q355 694 432 694Q491 694 543.5 685Q596 676 617 663Q628 657 633.5 647.5Q639 638 639 626Q639 621 632.5 598Q626 575 612 533ZM351 10ZM388 682ZM466 821Q444 803 421.5 787Q399 771 376 757L350 783Q382 811 419 852.5Q456 894 497 948Q508 937 519 925Q530 913 541 900Q531 883 512 863.5Q493 844 466 821ZM388 682Z" glyph-name="Cacute" horiz-adv-x="686" unicode="&#262;" /><glyph d="M612 533H563L541 634Q519 639 493.5 642Q468 645 443 645Q429 645 414 644Q399 643 381 640Q283 626 217.5 545Q152 464 152 343Q152 216 218.5 136Q285 56 391 42Q399 41 408.5 40.5Q418 40 436 40Q461 40 487.5 42.5Q514 45 539 49L569 151L616 147Q626 108 630.5 86Q635 64 635 59Q635 46 628 36.5Q621 27 608 21Q573 5 525 -3Q477 -11 422 -11Q249 -11 155.5 76Q62 163 62 326Q62 409 88 476Q114 543 165 592Q215 641 285 667.5Q355 694 432 694Q491 694 543.5 685Q596 676 617 663Q628 657 633.5 647.5Q639 638 639 626Q639 621 632.5 598Q626 575 612 533ZM351 10ZM388 682ZM448 902Q463 913 480 925Q497 937 515 949L542 924Q526 909 516 899.5Q506 890 497 881Q465 850 439 820.5Q413 791 388 758H387Q361 792 335 822Q309 852 279 881Q268 892 251.5 907.5Q235 923 233 924L260 949Q278 937 295 925Q312 913 327 902Q334 896 354.5 878.5Q375 861 388 848Q404 865 419 878.5Q434 892 448 902ZM388 682Z" glyph-name="Ccaron" horiz-adv-x="686" unicode="&#268;" /><glyph d="M612 533H563L541 634Q519 639 493.5 642Q468 645 443 645Q429 645 414 644Q399 643 381 640Q283 626 217.5 545Q152 464 152 343Q152 216 218.5 136Q285 56 391 42Q399 41 408.5 40.5Q418 40 436 40Q461 40 487.5 42.5Q514 45 539 49L569 151L616 147Q626 108 630.5 86Q635 64 635 59Q635 46 628 36.5Q621 27 608 21Q573 5 525 -3Q477 -11 422 -11Q249 -11 155.5 76Q62 163 62 326Q62 409 88 476Q114 543 165 592Q215 641 285 667.5Q355 694 432 694Q491 694 543.5 685Q596 676 617 663Q628 657 633.5 647.5Q639 638 639 626Q639 621 632.5 598Q626 575 612 533ZM351 10ZM388 682ZM333 -230Q307 -230 284.5 -222.5Q262 -215 242 -199L247 -170Q269 -177 287 -180.5Q305 -184 319 -184Q330 -184 335 -180.5Q340 -177 340 -169Q340 -163 337 -155Q334 -147 325 -127Q314 -104 310.5 -93.5Q307 -83 307 -76Q307 -66 310.5 -57.5Q314 -49 321 -42Q328 -36 336.5 -31.5Q345 -27 354 -25L379 -27Q373 -34 370 -43.5Q367 -53 367 -65Q367 -78 370 -90.5Q373 -103 384 -124Q394 -145 397 -156.5Q400 -168 400 -180Q400 -205 383 -217.5Q366 -230 333 -230ZM351 10Z" glyph-name="Ccedilla" horiz-adv-x="686" unicode="&#199;" /><glyph d="M612 533H563L541 634Q519 639 493.5 642Q468 645 443 645Q429 645 414 644Q399 643 381 640Q283 626 217.5 545Q152 464 152 343Q152 216 218.5 136Q285 56 391 42Q399 41 408.5 40.5Q418 40 436 40Q461 40 487.5 42.5Q514 45 539 49L569 151L616 147Q626 108 630.5 86Q635 64 635 59Q635 46 628 36.5Q621 27 608 21Q573 5 525 -3Q477 -11 422 -11Q249 -11 155.5 76Q62 163 62 326Q62 409 88 476Q114 543 165 592Q215 641 285 667.5Q355 694 432 694Q491 694 543.5 685Q596 676 617 663Q628 657 633.5 647.5Q639 638 639 626Q639 621 632.5 598Q626 575 612 533ZM351 10ZM388 682ZM497 825Q509 813 520.5 802.5Q532 792 542 783L515 757Q497 769 480 781Q463 793 448 804Q434 814 419 827.5Q404 841 388 858Q375 845 354 826.5Q333 808 327 804Q312 793 295 781Q278 769 260 757L233 783Q248 796 259 806Q270 816 279 825Q306 851 333 881.5Q360 912 387 948H388Q414 914 441 883.5Q468 853 497 825ZM388 682Z" glyph-name="Ccircumflex" horiz-adv-x="686" unicode="&#264;" /><glyph d="M612 533H563L541 634Q519 639 493.5 642Q468 645 443 645Q429 645 414 644Q399 643 381 640Q283 626 217.5 545Q152 464 152 343Q152 216 218.5 136Q285 56 391 42Q399 41 408.5 40.5Q418 40 436 40Q461 40 487.5 42.5Q514 45 539 49L569 151L616 147Q626 108 630.5 86Q635 64 635 59Q635 46 628 36.5Q621 27 608 21Q573 5 525 -3Q477 -11 422 -11Q249 -11 155.5 76Q62 163 62 326Q62 409 88 476Q114 543 165 592Q215 641 285 667.5Q355 694 432 694Q491 694 543.5 685Q596 676 617 663Q628 657 633.5 647.5Q639 638 639 626Q639 621 632.5 598Q626 575 612 533ZM351 10ZM388 682ZM389 912Q401 912 411 910Q421 908 430 904Q435 896 437.5 885Q440 874 440 861Q440 849 437.5 837.5Q435 826 431 817Q422 813 410 810.5Q398 808 385 808Q372 808 361.5 810Q351 812 344 816Q340 825 337.5 836.5Q335 848 335 860Q335 873 337 884Q339 895 343 903Q354 907 366 909.5Q378 912 389 912ZM388 682Z" glyph-name="Cdotaccent" horiz-adv-x="686" unicode="&#266;" /><glyph d="M61 653 65 682H191Q208 682 224.5 682.5Q241 683 273 685Q315 687 343.5 688Q372 689 405 689Q553 689 644 598Q735 507 735 352Q735 192 641.5 92Q548 -8 405 -8Q388 -8 366.5 -7Q345 -6 300 -4Q253 -2 230.5 -1Q208 0 191 0H65L61 28Q75 33 93 37Q111 41 133 43Q139 102 142 139Q145 176 145 191V507Q145 532 142.5 561.5Q140 591 133 638Q111 641 93 645Q75 649 61 653ZM233 45Q249 44 269.5 43Q290 42 314 42Q333 42 354.5 42.5Q376 43 400 45Q511 52 579.5 131Q648 210 648 338Q648 472 580 551Q512 630 392 637Q368 638 345.5 639Q323 640 303 640Q287 640 271 639.5Q255 639 233 638Q228 606 225.5 571.5Q223 537 223 507V191Q223 158 225.5 120.5Q228 83 233 45ZM386 682Z" glyph-name="D" horiz-adv-x="797" unicode="D" /><glyph d="M61 653 65 682H191Q208 682 224.5 682.5Q241 683 273 685Q315 687 343.5 688Q372 689 405 689Q553 689 644 598Q735 507 735 352Q735 192 641.5 92Q548 -8 405 -8Q388 -8 366.5 -7Q345 -6 300 -4Q253 -2 230.5 -1Q208 0 191 0H65L61 28Q75 33 93 37Q111 41 133 43Q139 102 142 139Q145 176 145 191V507Q145 532 142.5 561.5Q140 591 133 638Q111 641 93 645Q75 649 61 653ZM233 45Q249 44 269.5 43Q290 42 314 42Q333 42 354.5 42.5Q376 43 400 45Q511 52 579.5 131Q648 210 648 338Q648 472 580 551Q512 630 392 637Q368 638 345.5 639Q323 640 303 640Q287 640 271 639.5Q255 639 233 638Q228 606 225.5 571.5Q223 537 223 507V191Q223 158 225.5 120.5Q228 83 233 45ZM386 682ZM446 902Q461 913 478 925Q495 937 513 949L540 924Q524 909 514 899.5Q504 890 495 881Q463 850 437 820.5Q411 791 386 758H385Q359 792 333 822Q307 852 277 881Q266 892 249.5 907.5Q233 923 231 924L258 949Q276 937 293 925Q310 913 325 902Q332 896 352.5 878.5Q373 861 386 848Q402 865 417 878.5Q432 892 446 902ZM386 682Z" glyph-name="Dcaron" horiz-adv-x="797" unicode="&#270;" /><glyph d="M405 689Q553 689 644 598Q735 507 735 352Q735 192 641.5 92Q548 -8 405 -8Q374 -8 320.5 -6Q267 -4 191 0H65L61 28Q75 33 93 37Q111 41 133 43Q139 102 142 139Q145 176 145 191V326H54V370H145V507Q145 532 142.5 561.5Q140 591 133 638Q111 641 93 645Q75 649 61 653L65 682H191Q271 686 324.5 687.5Q378 689 405 689ZM417 370V326H223V191Q223 158 225.5 120.5Q228 83 233 45Q250 44 271 43Q292 42 317 42Q325 42 335.5 42.5Q346 43 368 44Q381 44 387.5 44.5Q394 45 400 45Q511 50 579.5 130.5Q648 211 648 343Q648 475 580 552.5Q512 630 392 637Q368 638 345.5 639Q323 640 303 640Q287 640 271 639.5Q255 639 233 638Q228 606 225.5 571.5Q223 537 223 507V370Z" glyph-name="Dcroat" horiz-adv-x="797" unicode="&#272;" /><glyph d="M24 0 288 683H352L616 0ZM320 606 115 75H524Z" glyph-name="Delta" horiz-adv-x="639" unicode="&#916;" /><glyph d="M461 57Q466 82 472.5 101Q479 120 488 133H523Q518 85 515.5 55.5Q513 26 513 15V-8Q489 -4 466.5 -2Q444 0 423 0H64L61 29Q75 34 93 38Q111 42 133 45Q138 94 140.5 128.5Q143 163 143 191V508Q143 539 140.5 573Q138 607 133 638Q111 641 93 645Q75 649 61 653L64 682H406Q427 682 449 684Q471 686 495 689V666Q495 655 497.5 626Q500 597 505 549H470Q461 562 454 580.5Q447 599 441 624Q424 627 401.5 628.5Q379 630 357 630H231Q226 597 223.5 565.5Q221 534 221 507V370H342Q375 370 401 373.5Q427 377 445 383L453 380L434 304Q404 311 373.5 314Q343 317 312 317H221V191Q221 160 224 124.5Q227 89 233 51H375Q394 51 426.5 54Q459 57 461 57ZM292 682ZM431 0Z" glyph-name="E" horiz-adv-x="577" unicode="E" /><glyph d="M461 57Q466 82 472.5 101Q479 120 488 133H523Q518 85 515.5 55.5Q513 26 513 15V-8Q489 -4 466.5 -2Q444 0 423 0H64L61 29Q75 34 93 38Q111 42 133 45Q138 94 140.5 128.5Q143 163 143 191V508Q143 539 140.5 573Q138 607 133 638Q111 641 93 645Q75 649 61 653L64 682H406Q427 682 449 684Q471 686 495 689V666Q495 655 497.5 626Q500 597 505 549H470Q461 562 454 580.5Q447 599 441 624Q424 627 401.5 628.5Q379 630 357 630H231Q226 597 223.5 565.5Q221 534 221 507V370H342Q375 370 401 373.5Q427 377 445 383L453 380L434 304Q404 311 373.5 314Q343 317 312 317H221V191Q221 160 224 124.5Q227 89 233 51H375Q394 51 426.5 54Q459 57 461 57ZM292 682ZM431 0ZM369 821Q347 803 324.5 787Q302 771 279 757L253 783Q285 811 322 852.5Q359 894 400 948Q411 937 422 925Q433 913 444 900Q434 883 415 863.5Q396 844 369 821ZM291 682Z" glyph-name="Eacute" horiz-adv-x="577" unicode="&#201;" /><glyph d="M461 57Q466 82 472.5 101Q479 120 488 133H523Q518 85 515.5 55.5Q513 26 513 15V-8Q489 -4 466.5 -2Q444 0 423 0H64L61 29Q75 34 93 38Q111 42 133 45Q138 94 140.5 128.5Q143 163 143 191V508Q143 539 140.5 573Q138 607 133 638Q111 641 93 645Q75 649 61 653L64 682H406Q427 682 449 684Q471 686 495 689V666Q495 655 497.5 626Q500 597 505 549H470Q461 562 454 580.5Q447 599 441 624Q424 627 401.5 628.5Q379 630 357 630H231Q226 597 223.5 565.5Q221 534 221 507V370H342Q375 370 401 373.5Q427 377 445 383L453 380L434 304Q404 311 373.5 314Q343 317 312 317H221V191Q221 160 224 124.5Q227 89 233 51H375Q394 51 426.5 54Q459 57 461 57ZM292 682ZM431 0ZM292 809Q332 809 359.5 835.5Q387 862 399 909H435Q435 846 392.5 801.5Q350 757 291 757Q231 757 189.5 801.5Q148 846 148 909H186Q197 862 224.5 835.5Q252 809 292 809ZM292 682Z" glyph-name="Ebreve" horiz-adv-x="577" unicode="&#276;" /><glyph d="M461 57Q466 82 472.5 101Q479 120 488 133H523Q518 85 515.5 55.5Q513 26 513 15V-8Q489 -4 466.5 -2Q444 0 423 0H64L61 29Q75 34 93 38Q111 42 133 45Q138 94 140.5 128.5Q143 163 143 191V508Q143 539 140.5 573Q138 607 133 638Q111 641 93 645Q75 649 61 653L64 682H406Q427 682 449 684Q471 686 495 689V666Q495 655 497.5 626Q500 597 505 549H470Q461 562 454 580.5Q447 599 441 624Q424 627 401.5 628.5Q379 630 357 630H231Q226 597 223.5 565.5Q221 534 221 507V370H342Q375 370 401 373.5Q427 377 445 383L453 380L434 304Q404 311 373.5 314Q343 317 312 317H221V191Q221 160 224 124.5Q227 89 233 51H375Q394 51 426.5 54Q459 57 461 57ZM292 682ZM431 0ZM352 902Q367 913 384 925Q401 937 419 949L446 924Q430 909 420 899.5Q410 890 401 881Q369 850 343 820.5Q317 791 292 758H291Q265 792 239 822Q213 852 183 881Q172 892 155.5 907.5Q139 923 137 924L164 949Q182 937 199 925Q216 913 231 902Q238 896 258.5 878.5Q279 861 292 848Q308 865 323 878.5Q338 892 352 902ZM292 682Z" glyph-name="Ecaron" horiz-adv-x="577" unicode="&#282;" /><glyph d="M461 57Q466 82 472.5 101Q479 120 488 133H523Q518 85 515.5 55.5Q513 26 513 15V-8Q489 -4 466.5 -2Q444 0 423 0H64L61 29Q75 34 93 38Q111 42 133 45Q138 94 140.5 128.5Q143 163 143 191V508Q143 539 140.5 573Q138 607 133 638Q111 641 93 645Q75 649 61 653L64 682H406Q427 682 449 684Q471 686 495 689V666Q495 655 497.5 626Q500 597 505 549H470Q461 562 454 580.5Q447 599 441 624Q424 627 401.5 628.5Q379 630 357 630H231Q226 597 223.5 565.5Q221 534 221 507V370H342Q375 370 401 373.5Q427 377 445 383L453 380L434 304Q404 311 373.5 314Q343 317 312 317H221V191Q221 160 224 124.5Q227 89 233 51H375Q394 51 426.5 54Q459 57 461 57ZM292 682ZM431 0ZM401 825Q413 813 424.5 802.5Q436 792 446 783L419 757Q401 769 384 781Q367 793 352 804Q338 814 323 827.5Q308 841 292 858Q279 845 258 826.5Q237 808 231 804Q216 793 199 781Q182 769 164 757L137 783Q152 796 163 806Q174 816 183 825Q210 851 237 881.5Q264 912 291 948H292Q318 914 345 883.5Q372 853 401 825ZM292 682Z" glyph-name="Ecircumflex" horiz-adv-x="577" unicode="&#202;" /><glyph d="M461 57Q466 82 472.5 101Q479 120 488 133H523Q518 85 515.5 55.5Q513 26 513 15V-8Q489 -4 466.5 -2Q444 0 423 0H64L61 29Q75 34 93 38Q111 42 133 45Q138 94 140.5 128.5Q143 163 143 191V508Q143 539 140.5 573Q138 607 133 638Q111 641 93 645Q75 649 61 653L64 682H406Q427 682 449 684Q471 686 495 689V666Q495 655 497.5 626Q500 597 505 549H470Q461 562 454 580.5Q447 599 441 624Q424 627 401.5 628.5Q379 630 357 630H231Q226 597 223.5 565.5Q221 534 221 507V370H342Q375 370 401 373.5Q427 377 445 383L453 380L434 304Q404 311 373.5 314Q343 317 312 317H221V191Q221 160 224 124.5Q227 89 233 51H375Q394 51 426.5 54Q459 57 461 57ZM292 682ZM431 0ZM211 906Q222 906 231 904Q240 902 247 898Q251 891 253.5 881Q256 871 256 860Q256 848 254 838Q252 828 248 820Q240 816 230 814Q220 812 207 812Q196 812 186.5 814Q177 816 170 819Q166 827 163.5 837.5Q161 848 161 860Q161 870 163 880Q165 890 169 897Q179 901 190 903.5Q201 906 211 906ZM376 906Q387 906 396.5 904Q406 902 413 898Q417 891 419.5 881Q422 871 422 860Q422 848 420 838Q418 828 414 820Q406 816 395.5 814Q385 812 373 812Q362 812 352.5 814Q343 816 336 819Q332 827 329.5 837.5Q327 848 327 860Q327 870 329 880Q331 890 335 897Q345 901 355.5 903.5Q366 906 376 906ZM292 682Z" glyph-name="Edieresis" horiz-adv-x="577" unicode="&#203;" /><glyph d="M461 57Q466 82 472.5 101Q479 120 488 133H523Q518 85 515.5 55.5Q513 26 513 15V-8Q489 -4 466.5 -2Q444 0 423 0H64L61 29Q75 34 93 38Q111 42 133 45Q138 94 140.5 128.5Q143 163 143 191V508Q143 539 140.5 573Q138 607 133 638Q111 641 93 645Q75 649 61 653L64 682H406Q427 682 449 684Q471 686 495 689V666Q495 655 497.5 626Q500 597 505 549H470Q461 562 454 580.5Q447 599 441 624Q424 627 401.5 628.5Q379 630 357 630H231Q226 597 223.5 565.5Q221 534 221 507V370H342Q375 370 401 373.5Q427 377 445 383L453 380L434 304Q404 311 373.5 314Q343 317 312 317H221V191Q221 160 224 124.5Q227 89 233 51H375Q394 51 426.5 54Q459 57 461 57ZM292 682ZM431 0ZM293 912Q305 912 315 910Q325 908 334 904Q339 896 341.5 885Q344 874 344 861Q344 849 341.5 837.5Q339 826 335 817Q326 813 314 810.5Q302 808 289 808Q276 808 265.5 810Q255 812 248 816Q244 825 241.5 836.5Q239 848 239 860Q239 873 241 884Q243 895 247 903Q258 907 270 909.5Q282 912 293 912ZM292 682Z" glyph-name="Edotaccent" horiz-adv-x="577" unicode="&#278;" /><glyph d="M461 57Q466 82 472.5 101Q479 120 488 133H523Q518 85 515.5 55.5Q513 26 513 15V-8Q489 -4 466.5 -2Q444 0 423 0H64L61 29Q75 34 93 38Q111 42 133 45Q138 94 140.5 128.5Q143 163 143 191V508Q143 539 140.5 573Q138 607 133 638Q111 641 93 645Q75 649 61 653L64 682H406Q427 682 449 684Q471 686 495 689V666Q495 655 497.5 626Q500 597 505 549H470Q461 562 454 580.5Q447 599 441 624Q424 627 401.5 628.5Q379 630 357 630H231Q226 597 223.5 565.5Q221 534 221 507V370H342Q375 370 401 373.5Q427 377 445 383L453 380L434 304Q404 311 373.5 314Q343 317 312 317H221V191Q221 160 224 124.5Q227 89 233 51H375Q394 51 426.5 54Q459 57 461 57ZM292 682ZM431 0ZM183 948Q225 894 261.5 852.5Q298 811 330 783L304 757Q281 771 258.5 787Q236 803 214 821Q187 844 168 863.5Q149 883 139 900Q150 913 161 925Q172 937 183 948ZM292 682Z" glyph-name="Egrave" horiz-adv-x="577" unicode="&#200;" /><glyph d="M461 57Q466 82 472.5 101Q479 120 488 133H523Q518 85 515.5 55.5Q513 26 513 15V-8Q489 -4 466.5 -2Q444 0 423 0H64L61 29Q75 34 93 38Q111 42 133 45Q138 94 140.5 128.5Q143 163 143 191V508Q143 539 140.5 573Q138 607 133 638Q111 641 93 645Q75 649 61 653L64 682H406Q427 682 449 684Q471 686 495 689V666Q495 655 497.5 626Q500 597 505 549H470Q461 562 454 580.5Q447 599 441 624Q424 627 401.5 628.5Q379 630 357 630H231Q226 597 223.5 565.5Q221 534 221 507V370H342Q375 370 401 373.5Q427 377 445 383L453 380L434 304Q404 311 373.5 314Q343 317 312 317H221V191Q221 160 224 124.5Q227 89 233 51H375Q394 51 426.5 54Q459 57 461 57ZM292 682ZM431 0ZM448 792H135V848H448ZM292 682Z" glyph-name="Emacron" horiz-adv-x="577" unicode="&#274;" /><glyph d="M501 -122V-154Q490 -163 473.5 -167Q457 -171 436 -171Q390 -171 361.5 -150.5Q333 -130 333 -96Q333 -71 351 -47.5Q369 -24 407 0H64L61 29Q75 34 93 38Q111 42 133 45Q138 94 140.5 128.5Q143 163 143 191V508Q143 539 140.5 573Q138 607 133 638Q111 641 93 645Q75 649 61 653L64 682H406Q427 682 449 684Q471 686 495 689V666Q495 655 497.5 626Q500 597 505 549H470Q461 562 454 580.5Q447 599 441 624Q424 627 401.5 628.5Q379 630 357 630H231Q226 597 223.5 565.5Q221 534 221 507V370H342Q375 370 401 373.5Q427 377 445 383L453 380L434 304Q404 311 373.5 314Q343 317 312 317H221V191Q221 160 224 124.5Q227 89 233 51H375Q394 51 426.5 54Q459 57 461 57Q466 82 472.5 101Q479 120 488 133H523Q518 85 515.5 55.5Q513 26 513 15V-8Q496 -5 478.5 -3.5Q461 -2 443 -1Q418 -23 406 -42.5Q394 -62 394 -80Q394 -105 408 -118Q422 -131 450 -131Q459 -131 472 -129Q485 -127 501 -122Z" glyph-name="Eogonek" horiz-adv-x="577" unicode="&#280;" /><glyph d="M405 689Q553 689 644 598Q735 507 735 352Q735 192 641.5 92Q548 -8 405 -8Q374 -8 320.5 -6Q267 -4 191 0H65L61 28Q75 33 93 37Q111 41 133 43Q139 102 142 139Q145 176 145 191V326H54V370H145V507Q145 532 142.5 561.5Q140 591 133 638Q111 641 93 645Q75 649 61 653L65 682H191Q271 686 324.5 687.5Q378 689 405 689ZM417 370V326H223V191Q223 158 225.5 120.5Q228 83 233 45Q250 44 271 43Q292 42 317 42Q325 42 335.5 42.5Q346 43 368 44Q381 44 387.5 44.5Q394 45 400 45Q511 50 579.5 130.5Q648 211 648 343Q648 475 580 552.5Q512 630 392 637Q368 638 345.5 639Q323 640 303 640Q287 640 271 639.5Q255 639 233 638Q228 606 225.5 571.5Q223 537 223 507V370Z" glyph-name="Eth" horiz-adv-x="797" unicode="&#208;" /><glyph d="M157 317Q182 395 236 438.5Q290 482 363 482Q402 482 439 470Q476 458 499 438Q504 430 507 419.5Q510 409 510 398Q510 387 507.5 376.5Q505 366 501 357Q489 353 478.5 350.5Q468 348 458 348Q447 348 437 350.5Q427 353 419 357Q415 365 412.5 375.5Q410 386 410 398Q410 407 411 415Q412 423 414 430Q405 434 393.5 436Q382 438 368 438Q318 438 280.5 406Q243 374 223 315H274Q301 315 324 317.5Q347 320 367 325L379 314L367 266Q327 268 288.5 269Q250 270 213 270Q212 259 211 247Q210 235 210 223Q210 209 210.5 202Q211 195 212 189H274Q301 189 324 192Q347 195 367 200L379 188L367 140Q330 141 294 142Q258 143 223 143Q240 91 278 63Q316 35 368 35Q384 35 396.5 36.5Q409 38 417 40Q415 47 414 55.5Q413 64 413 73Q413 86 415.5 97Q418 108 422 115Q429 119 438.5 121Q448 123 460 123Q471 123 482.5 121Q494 119 504 115Q508 105 510.5 95Q513 85 513 74Q513 63 510 52.5Q507 42 502 34Q479 15 436.5 1.5Q394 -12 352 -12Q273 -12 221 28.5Q169 69 151 144Q128 143 108 140.5Q88 138 71 134L60 145L69 194Q85 193 104 192.5Q123 192 144 191Q143 196 143 201.5Q143 207 143 218Q143 232 144 244.5Q145 257 146 269Q125 268 106 266Q87 264 71 260L60 271L69 320Q89 319 111 318.5Q133 318 157 317Z" glyph-name="Euro" horiz-adv-x="573" unicode="&#8364;" /><glyph d="M366 631H232Q227 598 224.5 567.5Q222 537 222 509V372H352Q383 372 408.5 375Q434 378 454 385L462 383L444 306Q414 313 383 316.5Q352 320 321 320H222V191Q222 159 225.5 121.5Q229 84 235 44Q257 41 277 37Q297 33 316 28L311 0H66L61 28Q75 33 93 37Q111 41 133 44Q140 94 142.5 128.5Q145 163 145 191V509Q145 540 141.5 574.5Q138 609 133 638Q111 642 93 646Q75 650 61 654L66 682H415Q435 682 458 684.5Q481 687 506 691V666Q506 661 508.5 631.5Q511 602 515 549H478Q470 562 463.5 581Q457 600 452 626Q400 630 388 630.5Q376 631 366 631Z" glyph-name="F" horiz-adv-x="539" unicode="F" /><glyph d="M471 277 476 305H653Q647 260 644 222Q641 184 641 154Q641 105 643.5 66.5Q646 28 650 0L594 -12L578 34Q545 13 493 0.5Q441 -12 389 -12Q241 -12 151.5 78Q62 168 62 323Q62 405 88.5 473Q115 541 166 591Q217 641 287.5 668Q358 695 434 695Q498 695 555 677.5Q612 660 640 637Q648 632 652.5 623.5Q657 615 657 606Q657 600 652.5 587.5Q648 575 638 557Q632 547 623 531.5Q614 516 612 511L566 519L559 625Q530 635 497.5 640Q465 645 433 645Q418 645 405 644Q392 643 380 641Q282 626 216.5 543.5Q151 461 151 339Q151 212 216.5 135.5Q282 59 390 48Q398 47 408 46.5Q418 46 436 46Q470 46 502.5 51.5Q535 57 569 70V170Q569 182 568 196Q567 210 559 259Q529 262 507 266.5Q485 271 471 277ZM403 682ZM380 0Z" glyph-name="G" horiz-adv-x="704" unicode="G" /><glyph d="M471 277 476 305H653Q647 260 644 222Q641 184 641 154Q641 105 643.5 66.5Q646 28 650 0L594 -12L578 34Q545 13 493 0.5Q441 -12 389 -12Q241 -12 151.5 78Q62 168 62 323Q62 405 88.5 473Q115 541 166 591Q217 641 287.5 668Q358 695 434 695Q498 695 555 677.5Q612 660 640 637Q648 632 652.5 623.5Q657 615 657 606Q657 600 652.5 587.5Q648 575 638 557Q632 547 623 531.5Q614 516 612 511L566 519L559 625Q530 635 497.5 640Q465 645 433 645Q418 645 405 644Q392 643 380 641Q282 626 216.5 543.5Q151 461 151 339Q151 212 216.5 135.5Q282 59 390 48Q398 47 408 46.5Q418 46 436 46Q470 46 502.5 51.5Q535 57 569 70V170Q569 182 568 196Q567 210 559 259Q529 262 507 266.5Q485 271 471 277ZM403 682ZM380 0ZM403 809Q443 809 470.5 835.5Q498 862 510 909H546Q546 846 503.5 801.5Q461 757 402 757Q342 757 300.5 801.5Q259 846 259 909H297Q308 862 335.5 835.5Q363 809 403 809ZM403 682Z" glyph-name="Gbreve" horiz-adv-x="704" unicode="&#286;" /><glyph d="M471 277 476 305H653Q647 260 644 222Q641 184 641 154Q641 105 643.5 66.5Q646 28 650 0L594 -12L578 34Q545 13 493 0.5Q441 -12 389 -12Q241 -12 151.5 78Q62 168 62 323Q62 405 88.5 473Q115 541 166 591Q217 641 287.5 668Q358 695 434 695Q498 695 555 677.5Q612 660 640 637Q648 632 652.5 623.5Q657 615 657 606Q657 600 652.5 587.5Q648 575 638 557Q632 547 623 531.5Q614 516 612 511L566 519L559 625Q530 635 497.5 640Q465 645 433 645Q418 645 405 644Q392 643 380 641Q282 626 216.5 543.5Q151 461 151 339Q151 212 216.5 135.5Q282 59 390 48Q398 47 408 46.5Q418 46 436 46Q470 46 502.5 51.5Q535 57 569 70V170Q569 182 568 196Q567 210 559 259Q529 262 507 266.5Q485 271 471 277ZM403 682ZM380 0ZM512 825Q524 813 535.5 802.5Q547 792 557 783L530 757Q512 769 495 781Q478 793 463 804Q449 814 434 827.5Q419 841 403 858Q390 845 369 826.5Q348 808 342 804Q327 793 310 781Q293 769 275 757L248 783Q263 796 274 806Q285 816 294 825Q321 851 348 881.5Q375 912 402 948H403Q429 914 456 883.5Q483 853 512 825ZM403 682Z" glyph-name="Gcircumflex" horiz-adv-x="704" unicode="&#284;" /><glyph d="M471 277 476 305H653Q647 260 644 222Q641 184 641 154Q641 105 643.5 66.5Q646 28 650 0L594 -12L578 34Q545 13 493 0.5Q441 -12 389 -12Q241 -12 151.5 78Q62 168 62 323Q62 405 88.5 473Q115 541 166 591Q217 641 287.5 668Q358 695 434 695Q498 695 555 677.5Q612 660 640 637Q648 632 652.5 623.5Q657 615 657 606Q657 600 652.5 587.5Q648 575 638 557Q632 547 623 531.5Q614 516 612 511L566 519L559 625Q530 635 497.5 640Q465 645 433 645Q418 645 405 644Q392 643 380 641Q282 626 216.5 543.5Q151 461 151 339Q151 212 216.5 135.5Q282 59 390 48Q398 47 408 46.5Q418 46 436 46Q470 46 502.5 51.5Q535 57 569 70V170Q569 182 568 196Q567 210 559 259Q529 262 507 266.5Q485 271 471 277ZM403 682ZM380 0ZM404 912Q416 912 426 910Q436 908 445 904Q450 896 452.5 885Q455 874 455 861Q455 849 452.5 837.5Q450 826 446 817Q437 813 425 810.5Q413 808 400 808Q387 808 376.5 810Q366 812 359 816Q355 825 352.5 836.5Q350 848 350 860Q350 873 352 884Q354 895 358 903Q369 907 381 909.5Q393 912 404 912ZM403 682Z" glyph-name="Gdotaccent" horiz-adv-x="704" unicode="&#288;" /><glyph d="M676 507V191Q676 155 679.5 115.5Q683 76 689 43Q710 41 727.5 37Q745 33 759 28L756 0H520L515 28Q528 33 546 37Q564 41 586 43Q594 92 597 127Q600 162 600 191V313H220V191Q220 157 223.5 118.5Q227 80 234 43Q256 41 273.5 37Q291 33 304 28L300 0H64L61 28Q74 33 91.5 37Q109 41 131 43Q137 85 140.5 122Q144 159 144 191V508Q144 528 142.5 551Q141 574 133 638Q111 641 93 645Q75 649 61 653L64 682H300L304 653Q291 649 273.5 645Q256 641 233 638Q226 601 223 568.5Q220 536 220 507V366H600V508Q600 537 596.5 570Q593 603 587 638Q564 641 546 645Q528 649 515 653L520 682H756L759 653Q745 649 727 645Q709 641 687 638Q681 599 678.5 567Q676 535 676 507ZM410 682Z" glyph-name="H" horiz-adv-x="820" unicode="H" /><glyph d="M220 467V366H600V467ZM234 43Q256 41 273.5 37Q291 33 304 28L300 0H64L61 28Q74 33 91.5 37Q109 41 131 43Q137 85 140.5 122Q144 159 144 191V467H85V511H144Q144 531 142.5 553.5Q141 576 133 638Q111 641 93 645Q75 649 61 653L64 682H300L304 653Q291 649 273.5 645Q256 641 233 638Q226 601 223 569.5Q220 538 220 511H600Q600 539 596.5 571.5Q593 604 587 638Q564 641 546 645Q528 649 515 653L520 682H756L759 653Q745 649 727 645Q709 641 687 638Q681 600 678.5 568.5Q676 537 676 511H733V467H676V191Q676 155 679.5 115.5Q683 76 689 43Q710 41 727.5 37Q745 33 759 28L756 0H520L515 28Q528 33 546 37Q564 41 586 43Q594 92 597 127Q600 162 600 191V313H220V191Q220 157 223.5 118.5Q227 80 234 43Z" glyph-name="Hbar" horiz-adv-x="820" unicode="&#294;" /><glyph d="M676 507V191Q676 155 679.5 115.5Q683 76 689 43Q710 41 727.5 37Q745 33 759 28L756 0H520L515 28Q528 33 546 37Q564 41 586 43Q594 92 597 127Q600 162 600 191V313H220V191Q220 157 223.5 118.5Q227 80 234 43Q256 41 273.5 37Q291 33 304 28L300 0H64L61 28Q74 33 91.5 37Q109 41 131 43Q137 85 140.5 122Q144 159 144 191V508Q144 528 142.5 551Q141 574 133 638Q111 641 93 645Q75 649 61 653L64 682H300L304 653Q291 649 273.5 645Q256 641 233 638Q226 601 223 568.5Q220 536 220 507V366H600V508Q600 537 596.5 570Q593 603 587 638Q564 641 546 645Q528 649 515 653L520 682H756L759 653Q745 649 727 645Q709 641 687 638Q681 599 678.5 567Q676 535 676 507ZM410 682ZM519 825Q531 813 542.5 802.5Q554 792 564 783L537 757Q519 769 502 781Q485 793 470 804Q456 814 441 827.5Q426 841 410 858Q397 845 376 826.5Q355 808 349 804Q334 793 317 781Q300 769 282 757L255 783Q270 796 281 806Q292 816 301 825Q328 851 355 881.5Q382 912 409 948H410Q436 914 463 883.5Q490 853 519 825ZM410 682Z" glyph-name="Hcircumflex" horiz-adv-x="820" unicode="&#292;" /><glyph d="M221 508V193Q221 163 224 127Q227 91 233 43Q255 41 272.5 37Q290 33 304 28L301 0H64L61 28Q75 33 92.5 37Q110 41 132 43Q142 136 143 156Q144 176 144 193V509Q144 534 141.5 563.5Q139 593 132 639Q110 642 92.5 646Q75 650 61 654L64 682H301L304 654Q290 650 272.5 646Q255 642 233 639Q227 607 224 572.5Q221 538 221 508ZM183 682ZM195 0Z" glyph-name="I" horiz-adv-x="365" unicode="I" /><glyph d="M221 508V193Q221 163 224 127Q227 91 233 43Q255 41 272.5 37Q290 33 304 28L301 0H64L61 28Q75 33 92.5 37Q110 41 132 43Q142 136 143 156Q144 176 144 193V509Q144 534 141.5 563.5Q139 593 132 639Q110 642 92.5 646Q75 650 61 654L64 682H301L304 654Q290 650 272.5 646Q255 642 233 639Q227 607 224 572.5Q221 538 221 508ZM183 682ZM195 0ZM479 683H714L719 655Q705 650 687 646Q669 642 647 639Q642 614 639 579Q636 544 636 508V168Q636 70 594 29Q552 -12 454 -12Q434 -12 412 -6Q390 0 375 8Q366 14 360.5 23.5Q355 33 355 43Q355 54 370.5 86.5Q386 119 389 126L442 117L437 35Q444 34 453.5 33.5Q463 33 472 33Q517 33 537.5 61Q558 89 558 165V509Q558 537 555.5 569Q553 601 547 639Q525 642 506.5 646Q488 650 474 655ZM593 682Z" glyph-name="IJ" horiz-adv-x="757" unicode="&#306;" /><glyph d="M221 508V193Q221 163 224 127Q227 91 233 43Q255 41 272.5 37Q290 33 304 28L301 0H64L61 28Q75 33 92.5 37Q110 41 132 43Q142 136 143 156Q144 176 144 193V509Q144 534 141.5 563.5Q139 593 132 639Q110 642 92.5 646Q75 650 61 654L64 682H301L304 654Q290 650 272.5 646Q255 642 233 639Q227 607 224 572.5Q221 538 221 508ZM183 682ZM195 0ZM261 821Q239 803 216.5 787Q194 771 171 757L145 783Q177 811 214 852.5Q251 894 292 948Q303 937 314 925Q325 913 336 900Q326 883 307 863.5Q288 844 261 821ZM183 682Z" glyph-name="Iacute" horiz-adv-x="365" unicode="&#205;" /><glyph d="M221 508V193Q221 163 224 127Q227 91 233 43Q255 41 272.5 37Q290 33 304 28L301 0H64L61 28Q75 33 92.5 37Q110 41 132 43Q142 136 143 156Q144 176 144 193V509Q144 534 141.5 563.5Q139 593 132 639Q110 642 92.5 646Q75 650 61 654L64 682H301L304 654Q290 650 272.5 646Q255 642 233 639Q227 607 224 572.5Q221 538 221 508ZM183 682ZM195 0ZM292 825Q304 813 315.5 802.5Q327 792 337 783L310 757Q292 769 275 781Q258 793 243 804Q229 814 214 827.5Q199 841 183 858Q170 845 149 826.5Q128 808 122 804Q107 793 90 781Q73 769 55 757L28 783Q43 796 54 806Q65 816 74 825Q101 851 128 881.5Q155 912 182 948H183Q209 914 236 883.5Q263 853 292 825ZM183 682Z" glyph-name="Icircumflex" horiz-adv-x="365" unicode="&#206;" /><glyph d="M221 508V193Q221 163 224 127Q227 91 233 43Q255 41 272.5 37Q290 33 304 28L301 0H64L61 28Q75 33 92.5 37Q110 41 132 43Q142 136 143 156Q144 176 144 193V509Q144 534 141.5 563.5Q139 593 132 639Q110 642 92.5 646Q75 650 61 654L64 682H301L304 654Q290 650 272.5 646Q255 642 233 639Q227 607 224 572.5Q221 538 221 508ZM183 682ZM195 0ZM102 906Q113 906 122 904Q131 902 138 898Q142 891 144.5 881Q147 871 147 860Q147 848 145 838Q143 828 139 820Q131 816 121 814Q111 812 98 812Q87 812 77.5 814Q68 816 61 819Q57 827 54.5 837.5Q52 848 52 860Q52 870 54 880Q56 890 60 897Q70 901 81 903.5Q92 906 102 906ZM267 906Q278 906 287.5 904Q297 902 304 898Q308 891 310.5 881Q313 871 313 860Q313 848 311 838Q309 828 305 820Q297 816 286.5 814Q276 812 264 812Q253 812 243.5 814Q234 816 227 819Q223 827 220.5 837.5Q218 848 218 860Q218 870 220 880Q222 890 226 897Q236 901 246.5 903.5Q257 906 267 906ZM183 682Z" glyph-name="Idieresis" horiz-adv-x="365" unicode="&#207;" /><glyph d="M221 508V193Q221 163 224 127Q227 91 233 43Q255 41 272.5 37Q290 33 304 28L301 0H64L61 28Q75 33 92.5 37Q110 41 132 43Q142 136 143 156Q144 176 144 193V509Q144 534 141.5 563.5Q139 593 132 639Q110 642 92.5 646Q75 650 61 654L64 682H301L304 654Q290 650 272.5 646Q255 642 233 639Q227 607 224 572.5Q221 538 221 508ZM183 682ZM195 0ZM184 912Q196 912 206 910Q216 908 225 904Q230 896 232.5 885Q235 874 235 861Q235 849 232.5 837.5Q230 826 226 817Q217 813 205 810.5Q193 808 180 808Q167 808 156.5 810Q146 812 139 816Q135 825 132.5 836.5Q130 848 130 860Q130 873 132 884Q134 895 138 903Q149 907 161 909.5Q173 912 184 912ZM183 682Z" glyph-name="Idotaccent" horiz-adv-x="365" unicode="&#304;" /><glyph d="M221 508V193Q221 163 224 127Q227 91 233 43Q255 41 272.5 37Q290 33 304 28L301 0H64L61 28Q75 33 92.5 37Q110 41 132 43Q142 136 143 156Q144 176 144 193V509Q144 534 141.5 563.5Q139 593 132 639Q110 642 92.5 646Q75 650 61 654L64 682H301L304 654Q290 650 272.5 646Q255 642 233 639Q227 607 224 572.5Q221 538 221 508ZM183 682ZM195 0ZM74 948Q116 894 152.5 852.5Q189 811 221 783L195 757Q172 771 149.5 787Q127 803 105 821Q78 844 59 863.5Q40 883 30 900Q41 913 52 925Q63 937 74 948ZM183 682Z" glyph-name="Igrave" horiz-adv-x="365" unicode="&#204;" /><glyph d="M221 508V193Q221 163 224 127Q227 91 233 43Q255 41 272.5 37Q290 33 304 28L301 0H64L61 28Q75 33 92.5 37Q110 41 132 43Q142 136 143 156Q144 176 144 193V509Q144 534 141.5 563.5Q139 593 132 639Q110 642 92.5 646Q75 650 61 654L64 682H301L304 654Q290 650 272.5 646Q255 642 233 639Q227 607 224 572.5Q221 538 221 508ZM183 682ZM195 0ZM339 792H26V848H339ZM183 682Z" glyph-name="Imacron" horiz-adv-x="365" unicode="&#298;" /><glyph d="M265 -122V-154Q254 -163 237.5 -167Q221 -171 200 -171Q154 -171 125.5 -150.5Q97 -130 97 -96Q97 -71 115 -47.5Q133 -24 171 0H64L61 28Q75 33 92.5 37Q110 41 132 43Q142 136 143 156Q144 176 144 193V509Q144 534 141.5 563.5Q139 593 132 639Q110 642 92.5 646Q75 650 61 654L64 682H301L304 654Q290 650 272.5 646Q255 642 233 639Q227 607 224 572.5Q221 538 221 508V193Q221 163 224 127Q227 91 233 43Q255 41 272.5 37Q290 33 304 28L301 0H208Q183 -23 170.5 -42.5Q158 -62 158 -80Q158 -105 172 -118Q186 -131 214 -131Q223 -131 236 -129Q249 -127 265 -122Z" glyph-name="Iogonek" horiz-adv-x="365" unicode="&#302;" /><glyph d="M221 508V193Q221 163 224 127Q227 91 233 43Q255 41 272.5 37Q290 33 304 28L301 0H64L61 28Q75 33 92.5 37Q110 41 132 43Q142 136 143 156Q144 176 144 193V509Q144 534 141.5 563.5Q139 593 132 639Q110 642 92.5 646Q75 650 61 654L64 682H301L304 654Q290 650 272.5 646Q255 642 233 639Q227 607 224 572.5Q221 538 221 508ZM183 682ZM195 0ZM117 845Q95 845 75 837.5Q55 830 37 815L17 844Q19 848 31.5 857Q44 866 65 880Q80 888 94.5 891.5Q109 895 124 895Q142 895 158.5 891.5Q175 888 201 876Q224 866 237 863Q250 860 263 860Q281 860 294.5 868Q308 876 318 893L348 878Q345 863 337.5 850.5Q330 838 319 827Q308 817 294 811.5Q280 806 264 806Q248 806 232.5 810Q217 814 188 826Q160 838 145.5 841.5Q131 845 117 845ZM183 682Z" glyph-name="Itilde" horiz-adv-x="365" unicode="&#296;" /><glyph d="M114 683H349L354 655Q340 650 322 646Q304 642 282 639Q277 614 274 579Q271 544 271 508V168Q271 70 229 29Q187 -12 89 -12Q69 -12 47 -6Q25 0 10 8Q1 14 -4.5 23.5Q-10 33 -10 43Q-10 54 5.5 86.5Q21 119 24 126L77 117L72 35Q79 34 88.5 33.5Q98 33 107 33Q152 33 172.5 61Q193 89 193 165V509Q193 537 190.5 569Q188 601 182 639Q160 642 141.5 646Q123 650 109 655ZM228 682Z" glyph-name="J" horiz-adv-x="392" unicode="J" /><glyph d="M114 683H349L354 655Q340 650 322 646Q304 642 282 639Q277 614 274 579Q271 544 271 508V168Q271 70 229 29Q187 -12 89 -12Q69 -12 47 -6Q25 0 10 8Q1 14 -4.5 23.5Q-10 33 -10 43Q-10 54 5.5 86.5Q21 119 24 126L77 117L72 35Q79 34 88.5 33.5Q98 33 107 33Q152 33 172.5 61Q193 89 193 165V509Q193 537 190.5 569Q188 601 182 639Q160 642 141.5 646Q123 650 109 655ZM228 682ZM337 825Q349 813 360.5 802.5Q372 792 382 783L355 757Q337 769 320 781Q303 793 288 804Q274 814 259 827.5Q244 841 228 858Q215 845 194 826.5Q173 808 167 804Q152 793 135 781Q118 769 100 757L73 783Q88 796 99 806Q110 816 119 825Q146 851 173 881.5Q200 912 227 948H228Q254 914 281 883.5Q308 853 337 825ZM228 682Z" glyph-name="Jcircumflex" horiz-adv-x="392" unicode="&#308;" /><glyph d="M234 640Q229 612 226 576Q223 540 223 507V191Q223 156 226 116.5Q229 77 234 44Q256 41 274 37Q292 33 306 27L303 0H66L61 27Q75 33 93 37Q111 41 133 44Q138 77 141 116.5Q144 156 144 191V508Q144 541 141 576Q138 611 133 639Q111 642 93 646Q75 650 61 655L66 683H295L300 655Q288 651 271.5 647Q255 643 234 640ZM488 565Q462 528 425 475.5Q388 423 341 354Q385 288 415 242.5Q445 197 461 173Q507 104 542 70Q577 36 621 19L620 -3Q607 -8 593.5 -10.5Q580 -13 567 -13Q524 -13 485.5 17Q447 47 386 143L273 320V340L400 537Q417 565 429.5 593Q442 621 447 644Q431 646 418 649Q405 652 394 655L399 683H598L603 655Q597 651 584.5 648Q572 645 553 642Q535 623 516.5 601Q498 579 488 565ZM341 0Z" glyph-name="K" horiz-adv-x="617" unicode="K" /><glyph d="M481 133H518Q513 98 510.5 69Q508 40 508 16V-8Q484 -4 461 -2Q438 0 417 0H67L61 27Q75 32 93 36Q111 40 133 43Q139 74 142 113.5Q145 153 145 191V508Q145 540 142 574.5Q139 609 134 638Q112 642 93.5 646.5Q75 651 61 655L67 683H302L306 655Q293 651 275 646.5Q257 642 234 638Q229 609 226 574.5Q223 540 223 508V191Q223 158 226 121Q229 84 234 52H368Q380 52 393.5 52.5Q407 53 454 57Q458 83 465 102Q472 121 481 133ZM187 682ZM290 0ZM365 682ZM398 341Z" glyph-name="L" horiz-adv-x="527" unicode="L" /><glyph d="M481 133H518Q513 98 510.5 69Q508 40 508 16V-8Q484 -4 461 -2Q438 0 417 0H67L61 27Q75 32 93 36Q111 40 133 43Q139 74 142 113.5Q145 153 145 191V508Q145 540 142 574.5Q139 609 134 638Q112 642 93.5 646.5Q75 651 61 655L67 683H302L306 655Q293 651 275 646.5Q257 642 234 638Q229 609 226 574.5Q223 540 223 508V191Q223 158 226 121Q229 84 234 52H368Q380 52 393.5 52.5Q407 53 454 57Q458 83 465 102Q472 121 481 133ZM187 682ZM290 0ZM365 682ZM398 341ZM265 821Q243 803 220.5 787Q198 771 175 757L149 783Q181 811 218 852.5Q255 894 296 948Q307 937 318 925Q329 913 340 900Q330 883 311 863.5Q292 844 265 821ZM187 682Z" glyph-name="Lacute" horiz-adv-x="527" unicode="&#313;" /><glyph d="M481 133H518Q513 98 510.5 69Q508 40 508 16V-8Q484 -4 461 -2Q438 0 417 0H67L61 27Q75 32 93 36Q111 40 133 43Q139 74 142 113.5Q145 153 145 191V508Q145 540 142 574.5Q139 609 134 638Q112 642 93.5 646.5Q75 651 61 655L67 683H302L306 655Q293 651 275 646.5Q257 642 234 638Q229 609 226 574.5Q223 540 223 508V191Q223 158 226 121Q229 84 234 52H368Q380 52 393.5 52.5Q407 53 454 57Q458 83 465 102Q472 121 481 133ZM187 682ZM290 0ZM365 682ZM398 341ZM421 725Q433 725 442 723Q451 721 459 717Q464 705 467 692Q470 679 470 667Q470 634 455.5 604Q441 574 416 554L389 576Q399 588 404 602Q409 616 411 633Q406 633 400.5 634Q395 635 382 638Q378 648 375.5 658Q373 668 373 677Q373 687 375.5 697.5Q378 708 382 717Q391 721 400.5 723Q410 725 421 725ZM365 682Z" glyph-name="Lcaron" horiz-adv-x="527" unicode="&#317;" /><glyph d="M481 133H518Q513 98 510.5 69Q508 40 508 16V-8Q484 -4 461 -2Q438 0 417 0H67L61 27Q75 32 93 36Q111 40 133 43Q139 74 142 113.5Q145 153 145 191V508Q145 540 142 574.5Q139 609 134 638Q112 642 93.5 646.5Q75 651 61 655L67 683H302L306 655Q293 651 275 646.5Q257 642 234 638Q229 609 226 574.5Q223 540 223 508V191Q223 158 226 121Q229 84 234 52H368Q380 52 393.5 52.5Q407 53 454 57Q458 83 465 102Q472 121 481 133ZM187 682ZM290 0ZM365 682ZM398 341ZM500 339Q500 327 497.5 315.5Q495 304 491 295Q481 290 469 287.5Q457 285 445 285Q433 285 422.5 287.5Q412 290 404 294Q400 303 397.5 314.5Q395 326 395 338Q395 351 397 362Q399 373 403 381Q414 385 426 387.5Q438 390 449 390Q461 390 471 388Q481 386 490 382Q495 374 497.5 363Q500 352 500 339ZM395 341Z" glyph-name="Ldot" horiz-adv-x="527" unicode="&#319;" /><glyph d="M481 133H518Q513 98 510.5 69Q508 40 508 16V-8Q484 -4 461 -2Q438 0 417 0H67L61 27Q75 32 93 36Q111 40 133 43Q139 74 142 113.5Q145 153 145 191V508Q145 540 142 574.5Q139 609 134 638Q112 642 93.5 646.5Q75 651 61 655L67 683H302L306 655Q293 651 275 646.5Q257 642 234 638Q229 609 226 574.5Q223 540 223 508V191Q223 158 226 121Q229 84 234 52H368Q380 52 393.5 52.5Q407 53 454 57Q458 83 465 102Q472 121 481 133ZM187 682ZM290 0ZM365 682ZM398 341ZM500 339Q500 327 497.5 315.5Q495 304 491 295Q481 290 469 287.5Q457 285 445 285Q433 285 422.5 287.5Q412 290 404 294Q400 303 397.5 314.5Q395 326 395 338Q395 351 397 362Q399 373 403 381Q414 385 426 387.5Q438 390 449 390Q461 390 471 388Q481 386 490 382Q495 374 497.5 363Q500 352 500 339ZM395 341ZM1008 133H1045Q1040 98 1037.5 69Q1035 40 1035 16V-8Q1011 -4 988 -2Q965 0 944 0H594L588 27Q602 32 620 36Q638 40 660 43Q666 74 669 113.5Q672 153 672 191V508Q672 540 669 574.5Q666 609 661 638Q639 642 620.5 646.5Q602 651 588 655L594 683H829L833 655Q820 651 802 646.5Q784 642 761 638Q756 609 753 574.5Q750 540 750 508V191Q750 158 753 121Q756 84 761 52H895Q907 52 920.5 52.5Q934 53 981 57Q985 83 992 102Q999 121 1008 133ZM714 682ZM817 0ZM892 682ZM925 341Z" glyph-name="Lgeminada" horiz-adv-x="1054" /><glyph d="M417 472V414L223 308V191Q223 158 226 121Q229 84 234 52H368Q380 52 393.5 52.5Q407 53 454 57Q458 83 465 102Q472 121 481 133H518Q513 98 510.5 69Q508 40 508 16V-8Q484 -4 461 -2Q438 0 417 0H67L61 27Q75 32 93 36Q111 40 133 43Q139 74 142 113.5Q145 153 145 191V266L39 210V268L145 324V508Q145 540 142 574.5Q139 609 134 638Q112 642 93.5 646.5Q75 651 61 655L67 683H302L306 655Q293 651 275 646.5Q257 642 234 638Q229 609 226 574.5Q223 540 223 508V367Z" glyph-name="Lslash" horiz-adv-x="527" unicode="&#321;" /><glyph d="M877 42Q899 40 916 36.5Q933 33 946 28L943 0H706L703 28Q716 33 734 37Q752 41 775 43Q777 73 778 100.5Q779 128 779 153Q779 169 779 176Q779 183 778 189L760 510Q756 583 755 600.5Q754 618 753 631H751L535 0H437L221 631H219L194 191Q193 182 193 171Q193 160 193 140Q193 112 194 88Q195 64 197 43Q220 41 237.5 37Q255 33 268 28L266 0H48L45 28Q58 33 75.5 37Q93 41 114 43Q121 72 126.5 112Q132 152 134 191L154 510Q154 515 154.5 524Q155 533 155 537Q155 562 153.5 587Q152 612 149 638Q128 641 111 645Q94 649 82 653L86 682H287L496 66H501L711 682H907L913 653Q899 649 881.5 645Q864 641 843 638Q840 610 838.5 583.5Q837 557 837 532Q837 528 837.5 519Q838 510 838 505L856 189Q858 157 863.5 119.5Q869 82 877 42Z" glyph-name="M" horiz-adv-x="991" unicode="M" /><glyph d="M525 682H742L747 653Q734 649 716 645Q698 641 676 638Q670 605 666.5 565Q663 525 663 490V0H549L201 630H200Q201 597 201.5 565.5Q202 534 202 507V191Q202 172 203.5 149.5Q205 127 210 85Q212 67 212.5 58.5Q213 50 214 43Q237 41 255 37Q273 33 287 28L283 0H67L61 28Q75 33 93 37Q111 41 133 43Q140 91 143 126.5Q146 162 146 191V508Q146 537 142.5 570Q139 603 133 638Q111 641 93 645Q75 649 61 653L67 682H259L607 55H608Q607 72 606.5 96.5Q606 121 606 175V490Q606 506 603 543Q600 580 594 638Q572 641 554 645Q536 649 522 653ZM404 682ZM404 0Z" glyph-name="N" horiz-adv-x="804" unicode="N" /><glyph glyph-name="NULL" horiz-adv-x="0" /><glyph d="M525 682H742L747 653Q734 649 716 645Q698 641 676 638Q670 605 666.5 565Q663 525 663 490V0H549L201 630H200Q201 597 201.5 565.5Q202 534 202 507V191Q202 172 203.5 149.5Q205 127 210 85Q212 67 212.5 58.5Q213 50 214 43Q237 41 255 37Q273 33 287 28L283 0H67L61 28Q75 33 93 37Q111 41 133 43Q140 91 143 126.5Q146 162 146 191V508Q146 537 142.5 570Q139 603 133 638Q111 641 93 645Q75 649 61 653L67 682H259L607 55H608Q607 72 606.5 96.5Q606 121 606 175V490Q606 506 603 543Q600 580 594 638Q572 641 554 645Q536 649 522 653ZM404 682ZM404 0ZM481 821Q459 803 436.5 787Q414 771 391 757L365 783Q397 811 434 852.5Q471 894 512 948Q523 937 534 925Q545 913 556 900Q546 883 527 863.5Q508 844 481 821ZM403 682Z" glyph-name="Nacute" horiz-adv-x="804" unicode="&#323;" /><glyph d="M525 682H742L747 653Q734 649 716 645Q698 641 676 638Q670 605 666.5 565Q663 525 663 490V0H549L201 630H200Q201 597 201.5 565.5Q202 534 202 507V191Q202 172 203.5 149.5Q205 127 210 85Q212 67 212.5 58.5Q213 50 214 43Q237 41 255 37Q273 33 287 28L283 0H67L61 28Q75 33 93 37Q111 41 133 43Q140 91 143 126.5Q146 162 146 191V508Q146 537 142.5 570Q139 603 133 638Q111 641 93 645Q75 649 61 653L67 682H259L607 55H608Q607 72 606.5 96.5Q606 121 606 175V490Q606 506 603 543Q600 580 594 638Q572 641 554 645Q536 649 522 653ZM404 682ZM404 0ZM464 902Q479 913 496 925Q513 937 531 949L558 924Q542 909 532 899.5Q522 890 513 881Q481 850 455 820.5Q429 791 404 758H403Q377 792 351 822Q325 852 295 881Q284 892 267.5 907.5Q251 923 249 924L276 949Q294 937 311 925Q328 913 343 902Q350 896 370.5 878.5Q391 861 404 848Q420 865 435 878.5Q450 892 464 902ZM404 682Z" glyph-name="Ncaron" horiz-adv-x="804" unicode="&#327;" /><glyph d="M525 682H742L747 653Q734 649 716 645Q698 641 676 638Q670 605 666.5 565Q663 525 663 490V0H549L201 630H200Q201 597 201.5 565.5Q202 534 202 507V191Q202 172 203.5 149.5Q205 127 210 85Q212 67 212.5 58.5Q213 50 214 43Q237 41 255 37Q273 33 287 28L283 0H67L61 28Q75 33 93 37Q111 41 133 43Q140 91 143 126.5Q146 162 146 191V508Q146 537 142.5 570Q139 603 133 638Q111 641 93 645Q75 649 61 653L67 682H259L607 55H608Q607 72 606.5 96.5Q606 121 606 175V490Q606 506 603 543Q600 580 594 638Q572 641 554 645Q536 649 522 653ZM404 682ZM404 0ZM338 845Q316 845 296 837.5Q276 830 258 815L238 844Q240 848 252.5 857Q265 866 286 880Q301 888 315.5 891.5Q330 895 345 895Q363 895 379.5 891.5Q396 888 422 876Q445 866 458 863Q471 860 484 860Q502 860 515.5 868Q529 876 539 893L569 878Q566 863 558.5 850.5Q551 838 540 827Q529 817 515 811.5Q501 806 485 806Q469 806 453.5 810Q438 814 409 826Q381 838 366.5 841.5Q352 845 338 845ZM404 682Z" glyph-name="Ntilde" horiz-adv-x="804" unicode="&#209;" /><glyph d="M161 589Q210 640 277 667.5Q344 695 417 695Q562 695 658 600.5Q754 506 754 353Q754 275 729 209Q704 143 655 94Q606 44 539 16.5Q472 -11 399 -11Q254 -11 158 83Q62 177 62 329Q62 407 87 473Q112 539 161 589ZM218 137Q256 91 307.5 65.5Q359 40 414 40Q519 40 592.5 122Q666 204 666 332Q666 469 590 555.5Q514 642 402 642Q295 642 222 560Q149 478 149 348Q149 286 166.5 232.5Q184 179 218 137ZM408 682Z" glyph-name="O" horiz-adv-x="816" unicode="O" /><glyph d="M890 57Q895 82 902 101Q909 120 917 133H952Q948 85 945.5 55.5Q943 26 943 15V-8Q919 -4 896.5 -2Q874 0 853 0H606Q584 0 564.5 -1Q545 -2 513 -5Q476 -9 452 -10Q428 -11 399 -11Q254 -11 158 83Q62 177 62 329Q62 407 87 473Q112 539 161 589Q210 640 277 667.5Q344 695 417 695Q447 695 473 693.5Q499 692 536 687Q563 684 577.5 683Q592 682 606 682H836Q856 682 878.5 684Q901 686 925 689V666Q925 655 927.5 626Q930 597 934 549H900Q891 562 883.5 580.5Q876 599 870 624Q854 627 832 628.5Q810 630 787 630H661Q656 600 653 568Q650 536 650 507V370H772Q805 370 831.5 373.5Q858 377 874 383L883 380L864 304Q834 311 803.5 314Q773 317 742 317H650V191Q650 159 653.5 122Q657 85 663 51H805Q824 51 857 54Q890 57 890 57ZM149 350Q149 215 226 127.5Q303 40 414 40Q463 40 503 48.5Q543 57 567 73Q569 97 570.5 128Q572 159 572 186V512Q572 534 571 558.5Q570 583 569 600Q543 620 498 631Q453 642 402 642Q295 642 222 560.5Q149 479 149 350Z" glyph-name="OE" horiz-adv-x="1007" unicode="&#338;" /><glyph d="M161 589Q210 640 277 667.5Q344 695 417 695Q562 695 658 600.5Q754 506 754 353Q754 275 729 209Q704 143 655 94Q606 44 539 16.5Q472 -11 399 -11Q254 -11 158 83Q62 177 62 329Q62 407 87 473Q112 539 161 589ZM218 137Q256 91 307.5 65.5Q359 40 414 40Q519 40 592.5 122Q666 204 666 332Q666 469 590 555.5Q514 642 402 642Q295 642 222 560Q149 478 149 348Q149 286 166.5 232.5Q184 179 218 137ZM408 682ZM485 821Q463 803 440.5 787Q418 771 395 757L369 783Q401 811 438 852.5Q475 894 516 948Q527 937 538 925Q549 913 560 900Q550 883 531 863.5Q512 844 485 821ZM407 682Z" glyph-name="Oacute" horiz-adv-x="816" unicode="&#211;" /><glyph d="M161 589Q210 640 277 667.5Q344 695 417 695Q562 695 658 600.5Q754 506 754 353Q754 275 729 209Q704 143 655 94Q606 44 539 16.5Q472 -11 399 -11Q254 -11 158 83Q62 177 62 329Q62 407 87 473Q112 539 161 589ZM218 137Q256 91 307.5 65.5Q359 40 414 40Q519 40 592.5 122Q666 204 666 332Q666 469 590 555.5Q514 642 402 642Q295 642 222 560Q149 478 149 348Q149 286 166.5 232.5Q184 179 218 137ZM408 682ZM408 809Q448 809 475.5 835.5Q503 862 515 909H551Q551 846 508.5 801.5Q466 757 407 757Q347 757 305.5 801.5Q264 846 264 909H302Q313 862 340.5 835.5Q368 809 408 809ZM408 682Z" glyph-name="Obreve" horiz-adv-x="816" unicode="&#334;" /><glyph d="M161 589Q210 640 277 667.5Q344 695 417 695Q562 695 658 600.5Q754 506 754 353Q754 275 729 209Q704 143 655 94Q606 44 539 16.5Q472 -11 399 -11Q254 -11 158 83Q62 177 62 329Q62 407 87 473Q112 539 161 589ZM218 137Q256 91 307.5 65.5Q359 40 414 40Q519 40 592.5 122Q666 204 666 332Q666 469 590 555.5Q514 642 402 642Q295 642 222 560Q149 478 149 348Q149 286 166.5 232.5Q184 179 218 137ZM408 682ZM517 825Q529 813 540.5 802.5Q552 792 562 783L535 757Q517 769 500 781Q483 793 468 804Q454 814 439 827.5Q424 841 408 858Q395 845 374 826.5Q353 808 347 804Q332 793 315 781Q298 769 280 757L253 783Q268 796 279 806Q290 816 299 825Q326 851 353 881.5Q380 912 407 948H408Q434 914 461 883.5Q488 853 517 825ZM408 682Z" glyph-name="Ocircumflex" horiz-adv-x="816" unicode="&#212;" /><glyph d="M161 589Q210 640 277 667.5Q344 695 417 695Q562 695 658 600.5Q754 506 754 353Q754 275 729 209Q704 143 655 94Q606 44 539 16.5Q472 -11 399 -11Q254 -11 158 83Q62 177 62 329Q62 407 87 473Q112 539 161 589ZM218 137Q256 91 307.5 65.5Q359 40 414 40Q519 40 592.5 122Q666 204 666 332Q666 469 590 555.5Q514 642 402 642Q295 642 222 560Q149 478 149 348Q149 286 166.5 232.5Q184 179 218 137ZM408 682ZM327 906Q338 906 347 904Q356 902 363 898Q367 891 369.5 881Q372 871 372 860Q372 848 370 838Q368 828 364 820Q356 816 346 814Q336 812 323 812Q312 812 302.5 814Q293 816 286 819Q282 827 279.5 837.5Q277 848 277 860Q277 870 279 880Q281 890 285 897Q295 901 306 903.5Q317 906 327 906ZM492 906Q503 906 512.5 904Q522 902 529 898Q533 891 535.5 881Q538 871 538 860Q538 848 536 838Q534 828 530 820Q522 816 511.5 814Q501 812 489 812Q478 812 468.5 814Q459 816 452 819Q448 827 445.5 837.5Q443 848 443 860Q443 870 445 880Q447 890 451 897Q461 901 471.5 903.5Q482 906 492 906ZM408 682Z" glyph-name="Odieresis" horiz-adv-x="816" unicode="&#214;" /><glyph d="M161 589Q210 640 277 667.5Q344 695 417 695Q562 695 658 600.5Q754 506 754 353Q754 275 729 209Q704 143 655 94Q606 44 539 16.5Q472 -11 399 -11Q254 -11 158 83Q62 177 62 329Q62 407 87 473Q112 539 161 589ZM218 137Q256 91 307.5 65.5Q359 40 414 40Q519 40 592.5 122Q666 204 666 332Q666 469 590 555.5Q514 642 402 642Q295 642 222 560Q149 478 149 348Q149 286 166.5 232.5Q184 179 218 137ZM408 682ZM299 948Q341 894 377.5 852.5Q414 811 446 783L420 757Q397 771 374.5 787Q352 803 330 821Q303 844 284 863.5Q265 883 255 900Q266 913 277 925Q288 937 299 948ZM408 682Z" glyph-name="Ograve" horiz-adv-x="816" unicode="&#210;" /><glyph d="M161 589Q210 640 277 667.5Q344 695 417 695Q562 695 658 600.5Q754 506 754 353Q754 275 729 209Q704 143 655 94Q606 44 539 16.5Q472 -11 399 -11Q254 -11 158 83Q62 177 62 329Q62 407 87 473Q112 539 161 589ZM218 137Q256 91 307.5 65.5Q359 40 414 40Q519 40 592.5 122Q666 204 666 332Q666 469 590 555.5Q514 642 402 642Q295 642 222 560Q149 478 149 348Q149 286 166.5 232.5Q184 179 218 137ZM408 682ZM407 816Q387 800 366.5 785.5Q346 771 326 758L302 781Q331 807 364.5 844Q398 881 435 930Q443 922 453 911.5Q463 901 475 887Q466 872 448.5 854Q431 836 407 816ZM563 816Q543 800 522.5 785.5Q502 771 482 758L459 781Q488 807 521.5 844Q555 881 592 930Q602 920 611.5 909.5Q621 899 631 887Q622 872 605 854Q588 836 563 816ZM408 682Z" glyph-name="Ohungarumlaut" horiz-adv-x="816" unicode="&#336;" /><glyph d="M161 589Q210 640 277 667.5Q344 695 417 695Q562 695 658 600.5Q754 506 754 353Q754 275 729 209Q704 143 655 94Q606 44 539 16.5Q472 -11 399 -11Q254 -11 158 83Q62 177 62 329Q62 407 87 473Q112 539 161 589ZM218 137Q256 91 307.5 65.5Q359 40 414 40Q519 40 592.5 122Q666 204 666 332Q666 469 590 555.5Q514 642 402 642Q295 642 222 560Q149 478 149 348Q149 286 166.5 232.5Q184 179 218 137ZM408 682ZM564 792H251V848H564ZM408 682Z" glyph-name="Omacron" horiz-adv-x="816" unicode="&#332;" /><glyph d="M75 339Q75 499 171.5 597Q268 695 415 695Q562 695 658.5 597Q755 499 755 339Q755 238 711 166.5Q667 95 581 55V53L753 66V0H486L488 47H489Q566 76 616.5 164Q667 252 667 362Q667 491 597 566.5Q527 642 415 642Q303 642 233 566.5Q163 491 163 362Q163 252 213.5 164Q264 76 341 47H342L344 0H77V66L249 53V55Q163 95 119 166.5Q75 238 75 339Z" glyph-name="Omega" horiz-adv-x="805" unicode="&#8486;" /><glyph d="M602 644 631 684H682L635 620Q693 574 723.5 506Q754 438 754 355Q754 277 729 210.5Q704 144 656 95Q607 44 540 16.5Q473 -11 399 -11Q348 -11 299.5 2.5Q251 16 210 41L180 0H130L178 65Q121 111 91.5 179Q62 247 62 330Q62 407 87.5 473Q113 539 161 589Q210 640 277 667.5Q344 695 417 695Q467 695 514.5 682Q562 669 602 644ZM414 40Q519 40 592.5 121.5Q666 203 666 330Q666 401 645.5 460Q625 519 588 557L253 101Q288 71 329.5 55.5Q371 40 414 40ZM225 129 558 585Q524 613 483.5 627.5Q443 642 402 642Q295 642 222 560.5Q149 479 149 350Q149 283 168.5 226Q188 169 225 129ZM408 682Z" glyph-name="Oslash" horiz-adv-x="816" unicode="&#216;" /><glyph d="M161 589Q210 640 277 667.5Q344 695 417 695Q562 695 658 600.5Q754 506 754 353Q754 275 729 209Q704 143 655 94Q606 44 539 16.5Q472 -11 399 -11Q254 -11 158 83Q62 177 62 329Q62 407 87 473Q112 539 161 589ZM218 137Q256 91 307.5 65.5Q359 40 414 40Q519 40 592.5 122Q666 204 666 332Q666 469 590 555.5Q514 642 402 642Q295 642 222 560Q149 478 149 348Q149 286 166.5 232.5Q184 179 218 137ZM408 682ZM342 845Q320 845 300 837.5Q280 830 262 815L242 844Q244 848 256.5 857Q269 866 290 880Q305 888 319.5 891.5Q334 895 349 895Q367 895 383.5 891.5Q400 888 426 876Q449 866 462 863Q475 860 488 860Q506 860 519.5 868Q533 876 543 893L573 878Q570 863 562.5 850.5Q555 838 544 827Q533 817 519 811.5Q505 806 489 806Q473 806 457.5 810Q442 814 413 826Q385 838 370.5 841.5Q356 845 342 845ZM408 682Z" glyph-name="Otilde" horiz-adv-x="816" unicode="&#213;" /><glyph d="M61 655 66 683H192Q207 683 224 683.5Q241 684 273 687Q303 689 317.5 689.5Q332 690 344 690Q441 690 493.5 635Q546 580 546 478Q546 393 487 335Q428 277 332 277Q317 277 299 281Q281 285 270 291V314H297Q313 314 320 314Q327 314 331 315Q393 321 430.5 368Q468 415 468 483Q468 560 428 602Q388 644 316 644Q303 644 284.5 643Q266 642 233 640Q228 605 225 571Q222 537 222 508V192Q222 164 224.5 130.5Q227 97 234 44Q259 41 280.5 37Q302 33 319 28L314 0H66L61 28Q75 33 93 37Q111 41 133 44Q134 53 137 78Q140 103 142 118Q144 140 145 158Q146 176 146 192V509Q146 535 143 567.5Q140 600 133 639Q111 643 93 647Q75 651 61 655Z" glyph-name="P" horiz-adv-x="598" unicode="P" /><glyph d="M307 -82Q316 -80 327 -79.5Q338 -79 374 -79Q459 -79 562.5 -100Q666 -121 778 -161Q772 -178 762.5 -198Q753 -218 741 -241Q700 -220 656 -201Q612 -182 565 -165Q507 -143 460 -131.5Q413 -120 379 -118Q374 -122 362 -128.5Q350 -135 333 -145Q316 -154 304 -158.5Q292 -163 284 -163Q270 -163 262 -155Q254 -147 254 -133Q254 -115 268.5 -100.5Q283 -86 307 -82ZM161 589Q210 640 277 667.5Q344 695 417 695Q562 695 658 600.5Q754 506 754 353Q754 275 729 209Q704 143 655 94Q606 44 539 16.5Q472 -11 399 -11Q254 -11 158 83Q62 177 62 329Q62 407 87 473Q112 539 161 589ZM218 137Q256 91 307.5 65.5Q359 40 414 40Q519 40 592.5 122Q666 204 666 332Q666 469 590 555.5Q514 642 402 642Q295 642 222 560Q149 478 149 348Q149 286 166.5 232.5Q184 179 218 137Z" glyph-name="Q" horiz-adv-x="816" unicode="Q" /><glyph d="M541 503Q541 436 501 383Q461 330 411 315Q439 259 456.5 224.5Q474 190 480 178Q517 109 551 72.5Q585 36 627 20L626 -2Q612 -7 598.5 -9.5Q585 -12 572 -12Q528 -12 492.5 20Q457 52 410 148Q395 179 378 214.5Q361 250 341 290H222V190Q222 163 224.5 130.5Q227 98 234 44Q256 41 274 37Q292 33 306 28L301 0H66L61 28Q75 33 92.5 37Q110 41 132 44Q139 86 142 122.5Q145 159 145 190V509Q145 539 142 572.5Q139 606 133 638Q111 642 93 646Q75 650 61 655L66 683H169Q183 683 204 684Q225 685 268 687Q299 689 311.5 689.5Q324 690 331 690Q432 690 486.5 641Q541 592 541 503ZM222 335H395Q425 360 444 402.5Q463 445 463 487Q463 564 423.5 603.5Q384 643 306 643Q294 643 283 642.5Q272 642 233 639Q225 570 223.5 548.5Q222 527 222 508ZM330 682ZM344 0Z" glyph-name="R" horiz-adv-x="636" unicode="R" /><glyph d="M541 503Q541 436 501 383Q461 330 411 315Q439 259 456.5 224.5Q474 190 480 178Q517 109 551 72.5Q585 36 627 20L626 -2Q612 -7 598.5 -9.5Q585 -12 572 -12Q528 -12 492.5 20Q457 52 410 148Q395 179 378 214.5Q361 250 341 290H222V190Q222 163 224.5 130.5Q227 98 234 44Q256 41 274 37Q292 33 306 28L301 0H66L61 28Q75 33 92.5 37Q110 41 132 44Q139 86 142 122.5Q145 159 145 190V509Q145 539 142 572.5Q139 606 133 638Q111 642 93 646Q75 650 61 655L66 683H169Q183 683 204 684Q225 685 268 687Q299 689 311.5 689.5Q324 690 331 690Q432 690 486.5 641Q541 592 541 503ZM222 335H395Q425 360 444 402.5Q463 445 463 487Q463 564 423.5 603.5Q384 643 306 643Q294 643 283 642.5Q272 642 233 639Q225 570 223.5 548.5Q222 527 222 508ZM330 682ZM344 0ZM408 821Q386 803 363.5 787Q341 771 318 757L292 783Q324 811 361 852.5Q398 894 439 948Q450 937 461 925Q472 913 483 900Q473 883 454 863.5Q435 844 408 821ZM330 682Z" glyph-name="Racute" horiz-adv-x="636" unicode="&#340;" /><glyph d="M541 503Q541 436 501 383Q461 330 411 315Q439 259 456.5 224.5Q474 190 480 178Q517 109 551 72.5Q585 36 627 20L626 -2Q612 -7 598.5 -9.5Q585 -12 572 -12Q528 -12 492.5 20Q457 52 410 148Q395 179 378 214.5Q361 250 341 290H222V190Q222 163 224.5 130.5Q227 98 234 44Q256 41 274 37Q292 33 306 28L301 0H66L61 28Q75 33 92.5 37Q110 41 132 44Q139 86 142 122.5Q145 159 145 190V509Q145 539 142 572.5Q139 606 133 638Q111 642 93 646Q75 650 61 655L66 683H169Q183 683 204 684Q225 685 268 687Q299 689 311.5 689.5Q324 690 331 690Q432 690 486.5 641Q541 592 541 503ZM222 335H395Q425 360 444 402.5Q463 445 463 487Q463 564 423.5 603.5Q384 643 306 643Q294 643 283 642.5Q272 642 233 639Q225 570 223.5 548.5Q222 527 222 508ZM330 682ZM344 0ZM390 902Q405 913 422 925Q439 937 457 949L484 924Q468 909 458 899.5Q448 890 439 881Q407 850 381 820.5Q355 791 330 758H329Q303 792 277 822Q251 852 221 881Q210 892 193.5 907.5Q177 923 175 924L202 949Q220 937 237 925Q254 913 269 902Q276 896 296.5 878.5Q317 861 330 848Q346 865 361 878.5Q376 892 390 902ZM330 682Z" glyph-name="Rcaron" horiz-adv-x="636" unicode="&#344;" /><glyph d="M80 148 127 149 152 50Q169 45 193.5 42.5Q218 40 246 40Q328 40 371.5 72Q415 104 415 162Q415 202 392 232.5Q369 263 319 290L208 350Q147 383 118 424.5Q89 466 89 522Q89 600 145.5 647.5Q202 695 297 695Q338 695 379.5 686.5Q421 678 444 666Q456 660 462 650.5Q468 641 468 628Q468 616 458.5 590Q449 564 440 536L393 534L368 635Q356 639 336 641.5Q316 644 295 644Q233 644 197 613.5Q161 583 161 531Q161 497 178 471Q195 445 230 426L365 353Q429 319 459.5 277Q490 235 490 181Q490 91 427.5 39.5Q365 -12 252 -12Q200 -12 149.5 -3.5Q99 5 76 17Q65 23 59.5 32.5Q54 42 54 54Q54 65 63 92.5Q72 120 80 148ZM272 10ZM280 682ZM272 0Z" glyph-name="S" horiz-adv-x="553" unicode="S" /><glyph d="M80 148 127 149 152 50Q169 45 193.5 42.5Q218 40 246 40Q328 40 371.5 72Q415 104 415 162Q415 202 392 232.5Q369 263 319 290L208 350Q147 383 118 424.5Q89 466 89 522Q89 600 145.5 647.5Q202 695 297 695Q338 695 379.5 686.5Q421 678 444 666Q456 660 462 650.5Q468 641 468 628Q468 616 458.5 590Q449 564 440 536L393 534L368 635Q356 639 336 641.5Q316 644 295 644Q233 644 197 613.5Q161 583 161 531Q161 497 178 471Q195 445 230 426L365 353Q429 319 459.5 277Q490 235 490 181Q490 91 427.5 39.5Q365 -12 252 -12Q200 -12 149.5 -3.5Q99 5 76 17Q65 23 59.5 32.5Q54 42 54 54Q54 65 63 92.5Q72 120 80 148ZM272 10ZM280 682ZM272 0ZM357 821Q335 803 312.5 787Q290 771 267 757L241 783Q273 811 310 852.5Q347 894 388 948Q399 937 410 925Q421 913 432 900Q422 883 403 863.5Q384 844 357 821ZM279 682Z" glyph-name="Sacute" horiz-adv-x="553" unicode="&#346;" /><glyph d="M80 148 127 149 152 50Q169 45 193.5 42.5Q218 40 246 40Q328 40 371.5 72Q415 104 415 162Q415 202 392 232.5Q369 263 319 290L208 350Q147 383 118 424.5Q89 466 89 522Q89 600 145.5 647.5Q202 695 297 695Q338 695 379.5 686.5Q421 678 444 666Q456 660 462 650.5Q468 641 468 628Q468 616 458.5 590Q449 564 440 536L393 534L368 635Q356 639 336 641.5Q316 644 295 644Q233 644 197 613.5Q161 583 161 531Q161 497 178 471Q195 445 230 426L365 353Q429 319 459.5 277Q490 235 490 181Q490 91 427.5 39.5Q365 -12 252 -12Q200 -12 149.5 -3.5Q99 5 76 17Q65 23 59.5 32.5Q54 42 54 54Q54 65 63 92.5Q72 120 80 148ZM272 10ZM280 682ZM272 0ZM340 902Q355 913 372 925Q389 937 407 949L434 924Q418 909 408 899.5Q398 890 389 881Q357 850 331 820.5Q305 791 280 758H279Q253 792 227 822Q201 852 171 881Q160 892 143.5 907.5Q127 923 125 924L152 949Q170 937 187 925Q204 913 219 902Q226 896 246.5 878.5Q267 861 280 848Q296 865 311 878.5Q326 892 340 902ZM280 682Z" glyph-name="Scaron" horiz-adv-x="553" unicode="&#352;" /><glyph d="M80 148 127 149 152 50Q169 45 193.5 42.5Q218 40 246 40Q328 40 371.5 72Q415 104 415 162Q415 202 392 232.5Q369 263 319 290L208 350Q147 383 118 424.5Q89 466 89 522Q89 600 145.5 647.5Q202 695 297 695Q338 695 379.5 686.5Q421 678 444 666Q456 660 462 650.5Q468 641 468 628Q468 616 458.5 590Q449 564 440 536L393 534L368 635Q356 639 336 641.5Q316 644 295 644Q233 644 197 613.5Q161 583 161 531Q161 497 178 471Q195 445 230 426L365 353Q429 319 459.5 277Q490 235 490 181Q490 91 427.5 39.5Q365 -12 252 -12Q200 -12 149.5 -3.5Q99 5 76 17Q65 23 59.5 32.5Q54 42 54 54Q54 65 63 92.5Q72 120 80 148ZM272 10ZM280 682ZM272 0ZM254 -230Q228 -230 205.5 -222.5Q183 -215 163 -199L168 -170Q190 -177 208 -180.5Q226 -184 240 -184Q251 -184 256 -180.5Q261 -177 261 -169Q261 -163 258 -155Q255 -147 246 -127Q235 -104 231.5 -93.5Q228 -83 228 -76Q228 -66 231.5 -57.5Q235 -49 242 -42Q249 -36 257.5 -31.5Q266 -27 275 -25L300 -27Q294 -34 291 -43.5Q288 -53 288 -65Q288 -78 291 -90.5Q294 -103 305 -124Q315 -145 318 -156.5Q321 -168 321 -180Q321 -205 304 -217.5Q287 -230 254 -230ZM272 10Z" glyph-name="Scedilla" horiz-adv-x="553" unicode="&#350;" /><glyph d="M80 148 127 149 152 50Q169 45 193.5 42.5Q218 40 246 40Q328 40 371.5 72Q415 104 415 162Q415 202 392 232.5Q369 263 319 290L208 350Q147 383 118 424.5Q89 466 89 522Q89 600 145.5 647.5Q202 695 297 695Q338 695 379.5 686.5Q421 678 444 666Q456 660 462 650.5Q468 641 468 628Q468 616 458.5 590Q449 564 440 536L393 534L368 635Q356 639 336 641.5Q316 644 295 644Q233 644 197 613.5Q161 583 161 531Q161 497 178 471Q195 445 230 426L365 353Q429 319 459.5 277Q490 235 490 181Q490 91 427.5 39.5Q365 -12 252 -12Q200 -12 149.5 -3.5Q99 5 76 17Q65 23 59.5 32.5Q54 42 54 54Q54 65 63 92.5Q72 120 80 148ZM272 10ZM280 682ZM272 0ZM389 825Q401 813 412.5 802.5Q424 792 434 783L407 757Q389 769 372 781Q355 793 340 804Q326 814 311 827.5Q296 841 280 858Q267 845 246 826.5Q225 808 219 804Q204 793 187 781Q170 769 152 757L125 783Q140 796 151 806Q162 816 171 825Q198 851 225 881.5Q252 912 279 948H280Q306 914 333 883.5Q360 853 389 825ZM280 682Z" glyph-name="Scircumflex" horiz-adv-x="553" unicode="&#348;" /><glyph d="M551 691V666Q551 636 553 605Q555 574 559 543H524Q515 559 508 579.5Q501 600 496 626Q454 629 439.5 630Q425 631 413 631H324V192Q324 163 327 127.5Q330 92 337 44Q359 41 377 37Q395 33 408 28L403 0H167L164 28Q178 33 195 37Q212 41 233 44Q239 79 243 118.5Q247 158 247 192V631H157Q148 631 137 630.5Q126 630 73 626Q69 600 62 579.5Q55 559 46 543H9Q14 574 16.5 605Q19 636 19 666V691Q44 687 66.5 685Q89 683 109 683H460Q481 683 503.5 685Q526 687 551 691ZM355 10ZM212 682ZM357 0Z" glyph-name="T" horiz-adv-x="569" unicode="T" /><glyph d="M337 44Q359 41 377 37Q395 33 408 28L403 0H167L164 28Q178 33 195 37Q212 41 233 44Q239 79 243 118.5Q247 158 247 192V346H75V390H247V631H157Q148 631 137 630.5Q126 630 73 626Q69 600 62 579.5Q55 559 46 543H9Q14 574 16.5 605Q19 636 19 666V691Q44 687 66.5 685Q89 683 109 683H460Q481 683 503.5 685Q526 687 551 691V666Q551 636 553 605Q555 574 559 543H524Q515 559 508 579.5Q501 600 496 626Q454 629 439.5 630Q425 631 413 631H324V390H496V346H324V192Q324 163 327 127.5Q330 92 337 44Z" glyph-name="Tbar" horiz-adv-x="569" unicode="&#358;" /><glyph d="M551 691V666Q551 636 553 605Q555 574 559 543H524Q515 559 508 579.5Q501 600 496 626Q454 629 439.5 630Q425 631 413 631H324V192Q324 163 327 127.5Q330 92 337 44Q359 41 377 37Q395 33 408 28L403 0H167L164 28Q178 33 195 37Q212 41 233 44Q239 79 243 118.5Q247 158 247 192V631H157Q148 631 137 630.5Q126 630 73 626Q69 600 62 579.5Q55 559 46 543H9Q14 574 16.5 605Q19 636 19 666V691Q44 687 66.5 685Q89 683 109 683H460Q481 683 503.5 685Q526 687 551 691ZM355 10ZM212 682ZM357 0ZM344 902Q359 913 376 925Q393 937 411 949L438 924Q422 909 412 899.5Q402 890 393 881Q361 850 335 820.5Q309 791 284 758H283Q257 792 231 822Q205 852 175 881Q164 892 147.5 907.5Q131 923 129 924L156 949Q174 937 191 925Q208 913 223 902Q230 896 250.5 878.5Q271 861 284 848Q300 865 315 878.5Q330 892 344 902ZM284 682Z" glyph-name="Tcaron" horiz-adv-x="569" unicode="&#356;" /><glyph d="M225 544Q276 547 306 548.5Q336 550 344 550Q441 550 493.5 495.5Q546 441 546 340Q546 255 487 196Q428 137 332 137Q317 137 299 141Q281 145 270 151V174Q275 174 286 173.5Q297 173 299 173Q376 173 422 219.5Q468 266 468 343Q468 421 428.5 462.5Q389 504 315 504Q294 504 268.5 503Q243 502 224 501Q224 435 223.5 385.5Q223 336 223 280Q222 248 222 229.5Q222 211 222 191Q222 163 224.5 129.5Q227 96 234 43Q259 40 280.5 36Q302 32 319 27L314 -1H66L61 27Q75 32 93 36Q111 40 133 43Q134 52 137 77Q140 102 142 117Q144 139 145 157Q146 175 146 191Q146 257 146 309Q146 361 147 424Q147 458 147 475Q147 492 147 509Q147 537 143.5 570Q140 603 134 639Q113 642 95.5 646Q78 650 64 654L67 682H304L306 654Q293 650 275.5 646Q258 642 236 639Q232 620 229.5 595.5Q227 571 225 544Z" glyph-name="Thorn" horiz-adv-x="598" unicode="&#222;" /><glyph d="M662 639Q655 593 652.5 563.5Q650 534 650 509V237Q650 124 580 56.5Q510 -11 399 -11Q281 -11 210 53.5Q139 118 139 230V509Q139 537 136 570Q133 603 128 639Q107 642 89 646Q71 650 56 655L59 683H296L301 655Q287 650 269 646Q251 642 228 639Q221 593 218.5 563.5Q216 534 216 509V237Q216 146 266 94.5Q316 43 399 43Q486 43 539.5 95.5Q593 148 593 239V509Q593 540 590 574Q587 608 581 639Q559 642 541 646Q523 650 509 655L513 683H730L733 655Q719 650 701.5 646Q684 642 662 639ZM408 682ZM489 0Z" glyph-name="U" horiz-adv-x="785" unicode="U" /><glyph d="M662 639Q655 593 652.5 563.5Q650 534 650 509V237Q650 124 580 56.5Q510 -11 399 -11Q281 -11 210 53.5Q139 118 139 230V509Q139 537 136 570Q133 603 128 639Q107 642 89 646Q71 650 56 655L59 683H296L301 655Q287 650 269 646Q251 642 228 639Q221 593 218.5 563.5Q216 534 216 509V237Q216 146 266 94.5Q316 43 399 43Q486 43 539.5 95.5Q593 148 593 239V509Q593 540 590 574Q587 608 581 639Q559 642 541 646Q523 650 509 655L513 683H730L733 655Q719 650 701.5 646Q684 642 662 639ZM408 682ZM489 0ZM486 821Q464 803 441.5 787Q419 771 396 757L370 783Q402 811 439 852.5Q476 894 517 948Q528 937 539 925Q550 913 561 900Q551 883 532 863.5Q513 844 486 821ZM408 682Z" glyph-name="Uacute" horiz-adv-x="785" unicode="&#218;" /><glyph d="M662 639Q655 593 652.5 563.5Q650 534 650 509V237Q650 124 580 56.5Q510 -11 399 -11Q281 -11 210 53.5Q139 118 139 230V509Q139 537 136 570Q133 603 128 639Q107 642 89 646Q71 650 56 655L59 683H296L301 655Q287 650 269 646Q251 642 228 639Q221 593 218.5 563.5Q216 534 216 509V237Q216 146 266 94.5Q316 43 399 43Q486 43 539.5 95.5Q593 148 593 239V509Q593 540 590 574Q587 608 581 639Q559 642 541 646Q523 650 509 655L513 683H730L733 655Q719 650 701.5 646Q684 642 662 639ZM408 682ZM489 0ZM408 809Q448 809 475.5 835.5Q503 862 515 909H551Q551 846 508.5 801.5Q466 757 407 757Q347 757 305.5 801.5Q264 846 264 909H302Q313 862 340.5 835.5Q368 809 408 809ZM408 682Z" glyph-name="Ubreve" horiz-adv-x="785" unicode="&#364;" /><glyph d="M662 639Q655 593 652.5 563.5Q650 534 650 509V237Q650 124 580 56.5Q510 -11 399 -11Q281 -11 210 53.5Q139 118 139 230V509Q139 537 136 570Q133 603 128 639Q107 642 89 646Q71 650 56 655L59 683H296L301 655Q287 650 269 646Q251 642 228 639Q221 593 218.5 563.5Q216 534 216 509V237Q216 146 266 94.5Q316 43 399 43Q486 43 539.5 95.5Q593 148 593 239V509Q593 540 590 574Q587 608 581 639Q559 642 541 646Q523 650 509 655L513 683H730L733 655Q719 650 701.5 646Q684 642 662 639ZM408 682ZM489 0ZM517 825Q529 813 540.5 802.5Q552 792 562 783L535 757Q517 769 500 781Q483 793 468 804Q454 814 439 827.5Q424 841 408 858Q395 845 374 826.5Q353 808 347 804Q332 793 315 781Q298 769 280 757L253 783Q268 796 279 806Q290 816 299 825Q326 851 353 881.5Q380 912 407 948H408Q434 914 461 883.5Q488 853 517 825ZM408 682Z" glyph-name="Ucircumflex" horiz-adv-x="785" unicode="&#219;" /><glyph d="M662 639Q655 593 652.5 563.5Q650 534 650 509V237Q650 124 580 56.5Q510 -11 399 -11Q281 -11 210 53.5Q139 118 139 230V509Q139 537 136 570Q133 603 128 639Q107 642 89 646Q71 650 56 655L59 683H296L301 655Q287 650 269 646Q251 642 228 639Q221 593 218.5 563.5Q216 534 216 509V237Q216 146 266 94.5Q316 43 399 43Q486 43 539.5 95.5Q593 148 593 239V509Q593 540 590 574Q587 608 581 639Q559 642 541 646Q523 650 509 655L513 683H730L733 655Q719 650 701.5 646Q684 642 662 639ZM408 682ZM489 0ZM327 906Q338 906 347 904Q356 902 363 898Q367 891 369.5 881Q372 871 372 860Q372 848 370 838Q368 828 364 820Q356 816 346 814Q336 812 323 812Q312 812 302.5 814Q293 816 286 819Q282 827 279.5 837.5Q277 848 277 860Q277 870 279 880Q281 890 285 897Q295 901 306 903.5Q317 906 327 906ZM492 906Q503 906 512.5 904Q522 902 529 898Q533 891 535.5 881Q538 871 538 860Q538 848 536 838Q534 828 530 820Q522 816 511.5 814Q501 812 489 812Q478 812 468.5 814Q459 816 452 819Q448 827 445.5 837.5Q443 848 443 860Q443 870 445 880Q447 890 451 897Q461 901 471.5 903.5Q482 906 492 906ZM408 682Z" glyph-name="Udieresis" horiz-adv-x="785" unicode="&#220;" /><glyph d="M662 639Q655 593 652.5 563.5Q650 534 650 509V237Q650 124 580 56.5Q510 -11 399 -11Q281 -11 210 53.5Q139 118 139 230V509Q139 537 136 570Q133 603 128 639Q107 642 89 646Q71 650 56 655L59 683H296L301 655Q287 650 269 646Q251 642 228 639Q221 593 218.5 563.5Q216 534 216 509V237Q216 146 266 94.5Q316 43 399 43Q486 43 539.5 95.5Q593 148 593 239V509Q593 540 590 574Q587 608 581 639Q559 642 541 646Q523 650 509 655L513 683H730L733 655Q719 650 701.5 646Q684 642 662 639ZM408 682ZM489 0ZM299 948Q341 894 377.5 852.5Q414 811 446 783L420 757Q397 771 374.5 787Q352 803 330 821Q303 844 284 863.5Q265 883 255 900Q266 913 277 925Q288 937 299 948ZM408 682Z" glyph-name="Ugrave" horiz-adv-x="785" unicode="&#217;" /><glyph d="M662 639Q655 593 652.5 563.5Q650 534 650 509V237Q650 124 580 56.5Q510 -11 399 -11Q281 -11 210 53.5Q139 118 139 230V509Q139 537 136 570Q133 603 128 639Q107 642 89 646Q71 650 56 655L59 683H296L301 655Q287 650 269 646Q251 642 228 639Q221 593 218.5 563.5Q216 534 216 509V237Q216 146 266 94.5Q316 43 399 43Q486 43 539.5 95.5Q593 148 593 239V509Q593 540 590 574Q587 608 581 639Q559 642 541 646Q523 650 509 655L513 683H730L733 655Q719 650 701.5 646Q684 642 662 639ZM408 682ZM489 0ZM407 816Q387 800 366.5 785.5Q346 771 326 758L302 781Q331 807 364.5 844Q398 881 435 930Q443 922 453 911.5Q463 901 475 887Q466 872 448.5 854Q431 836 407 816ZM563 816Q543 800 522.5 785.5Q502 771 482 758L459 781Q488 807 521.5 844Q555 881 592 930Q602 920 611.5 909.5Q621 899 631 887Q622 872 605 854Q588 836 563 816ZM408 682Z" glyph-name="Uhungarumlaut" horiz-adv-x="785" unicode="&#368;" /><glyph d="M662 639Q655 593 652.5 563.5Q650 534 650 509V237Q650 124 580 56.5Q510 -11 399 -11Q281 -11 210 53.5Q139 118 139 230V509Q139 537 136 570Q133 603 128 639Q107 642 89 646Q71 650 56 655L59 683H296L301 655Q287 650 269 646Q251 642 228 639Q221 593 218.5 563.5Q216 534 216 509V237Q216 146 266 94.5Q316 43 399 43Q486 43 539.5 95.5Q593 148 593 239V509Q593 540 590 574Q587 608 581 639Q559 642 541 646Q523 650 509 655L513 683H730L733 655Q719 650 701.5 646Q684 642 662 639ZM408 682ZM489 0ZM564 792H251V848H564ZM408 682Z" glyph-name="Umacron" horiz-adv-x="785" unicode="&#362;" /><glyph d="M494 -171Q448 -171 419.5 -150.5Q391 -130 391 -96Q391 -72 407 -50Q423 -28 456 -6Q440 -9 426 -10Q412 -11 399 -11Q281 -11 210 53.5Q139 118 139 230V509Q139 537 136 570Q133 603 128 639Q107 642 89 646Q71 650 56 655L59 683H296L301 655Q287 650 269 646Q251 642 228 639Q221 593 218.5 563.5Q216 534 216 509V237Q216 146 266 94.5Q316 43 399 43Q486 43 539.5 95.5Q593 148 593 239V509Q593 540 590 574Q587 608 581 639Q559 642 541 646Q523 650 509 655L513 683H730L733 655Q719 650 701.5 646Q684 642 662 639Q655 593 652.5 563.5Q650 534 650 509V237Q650 163 619.5 109Q589 55 525 17Q490 -4 471 -29.5Q452 -55 452 -80Q452 -105 466 -118Q480 -131 508 -131Q517 -131 530 -129Q543 -127 559 -122V-154Q548 -163 531.5 -167Q515 -171 494 -171Z" glyph-name="Uogonek" horiz-adv-x="785" unicode="&#370;" /><glyph d="M662 639Q655 593 652.5 563.5Q650 534 650 509V237Q650 124 580 56.5Q510 -11 399 -11Q281 -11 210 53.5Q139 118 139 230V509Q139 537 136 570Q133 603 128 639Q107 642 89 646Q71 650 56 655L59 683H296L301 655Q287 650 269 646Q251 642 228 639Q221 593 218.5 563.5Q216 534 216 509V237Q216 146 266 94.5Q316 43 399 43Q486 43 539.5 95.5Q593 148 593 239V509Q593 540 590 574Q587 608 581 639Q559 642 541 646Q523 650 509 655L513 683H730L733 655Q719 650 701.5 646Q684 642 662 639ZM408 682ZM489 0ZM408 960Q428 960 448 956Q468 952 487 944Q497 929 502 907.5Q507 886 507 862Q507 841 502.5 820Q498 799 490 781Q471 772 449.5 767.5Q428 763 408 763Q382 763 362 767Q342 771 327 779Q318 795 313.5 816.5Q309 838 309 862Q309 884 313 905Q317 926 325 942Q346 951 367 955.5Q388 960 408 960ZM470 861Q470 876 467 889Q464 902 458 912Q447 917 434.5 919.5Q422 922 408 922Q396 922 382.5 919Q369 916 356 911Q351 901 348.5 888Q346 875 346 861Q346 847 349 834Q352 821 358 811Q367 806 380 803.5Q393 801 408 801Q422 801 435 804Q448 807 459 813Q464 823 467 835.5Q470 848 470 861ZM408 682Z" glyph-name="Uring" horiz-adv-x="785" unicode="&#366;" /><glyph d="M662 639Q655 593 652.5 563.5Q650 534 650 509V237Q650 124 580 56.5Q510 -11 399 -11Q281 -11 210 53.5Q139 118 139 230V509Q139 537 136 570Q133 603 128 639Q107 642 89 646Q71 650 56 655L59 683H296L301 655Q287 650 269 646Q251 642 228 639Q221 593 218.5 563.5Q216 534 216 509V237Q216 146 266 94.5Q316 43 399 43Q486 43 539.5 95.5Q593 148 593 239V509Q593 540 590 574Q587 608 581 639Q559 642 541 646Q523 650 509 655L513 683H730L733 655Q719 650 701.5 646Q684 642 662 639ZM408 682ZM489 0ZM342 845Q320 845 300 837.5Q280 830 262 815L242 844Q244 848 256.5 857Q269 866 290 880Q305 888 319.5 891.5Q334 895 349 895Q367 895 383.5 891.5Q400 888 426 876Q449 866 462 863Q475 860 488 860Q506 860 519.5 868Q533 876 543 893L573 878Q570 863 562.5 850.5Q555 838 544 827Q533 817 519 811.5Q505 806 489 806Q473 806 457.5 810Q442 814 413 826Q385 838 370.5 841.5Q356 845 342 845ZM408 682Z" glyph-name="Utilde" horiz-adv-x="785" unicode="&#360;" /><glyph d="M681 682 684 654Q675 650 662.5 645.5Q650 641 634 636Q615 602 598 562.5Q581 523 569 489L401 0H291L121 490Q110 523 93.5 562Q77 601 60 636Q43 641 30 645.5Q17 650 8 654L10 682H243L248 654Q233 649 213 645Q193 641 169 638Q176 597 185.5 559.5Q195 522 206 491L356 47L508 494Q518 523 526.5 560Q535 597 543 638Q519 641 499 645Q479 649 463 654L467 682Z" glyph-name="V" horiz-adv-x="661" unicode="V" /><glyph d="M1102 682 1105 654Q1096 650 1083 645.5Q1070 641 1053 636Q1028 583 1014 550Q1000 517 990 490L816 0H707L579 447Q574 464 569.5 486.5Q565 509 562 533H559Q557 518 550.5 491Q544 464 539 448L390 0H280L125 491Q115 523 98.5 561Q82 599 63 635Q46 640 32.5 644.5Q19 649 9 654L13 682H246L249 654Q235 649 215 645Q195 641 169 638Q178 598 188 560.5Q198 523 208 493L346 47H347L490 494Q504 536 518 583Q532 630 547 682H590Q608 626 622.5 579Q637 532 647 494L771 47H773L929 494Q937 518 945.5 550.5Q954 583 965 638Q940 641 920 645Q900 649 885 654L887 682ZM569 682Z" glyph-name="W" horiz-adv-x="1091" unicode="W" /><glyph d="M1102 682 1105 654Q1096 650 1083 645.5Q1070 641 1053 636Q1028 583 1014 550Q1000 517 990 490L816 0H707L579 447Q574 464 569.5 486.5Q565 509 562 533H559Q557 518 550.5 491Q544 464 539 448L390 0H280L125 491Q115 523 98.5 561Q82 599 63 635Q46 640 32.5 644.5Q19 649 9 654L13 682H246L249 654Q235 649 215 645Q195 641 169 638Q178 598 188 560.5Q198 523 208 493L346 47H347L490 494Q504 536 518 583Q532 630 547 682H590Q608 626 622.5 579Q637 532 647 494L771 47H773L929 494Q937 518 945.5 550.5Q954 583 965 638Q940 641 920 645Q900 649 885 654L887 682ZM569 682ZM647 821Q625 803 602.5 787Q580 771 557 757L531 783Q563 811 600 852.5Q637 894 678 948Q689 937 700 925Q711 913 722 900Q712 883 693 863.5Q674 844 647 821ZM569 682Z" glyph-name="Wacute" horiz-adv-x="1091" unicode="&#7810;" /><glyph d="M1102 682 1105 654Q1096 650 1083 645.5Q1070 641 1053 636Q1028 583 1014 550Q1000 517 990 490L816 0H707L579 447Q574 464 569.5 486.5Q565 509 562 533H559Q557 518 550.5 491Q544 464 539 448L390 0H280L125 491Q115 523 98.5 561Q82 599 63 635Q46 640 32.5 644.5Q19 649 9 654L13 682H246L249 654Q235 649 215 645Q195 641 169 638Q178 598 188 560.5Q198 523 208 493L346 47H347L490 494Q504 536 518 583Q532 630 547 682H590Q608 626 622.5 579Q637 532 647 494L771 47H773L929 494Q937 518 945.5 550.5Q954 583 965 638Q940 641 920 645Q900 649 885 654L887 682ZM569 682ZM678 825Q690 813 701.5 802.5Q713 792 723 783L696 757Q678 769 661 781Q644 793 629 804Q615 814 600 827.5Q585 841 569 858Q556 845 535 826.5Q514 808 508 804Q493 793 476 781Q459 769 441 757L414 783Q429 796 440 806Q451 816 460 825Q487 851 514 881.5Q541 912 568 948H569Q595 914 622 883.5Q649 853 678 825ZM569 682Z" glyph-name="Wcircumflex" horiz-adv-x="1091" unicode="&#372;" /><glyph d="M1102 682 1105 654Q1096 650 1083 645.5Q1070 641 1053 636Q1028 583 1014 550Q1000 517 990 490L816 0H707L579 447Q574 464 569.5 486.5Q565 509 562 533H559Q557 518 550.5 491Q544 464 539 448L390 0H280L125 491Q115 523 98.5 561Q82 599 63 635Q46 640 32.5 644.5Q19 649 9 654L13 682H246L249 654Q235 649 215 645Q195 641 169 638Q178 598 188 560.5Q198 523 208 493L346 47H347L490 494Q504 536 518 583Q532 630 547 682H590Q608 626 622.5 579Q637 532 647 494L771 47H773L929 494Q937 518 945.5 550.5Q954 583 965 638Q940 641 920 645Q900 649 885 654L887 682ZM569 682ZM488 906Q499 906 508 904Q517 902 524 898Q528 891 530.5 881Q533 871 533 860Q533 848 531 838Q529 828 525 820Q517 816 507 814Q497 812 484 812Q473 812 463.5 814Q454 816 447 819Q443 827 440.5 837.5Q438 848 438 860Q438 870 440 880Q442 890 446 897Q456 901 467 903.5Q478 906 488 906ZM653 906Q664 906 673.5 904Q683 902 690 898Q694 891 696.5 881Q699 871 699 860Q699 848 697 838Q695 828 691 820Q683 816 672.5 814Q662 812 650 812Q639 812 629.5 814Q620 816 613 819Q609 827 606.5 837.5Q604 848 604 860Q604 870 606 880Q608 890 612 897Q622 901 632.5 903.5Q643 906 653 906ZM569 682Z" glyph-name="Wdieresis" horiz-adv-x="1091" unicode="&#7812;" /><glyph d="M1102 682 1105 654Q1096 650 1083 645.5Q1070 641 1053 636Q1028 583 1014 550Q1000 517 990 490L816 0H707L579 447Q574 464 569.5 486.5Q565 509 562 533H559Q557 518 550.5 491Q544 464 539 448L390 0H280L125 491Q115 523 98.5 561Q82 599 63 635Q46 640 32.5 644.5Q19 649 9 654L13 682H246L249 654Q235 649 215 645Q195 641 169 638Q178 598 188 560.5Q198 523 208 493L346 47H347L490 494Q504 536 518 583Q532 630 547 682H590Q608 626 622.5 579Q637 532 647 494L771 47H773L929 494Q937 518 945.5 550.5Q954 583 965 638Q940 641 920 645Q900 649 885 654L887 682ZM569 682ZM460 948Q502 894 538.5 852.5Q575 811 607 783L581 757Q558 771 535.5 787Q513 803 491 821Q464 844 445 863.5Q426 883 416 900Q427 913 438 925Q449 937 460 948ZM569 682Z" glyph-name="Wgrave" horiz-adv-x="1091" unicode="&#7808;" /><glyph d="M605 47Q624 43 638.5 38.5Q653 34 663 28L659 0H426L422 28Q437 34 455.5 37.5Q474 41 497 43Q490 59 479 80.5Q468 102 456 119L323 319L185 109Q175 94 165.5 75Q156 56 151 43Q174 41 193 37Q212 33 226 28L222 0H8L5 28Q17 34 33.5 39Q50 44 71 49Q116 108 133.5 131Q151 154 164 174L291 364L194 507Q182 526 165.5 548Q149 570 99 634Q81 638 66.5 643Q52 648 42 653L44 682H278L282 653Q268 648 249 644Q230 640 206 637Q216 616 226.5 597.5Q237 579 248 562L343 416L446 573Q457 590 465.5 606.5Q474 623 480 638Q460 641 443 645Q426 649 413 653L416 682H629L635 653Q621 647 602 641.5Q583 636 559 632Q558 631 522.5 584Q487 537 467 507L376 371L509 174Q519 159 532.5 140.5Q546 122 574 88Q587 70 593.5 62Q600 54 605 47Z" glyph-name="X" horiz-adv-x="653" unicode="X" /><glyph d="M475 508 359 330V192Q359 169 361 142Q363 115 372 43Q394 41 412 37Q430 33 444 28L439 0H203L198 28Q213 33 231 37Q249 41 270 43Q279 115 281 142Q283 169 283 192V318L162 508Q151 526 135.5 546.5Q120 567 67 635Q48 639 33.5 644Q19 649 9 654L12 682H245L249 654Q235 649 216 645Q197 641 174 638Q180 625 189.5 607.5Q199 590 215 563L329 379H332L454 574Q466 593 475 609.5Q484 626 490 639Q469 642 451.5 646Q434 650 420 654L425 682H625L628 654Q618 649 603 644Q588 639 568 635Q508 555 496 539Q484 523 475 508ZM336 682Z" glyph-name="Y" horiz-adv-x="619" unicode="Y" /><glyph d="M475 508 359 330V192Q359 169 361 142Q363 115 372 43Q394 41 412 37Q430 33 444 28L439 0H203L198 28Q213 33 231 37Q249 41 270 43Q279 115 281 142Q283 169 283 192V318L162 508Q151 526 135.5 546.5Q120 567 67 635Q48 639 33.5 644Q19 649 9 654L12 682H245L249 654Q235 649 216 645Q197 641 174 638Q180 625 189.5 607.5Q199 590 215 563L329 379H332L454 574Q466 593 475 609.5Q484 626 490 639Q469 642 451.5 646Q434 650 420 654L425 682H625L628 654Q618 649 603 644Q588 639 568 635Q508 555 496 539Q484 523 475 508ZM336 682ZM414 821Q392 803 369.5 787Q347 771 324 757L298 783Q330 811 367 852.5Q404 894 445 948Q456 937 467 925Q478 913 489 900Q479 883 460 863.5Q441 844 414 821ZM336 682Z" glyph-name="Yacute" horiz-adv-x="619" unicode="&#221;" /><glyph d="M475 508 359 330V192Q359 169 361 142Q363 115 372 43Q394 41 412 37Q430 33 444 28L439 0H203L198 28Q213 33 231 37Q249 41 270 43Q279 115 281 142Q283 169 283 192V318L162 508Q151 526 135.5 546.5Q120 567 67 635Q48 639 33.5 644Q19 649 9 654L12 682H245L249 654Q235 649 216 645Q197 641 174 638Q180 625 189.5 607.5Q199 590 215 563L329 379H332L454 574Q466 593 475 609.5Q484 626 490 639Q469 642 451.5 646Q434 650 420 654L425 682H625L628 654Q618 649 603 644Q588 639 568 635Q508 555 496 539Q484 523 475 508ZM336 682ZM445 825Q457 813 468.5 802.5Q480 792 490 783L463 757Q445 769 428 781Q411 793 396 804Q382 814 367 827.5Q352 841 336 858Q323 845 302 826.5Q281 808 275 804Q260 793 243 781Q226 769 208 757L181 783Q196 796 207 806Q218 816 227 825Q254 851 281 881.5Q308 912 335 948H336Q362 914 389 883.5Q416 853 445 825ZM336 682Z" glyph-name="Ycircumflex" horiz-adv-x="619" unicode="&#374;" /><glyph d="M475 508 359 330V192Q359 169 361 142Q363 115 372 43Q394 41 412 37Q430 33 444 28L439 0H203L198 28Q213 33 231 37Q249 41 270 43Q279 115 281 142Q283 169 283 192V318L162 508Q151 526 135.5 546.5Q120 567 67 635Q48 639 33.5 644Q19 649 9 654L12 682H245L249 654Q235 649 216 645Q197 641 174 638Q180 625 189.5 607.5Q199 590 215 563L329 379H332L454 574Q466 593 475 609.5Q484 626 490 639Q469 642 451.5 646Q434 650 420 654L425 682H625L628 654Q618 649 603 644Q588 639 568 635Q508 555 496 539Q484 523 475 508ZM336 682ZM255 906Q266 906 275 904Q284 902 291 898Q295 891 297.5 881Q300 871 300 860Q300 848 298 838Q296 828 292 820Q284 816 274 814Q264 812 251 812Q240 812 230.5 814Q221 816 214 819Q210 827 207.5 837.5Q205 848 205 860Q205 870 207 880Q209 890 213 897Q223 901 234 903.5Q245 906 255 906ZM420 906Q431 906 440.5 904Q450 902 457 898Q461 891 463.5 881Q466 871 466 860Q466 848 464 838Q462 828 458 820Q450 816 439.5 814Q429 812 417 812Q406 812 396.5 814Q387 816 380 819Q376 827 373.5 837.5Q371 848 371 860Q371 870 373 880Q375 890 379 897Q389 901 399.5 903.5Q410 906 420 906ZM336 682Z" glyph-name="Ydieresis" horiz-adv-x="619" unicode="&#376;" /><glyph d="M475 508 359 330V192Q359 169 361 142Q363 115 372 43Q394 41 412 37Q430 33 444 28L439 0H203L198 28Q213 33 231 37Q249 41 270 43Q279 115 281 142Q283 169 283 192V318L162 508Q151 526 135.5 546.5Q120 567 67 635Q48 639 33.5 644Q19 649 9 654L12 682H245L249 654Q235 649 216 645Q197 641 174 638Q180 625 189.5 607.5Q199 590 215 563L329 379H332L454 574Q466 593 475 609.5Q484 626 490 639Q469 642 451.5 646Q434 650 420 654L425 682H625L628 654Q618 649 603 644Q588 639 568 635Q508 555 496 539Q484 523 475 508ZM336 682ZM227 948Q269 894 305.5 852.5Q342 811 374 783L348 757Q325 771 302.5 787Q280 803 258 821Q231 844 212 863.5Q193 883 183 900Q194 913 205 925Q216 937 227 948ZM336 682Z" glyph-name="Ygrave" horiz-adv-x="619" unicode="&#7922;" /><glyph d="M531 139H568Q563 109 560.5 78Q558 47 558 16V-8Q533 -4 510 -2Q487 0 467 0H56V53L442 632H222Q200 632 178.5 630.5Q157 629 137 626Q133 599 126 578Q119 557 110 542L74 543Q78 574 80.5 604.5Q83 635 83 666V690Q108 686 130.5 684Q153 682 173 682H538V631L151 53H419Q429 53 440.5 53.5Q452 54 504 58Q509 85 515.5 105Q522 125 531 139ZM312 682Z" glyph-name="Z" horiz-adv-x="615" unicode="Z" /><glyph d="M531 139H568Q563 109 560.5 78Q558 47 558 16V-8Q533 -4 510 -2Q487 0 467 0H56V53L442 632H222Q200 632 178.5 630.5Q157 629 137 626Q133 599 126 578Q119 557 110 542L74 543Q78 574 80.5 604.5Q83 635 83 666V690Q108 686 130.5 684Q153 682 173 682H538V631L151 53H419Q429 53 440.5 53.5Q452 54 504 58Q509 85 515.5 105Q522 125 531 139ZM312 682ZM389 821Q367 803 344.5 787Q322 771 299 757L273 783Q305 811 342 852.5Q379 894 420 948Q431 937 442 925Q453 913 464 900Q454 883 435 863.5Q416 844 389 821ZM311 682Z" glyph-name="Zacute" horiz-adv-x="615" unicode="&#377;" /><glyph d="M531 139H568Q563 109 560.5 78Q558 47 558 16V-8Q533 -4 510 -2Q487 0 467 0H56V53L442 632H222Q200 632 178.5 630.5Q157 629 137 626Q133 599 126 578Q119 557 110 542L74 543Q78 574 80.5 604.5Q83 635 83 666V690Q108 686 130.5 684Q153 682 173 682H538V631L151 53H419Q429 53 440.5 53.5Q452 54 504 58Q509 85 515.5 105Q522 125 531 139ZM312 682ZM372 902Q387 913 404 925Q421 937 439 949L466 924Q450 909 440 899.5Q430 890 421 881Q389 850 363 820.5Q337 791 312 758H311Q285 792 259 822Q233 852 203 881Q192 892 175.5 907.5Q159 923 157 924L184 949Q202 937 219 925Q236 913 251 902Q258 896 278.5 878.5Q299 861 312 848Q328 865 343 878.5Q358 892 372 902ZM312 682Z" glyph-name="Zcaron" horiz-adv-x="615" unicode="&#381;" /><glyph d="M531 139H568Q563 109 560.5 78Q558 47 558 16V-8Q533 -4 510 -2Q487 0 467 0H56V53L442 632H222Q200 632 178.5 630.5Q157 629 137 626Q133 599 126 578Q119 557 110 542L74 543Q78 574 80.5 604.5Q83 635 83 666V690Q108 686 130.5 684Q153 682 173 682H538V631L151 53H419Q429 53 440.5 53.5Q452 54 504 58Q509 85 515.5 105Q522 125 531 139ZM312 682ZM313 912Q325 912 335 910Q345 908 354 904Q359 896 361.5 885Q364 874 364 861Q364 849 361.5 837.5Q359 826 355 817Q346 813 334 810.5Q322 808 309 808Q296 808 285.5 810Q275 812 268 816Q264 825 261.5 836.5Q259 848 259 860Q259 873 261 884Q263 895 267 903Q278 907 290 909.5Q302 912 313 912ZM312 682Z" glyph-name="Zdotaccent" horiz-adv-x="615" unicode="&#379;" /><glyph d="M217 425Q202 425 185.5 422Q169 419 161 416L139 332L101 329Q92 350 87 366.5Q82 383 82 396Q82 401 83.5 405.5Q85 410 89 415Q105 436 146.5 455Q188 474 233 474Q299 474 333.5 434Q368 394 368 316Q368 303 367 247.5Q366 192 363 94Q363 66 375.5 52.5Q388 39 414 39Q424 39 428.5 39Q433 39 436 40L440 21Q436 13 428 7Q420 1 409 -4Q400 -8 390 -10Q380 -12 369 -12Q335 -12 316.5 10Q298 32 298 69H295Q277 32 240.5 9.5Q204 -13 162 -13Q109 -13 77 17Q45 47 45 97Q45 136 66.5 163Q88 190 132 207Q154 215 184.5 221.5Q215 228 280 238L294 240L295 320Q295 380 276 402.5Q257 425 217 425ZM189 46Q216 46 245 60Q274 74 292 94L294 202Q203 192 162 169.5Q121 147 121 109Q121 79 139 62.5Q157 46 189 46ZM218 460ZM361 0Z" glyph-name="a" horiz-adv-x="461" unicode="a" /><glyph d="M217 425Q202 425 185.5 422Q169 419 161 416L139 332L101 329Q92 350 87 366.5Q82 383 82 396Q82 401 83.5 405.5Q85 410 89 415Q105 436 146.5 455Q188 474 233 474Q299 474 333.5 434Q368 394 368 316Q368 303 367 247.5Q366 192 363 94Q363 66 375.5 52.5Q388 39 414 39Q424 39 428.5 39Q433 39 436 40L440 21Q436 13 428 7Q420 1 409 -4Q400 -8 390 -10Q380 -12 369 -12Q335 -12 316.5 10Q298 32 298 69H295Q277 32 240.5 9.5Q204 -13 162 -13Q109 -13 77 17Q45 47 45 97Q45 136 66.5 163Q88 190 132 207Q154 215 184.5 221.5Q215 228 280 238L294 240L295 320Q295 380 276 402.5Q257 425 217 425ZM189 46Q216 46 245 60Q274 74 292 94L294 202Q203 192 162 169.5Q121 147 121 109Q121 79 139 62.5Q157 46 189 46ZM218 460ZM361 0ZM296 609Q274 591 251.5 575Q229 559 206 545L180 571Q212 599 249 640.5Q286 682 327 736Q338 725 349 713Q360 701 371 688Q361 671 342 651.5Q323 632 296 609ZM218 460Z" glyph-name="aacute" horiz-adv-x="461" unicode="&#225;" /><glyph d="M217 425Q202 425 185.5 422Q169 419 161 416L139 332L101 329Q92 350 87 366.5Q82 383 82 396Q82 401 83.5 405.5Q85 410 89 415Q105 436 146.5 455Q188 474 233 474Q299 474 333.5 434Q368 394 368 316Q368 303 367 247.5Q366 192 363 94Q363 66 375.5 52.5Q388 39 414 39Q424 39 428.5 39Q433 39 436 40L440 21Q436 13 428 7Q420 1 409 -4Q400 -8 390 -10Q380 -12 369 -12Q335 -12 316.5 10Q298 32 298 69H295Q277 32 240.5 9.5Q204 -13 162 -13Q109 -13 77 17Q45 47 45 97Q45 136 66.5 163Q88 190 132 207Q154 215 184.5 221.5Q215 228 280 238L294 240L295 320Q295 380 276 402.5Q257 425 217 425ZM189 46Q216 46 245 60Q274 74 292 94L294 202Q203 192 162 169.5Q121 147 121 109Q121 79 139 62.5Q157 46 189 46ZM218 460ZM361 0ZM218 596Q258 596 285.5 622.5Q313 649 325 696H361Q361 633 319 588.5Q277 544 217 544Q157 544 115.5 588.5Q74 633 74 696H112Q123 649 150.5 622.5Q178 596 218 596ZM218 460Z" glyph-name="abreve" horiz-adv-x="461" unicode="&#259;" /><glyph d="M217 425Q202 425 185.5 422Q169 419 161 416L139 332L101 329Q92 350 87 366.5Q82 383 82 396Q82 401 83.5 405.5Q85 410 89 415Q105 436 146.5 455Q188 474 233 474Q299 474 333.5 434Q368 394 368 316Q368 303 367 247.5Q366 192 363 94Q363 66 375.5 52.5Q388 39 414 39Q424 39 428.5 39Q433 39 436 40L440 21Q436 13 428 7Q420 1 409 -4Q400 -8 390 -10Q380 -12 369 -12Q335 -12 316.5 10Q298 32 298 69H295Q277 32 240.5 9.5Q204 -13 162 -13Q109 -13 77 17Q45 47 45 97Q45 136 66.5 163Q88 190 132 207Q154 215 184.5 221.5Q215 228 280 238L294 240L295 320Q295 380 276 402.5Q257 425 217 425ZM189 46Q216 46 245 60Q274 74 292 94L294 202Q203 192 162 169.5Q121 147 121 109Q121 79 139 62.5Q157 46 189 46ZM218 460ZM361 0ZM327 613Q339 601 350.5 590.5Q362 580 372 571L345 545Q327 557 310 569Q293 581 278 592Q264 602 249 615.5Q234 629 218 646Q205 633 184 614.5Q163 596 157 592Q142 581 125 569Q108 557 90 545L63 571Q78 584 89 594Q100 604 109 613Q136 639 163 669.5Q190 700 217 736H218Q244 702 271 671.5Q298 641 327 613ZM218 460Z" glyph-name="acircumflex" horiz-adv-x="461" unicode="&#226;" /><glyph d="M232 609Q210 591 187.5 575Q165 559 142 545L116 571Q148 599 185 640.5Q222 682 263 736Q274 725 285 713Q296 701 307 688Q297 671 278 651.5Q259 632 232 609ZM154 460Z" glyph-name="acute" horiz-adv-x="423" unicode="&#180;" /><glyph d="M232 821Q210 803 187.5 787Q165 771 142 757L116 783Q148 811 185 852.5Q222 894 263 948Q274 937 285 925Q296 913 307 900Q297 883 278 863.5Q259 844 232 821ZM154 682Z" glyph-name="acute.case" horiz-adv-x="423" /><glyph d="M217 425Q202 425 185.5 422Q169 419 161 416L139 332L101 329Q92 350 87 366.5Q82 383 82 396Q82 401 83.5 405.5Q85 410 89 415Q105 436 146.5 455Q188 474 233 474Q299 474 333.5 434Q368 394 368 316Q368 303 367 247.5Q366 192 363 94Q363 66 375.5 52.5Q388 39 414 39Q424 39 428.5 39Q433 39 436 40L440 21Q436 13 428 7Q420 1 409 -4Q400 -8 390 -10Q380 -12 369 -12Q335 -12 316.5 10Q298 32 298 69H295Q277 32 240.5 9.5Q204 -13 162 -13Q109 -13 77 17Q45 47 45 97Q45 136 66.5 163Q88 190 132 207Q154 215 184.5 221.5Q215 228 280 238L294 240L295 320Q295 380 276 402.5Q257 425 217 425ZM189 46Q216 46 245 60Q274 74 292 94L294 202Q203 192 162 169.5Q121 147 121 109Q121 79 139 62.5Q157 46 189 46ZM218 460ZM361 0ZM137 689Q148 689 157 687Q166 685 173 681Q177 674 179.5 664Q182 654 182 643Q182 631 180 621Q178 611 174 603Q166 599 156 597Q146 595 133 595Q122 595 112.5 597Q103 599 96 602Q92 610 89.5 620.5Q87 631 87 643Q87 653 89 663Q91 673 95 680Q105 684 116 686.5Q127 689 137 689ZM302 689Q313 689 322.5 687Q332 685 339 681Q343 674 345.5 664Q348 654 348 643Q348 631 346 621Q344 611 340 603Q332 599 321.5 597Q311 595 299 595Q288 595 278.5 597Q269 599 262 602Q258 610 255.5 620.5Q253 631 253 643Q253 653 255 663Q257 673 261 680Q271 684 281.5 686.5Q292 689 302 689ZM218 460Z" glyph-name="adieresis" horiz-adv-x="461" unicode="&#228;" /><glyph d="M655 321Q655 307 652.5 284Q650 261 644 229L538 237Q535 238 531.5 238Q528 238 520 238Q511 238 498 237.5Q485 237 452 236Q421 235 402 234Q383 233 366 233V204Q371 126 409.5 82.5Q448 39 508 39Q536 39 565 47.5Q594 56 639 81L648 66Q632 30 590 8.5Q548 -13 496 -13Q439 -13 396.5 8Q354 29 328 71H326Q303 32 260.5 10Q218 -12 162 -12Q108 -12 76.5 17.5Q45 47 45 97Q45 136 66 163Q87 190 132 207Q155 216 186 222.5Q217 229 280 238L294 240L295 321Q295 380 276 402.5Q257 425 217 425Q200 425 183.5 422Q167 419 161 416L139 332L101 329Q92 350 87 366.5Q82 383 82 396Q82 400 83.5 404.5Q85 409 89 415Q102 435 144.5 454.5Q187 474 233 474Q278 474 309 451Q340 428 349 392H351Q383 431 422 452Q461 473 505 473Q577 473 616 431.5Q655 390 655 321ZM494 428Q448 428 412.5 385.5Q377 343 369 275H490Q509 275 542 279.5Q575 284 591 288V313Q591 368 566 398Q541 428 494 428ZM293 202Q203 192 162 169.5Q121 147 121 109Q121 79 143.5 61.5Q166 44 199 44Q232 44 264 56.5Q296 69 318 91Q307 114 300.5 142.5Q294 171 293 202ZM350 460Z" glyph-name="ae" horiz-adv-x="691" unicode="&#230;" /><glyph d="M217 425Q202 425 185.5 422Q169 419 161 416L139 332L101 329Q92 350 87 366.5Q82 383 82 396Q82 401 83.5 405.5Q85 410 89 415Q105 436 146.5 455Q188 474 233 474Q299 474 333.5 434Q368 394 368 316Q368 303 367 247.5Q366 192 363 94Q363 66 375.5 52.5Q388 39 414 39Q424 39 428.5 39Q433 39 436 40L440 21Q436 13 428 7Q420 1 409 -4Q400 -8 390 -10Q380 -12 369 -12Q335 -12 316.5 10Q298 32 298 69H295Q277 32 240.5 9.5Q204 -13 162 -13Q109 -13 77 17Q45 47 45 97Q45 136 66.5 163Q88 190 132 207Q154 215 184.5 221.5Q215 228 280 238L294 240L295 320Q295 380 276 402.5Q257 425 217 425ZM189 46Q216 46 245 60Q274 74 292 94L294 202Q203 192 162 169.5Q121 147 121 109Q121 79 139 62.5Q157 46 189 46ZM218 460ZM361 0ZM109 736Q151 682 187.5 640.5Q224 599 256 571L230 545Q207 559 184.5 575Q162 591 140 609Q113 632 94 651.5Q75 671 65 688Q76 701 87 713Q98 725 109 736ZM218 460Z" glyph-name="agrave" horiz-adv-x="461" unicode="&#224;" /><glyph d="M217 425Q202 425 185.5 422Q169 419 161 416L139 332L101 329Q92 350 87 366.5Q82 383 82 396Q82 401 83.5 405.5Q85 410 89 415Q105 436 146.5 455Q188 474 233 474Q299 474 333.5 434Q368 394 368 316Q368 303 367 247.5Q366 192 363 94Q363 66 375.5 52.5Q388 39 414 39Q424 39 428.5 39Q433 39 436 40L440 21Q436 13 428 7Q420 1 409 -4Q400 -8 390 -10Q380 -12 369 -12Q335 -12 316.5 10Q298 32 298 69H295Q277 32 240.5 9.5Q204 -13 162 -13Q109 -13 77 17Q45 47 45 97Q45 136 66.5 163Q88 190 132 207Q154 215 184.5 221.5Q215 228 280 238L294 240L295 320Q295 380 276 402.5Q257 425 217 425ZM189 46Q216 46 245 60Q274 74 292 94L294 202Q203 192 162 169.5Q121 147 121 109Q121 79 139 62.5Q157 46 189 46ZM218 460ZM361 0ZM374 613H61V669H374ZM218 460Z" glyph-name="amacron" horiz-adv-x="461" unicode="&#257;" /><glyph d="M570 85Q623 33 685 -11.5Q747 -56 791 -74L785 -96Q778 -98 769.5 -98.5Q761 -99 752 -99Q701 -99 644 -67Q587 -35 521 30Q516 35 494.5 56Q473 77 461 90Q416 37 361 11Q306 -15 240 -15Q160 -15 106 29.5Q52 74 52 150Q52 204 83.5 253.5Q115 303 191 361Q146 406 124 448Q102 490 102 528Q102 599 150 643.5Q198 688 271 688Q333 688 373.5 651.5Q414 615 414 555Q414 508 387.5 469Q361 430 277 370Q312 333 359 287Q406 241 463 187L492 245Q495 250 498 257Q501 264 507 277Q515 296 519.5 305Q524 314 528 322Q545 356 566.5 371Q588 386 615 386Q639 386 663.5 377.5Q688 369 714 352L708 333H699Q667 333 639 330Q611 327 590 321Q584 311 579 300.5Q574 290 565 269Q557 253 553 244Q549 235 545 227Q524 185 517 172.5Q510 160 504 149Q518 135 533.5 120Q549 105 570 85ZM128 165Q128 110 167 76Q206 42 261 42Q310 42 350 62.5Q390 83 424 125Q405 145 382.5 167.5Q360 190 316 233Q275 275 256 294Q237 313 222 328Q174 288 151 248Q128 208 128 165ZM173 545Q173 517 186 487.5Q199 458 222 431Q224 429 226.5 426.5Q229 424 234 419Q239 412 242 409Q245 406 248 403Q303 447 328 481Q353 515 353 546Q353 586 330 612Q307 638 268 638Q227 638 200 611Q173 584 173 545Z" glyph-name="ampersand" horiz-adv-x="708" unicode="&amp;" /><glyph d="M189 46Q216 46 245 60Q274 74 292 94L294 202Q203 192 162 169.5Q121 147 121 109Q121 79 139 62.5Q157 46 189 46ZM431 -122V-154Q420 -163 403.5 -167Q387 -171 366 -171Q320 -171 291.5 -150.5Q263 -130 263 -96Q263 -72 280 -49Q297 -26 332 -3Q316 6 307 25.5Q298 45 298 69H295Q277 32 240.5 9.5Q204 -13 162 -13Q109 -13 77 17Q45 47 45 97Q45 136 66.5 163Q88 190 132 207Q154 215 184.5 221.5Q215 228 280 238L294 240L295 320Q295 380 276 402.5Q257 425 217 425Q202 425 185.5 422Q169 419 161 416L139 332L101 329Q92 350 87 366.5Q82 383 82 396Q82 401 83.5 405.5Q85 410 89 415Q105 436 146.5 455Q188 474 233 474Q299 474 333.5 434Q368 394 368 316Q368 303 367 247.5Q366 192 363 94Q363 66 375.5 52.5Q388 39 414 39Q424 39 428.5 39Q433 39 436 40L440 21Q436 13 428 7Q420 1 409 -4Q400 -8 390 -10Q380 -12 369 -12H361Q342 -31 333 -47.5Q324 -64 324 -80Q324 -105 338 -118Q352 -131 380 -131Q389 -131 402 -129Q415 -127 431 -122Z" glyph-name="aogonek" horiz-adv-x="461" unicode="&#261;" /><glyph d="M190 323Q157 323 127 307Q97 291 79 263Q67 273 60 278Q53 283 52 283Q72 322 111.5 344.5Q151 367 196 367Q219 367 243.5 360Q268 353 313 330Q354 309 375 302.5Q396 296 415 296Q438 296 458.5 305.5Q479 315 493 333Q494 333 498.5 326Q503 319 512 305Q499 280 472 266Q445 252 410 252Q385 252 360 259.5Q335 267 291 290Q251 310 230.5 316.5Q210 323 190 323ZM190 163Q157 163 127 147Q97 131 79 103Q67 113 60 118Q53 123 52 123Q72 162 111.5 184.5Q151 207 196 207Q219 207 243.5 200Q268 193 313 170Q354 149 375 142.5Q396 136 415 136Q438 136 458.5 145.5Q479 155 493 173Q494 173 498.5 166Q503 159 512 145Q499 120 472 106Q445 92 410 92Q385 92 360 99.5Q335 107 291 130Q251 150 230.5 156.5Q210 163 190 163Z" glyph-name="approxequal" horiz-adv-x="564" unicode="&#8776;" /><glyph d="M217 425Q202 425 185.5 422Q169 419 161 416L139 332L101 329Q92 350 87 366.5Q82 383 82 396Q82 401 83.5 405.5Q85 410 89 415Q105 436 146.5 455Q188 474 233 474Q299 474 333.5 434Q368 394 368 316Q368 303 367 247.5Q366 192 363 94Q363 66 375.5 52.5Q388 39 414 39Q424 39 428.5 39Q433 39 436 40L440 21Q436 13 428 7Q420 1 409 -4Q400 -8 390 -10Q380 -12 369 -12Q335 -12 316.5 10Q298 32 298 69H295Q277 32 240.5 9.5Q204 -13 162 -13Q109 -13 77 17Q45 47 45 97Q45 136 66.5 163Q88 190 132 207Q154 215 184.5 221.5Q215 228 280 238L294 240L295 320Q295 380 276 402.5Q257 425 217 425ZM189 46Q216 46 245 60Q274 74 292 94L294 202Q203 192 162 169.5Q121 147 121 109Q121 79 139 62.5Q157 46 189 46ZM218 460ZM361 0ZM218 741Q238 741 258 737Q278 733 297 725Q307 710 312 688.5Q317 667 317 643Q317 622 312.5 601Q308 580 300 562Q281 553 259.5 548.5Q238 544 218 544Q192 544 172 548Q152 552 137 560Q128 576 123.5 597.5Q119 619 119 643Q119 665 123 686Q127 707 135 723Q156 732 177 736.5Q198 741 218 741ZM280 642Q280 657 277 670Q274 683 268 693Q257 698 244.5 700.5Q232 703 218 703Q206 703 192.5 700Q179 697 166 692Q161 682 158.5 669Q156 656 156 642Q156 628 159 615Q162 602 168 592Q177 587 190 584.5Q203 582 218 582Q232 582 245 585Q258 588 269 594Q274 604 277 616.5Q280 629 280 642ZM218 460Z" glyph-name="aring" horiz-adv-x="461" unicode="&#229;" /><glyph d="M72 283 247 695H323L491 283H464Q447 283 442 283Q437 283 438 284L291 650H279L123 283Z" glyph-name="asciicircum" horiz-adv-x="564" unicode="^" /><glyph d="M190 247Q157 247 127 231Q97 215 79 187Q67 197 60 202Q53 207 52 207Q72 245 110.5 267.5Q149 290 194 290Q219 290 245 282.5Q271 275 317 252Q357 232 377 226Q397 220 415 220Q438 220 458.5 229.5Q479 239 493 257Q494 257 498.5 250Q503 243 512 228Q499 204 472 190Q445 176 410 176Q385 176 360 183.5Q335 191 291 214Q251 234 230.5 240.5Q210 247 190 247Z" glyph-name="asciitilde" horiz-adv-x="564" unicode="~" /><glyph d="M303 541Q288 537 274.5 534.5Q261 532 243 529Q254 516 263 504Q272 492 280 478Q296 453 306.5 433Q317 413 321 399L295 382Q285 394 272 412.5Q259 431 242 455Q237 462 233 469Q229 476 212 510Q206 495 198.5 481Q191 467 182 454Q166 430 153 412Q140 394 130 382L103 399Q108 413 118.5 433Q129 453 145 478Q153 492 162 504Q171 516 182 529Q172 531 157 534Q142 537 122 541Q93 548 72 556Q51 564 38 572L43 600Q61 600 83.5 596.5Q106 593 133 586Q149 582 164.5 576.5Q180 571 194 564Q191 577 189.5 592Q188 607 188 624Q188 654 190 676.5Q192 699 196 714H226Q230 699 232 676.5Q234 654 234 624Q234 607 233 591.5Q232 576 230 563Q241 569 256 575Q271 581 291 586Q321 593 343 596.5Q365 600 380 600L387 572Q374 564 353 556Q332 548 303 541Z" glyph-name="asterisk" horiz-adv-x="425" unicode="*" /><glyph d="M546 -58Q528 -84 471.5 -104.5Q415 -125 352 -125Q279 -125 221.5 -103.5Q164 -82 124 -40Q85 2 63.5 62.5Q42 123 42 189Q42 272 68.5 348Q95 424 144 479Q195 535 266.5 564Q338 593 428 593Q559 593 639.5 507.5Q720 422 720 298Q720 244 706 198Q692 152 664 117Q633 77 589 54.5Q545 32 500 32Q464 32 450.5 48Q437 64 437 109Q437 124 439 143Q441 162 446 193H443Q408 122 365.5 79Q323 36 285 36Q248 36 226.5 69Q205 102 205 157Q205 200 217 244Q229 288 252 326Q280 374 316.5 401.5Q353 429 388 429Q418 429 449.5 423Q481 417 502 408L533 428L557 420Q541 377 530 337.5Q519 298 512 262Q503 214 498.5 171.5Q494 129 494 102Q494 92 495 85.5Q496 79 497 77H506Q572 77 617.5 141.5Q663 206 663 296Q663 404 595.5 475Q528 546 416 546Q265 546 182 449.5Q99 353 99 191Q99 137 117.5 85.5Q136 34 169 -2Q203 -39 251.5 -57Q300 -75 361 -75Q408 -75 452.5 -67Q497 -59 540 -43Q540 -43 540 -43Q540 -43 540 -43Q542 -47 543.5 -50.5Q545 -54 546 -58ZM386 158Q407 181 423 203.5Q439 226 452 250L478 368Q469 375 454.5 380.5Q440 386 420 390Q406 393 390.5 395Q375 397 358 397Q317 363 291 304Q265 245 265 175Q265 163 267 151Q269 139 273 129Q278 114 286.5 102Q295 90 297 90Q319 99 341.5 116.5Q364 134 386 158Z" glyph-name="at" horiz-adv-x="762" unicode="@" /><glyph d="M217 425Q202 425 185.5 422Q169 419 161 416L139 332L101 329Q92 350 87 366.5Q82 383 82 396Q82 401 83.5 405.5Q85 410 89 415Q105 436 146.5 455Q188 474 233 474Q299 474 333.5 434Q368 394 368 316Q368 303 367 247.5Q366 192 363 94Q363 66 375.5 52.5Q388 39 414 39Q424 39 428.5 39Q433 39 436 40L440 21Q436 13 428 7Q420 1 409 -4Q400 -8 390 -10Q380 -12 369 -12Q335 -12 316.5 10Q298 32 298 69H295Q277 32 240.5 9.5Q204 -13 162 -13Q109 -13 77 17Q45 47 45 97Q45 136 66.5 163Q88 190 132 207Q154 215 184.5 221.5Q215 228 280 238L294 240L295 320Q295 380 276 402.5Q257 425 217 425ZM189 46Q216 46 245 60Q274 74 292 94L294 202Q203 192 162 169.5Q121 147 121 109Q121 79 139 62.5Q157 46 189 46ZM218 460ZM361 0ZM152 633Q130 633 110 625.5Q90 618 72 603L52 632Q54 636 66.5 645Q79 654 100 668Q115 676 129.5 679.5Q144 683 159 683Q177 683 193.5 679.5Q210 676 236 664Q259 654 272 651Q285 648 298 648Q316 648 329.5 656Q343 664 353 681L383 666Q380 651 372.5 638.5Q365 626 354 615Q343 605 329 599.5Q315 594 299 594Q283 594 267.5 598Q252 602 223 614Q195 626 180.5 629.5Q166 633 152 633ZM218 460Z" glyph-name="atilde" horiz-adv-x="461" unicode="&#227;" /><glyph d="M312 474Q392 474 443 410.5Q494 347 494 249Q494 134 431.5 61Q369 -12 271 -12Q224 -12 168 5Q112 22 77 45Q84 97 86.5 129.5Q89 162 89 190V539Q89 577 86 608Q83 639 77 664Q57 664 40 662Q23 660 9 656L0 688Q33 699 73.5 707.5Q114 716 163 722V474Q163 462 162 441Q161 420 159 391H162Q183 427 223.5 450.5Q264 474 312 474ZM173 55Q194 47 220.5 42Q247 37 269 37Q335 37 376 93Q417 149 417 236Q417 321 384 365.5Q351 410 290 410Q259 410 223 397Q187 384 163 365V190Q163 159 165.5 123Q168 87 173 55Z" glyph-name="b" horiz-adv-x="537" unicode="b" /><glyph d="M428 -193 382 -210 41 682 87 700Z" glyph-name="backslash" horiz-adv-x="470" unicode="\" /><glyph d="M144 -228H94V727H144Z" glyph-name="bar" horiz-adv-x="238" unicode="|" /><glyph d="M301 -163Q302 -163 302 -173Q302 -183 302 -203Q286 -208 269 -210Q252 -212 235 -212Q162 -212 129.5 -178.5Q97 -145 97 -74Q97 -50 98.5 -22Q100 6 106 61Q110 109 111.5 131Q113 153 113 170Q113 197 98 210.5Q83 224 45 230V283Q84 290 98.5 303Q113 316 113 345Q113 362 111.5 384Q110 406 106 455Q100 510 98.5 537.5Q97 565 97 588Q97 660 128.5 693Q160 726 235 726Q252 726 269 724Q286 722 302 717Q302 696 302 685Q302 674 301 674Q287 678 272 679.5Q257 681 240 681Q193 681 168.5 663Q144 645 144 610Q144 583 146 546.5Q148 510 155 436Q159 382 160.5 359.5Q162 337 162 323Q162 298 145 280.5Q128 263 99 258V255Q129 250 145.5 233Q162 216 162 191Q162 179 160.5 159Q159 139 155 90Q148 20 146 -15.5Q144 -51 144 -79Q144 -125 169 -147Q194 -169 246 -169Q261 -169 275 -167.5Q289 -166 301 -163Z" glyph-name="braceleft" horiz-adv-x="357" unicode="{" /><glyph d="M122 -212Q105 -212 88.5 -210Q72 -208 55 -203Q55 -183 55.5 -173Q56 -163 56 -163Q69 -166 82.5 -167.5Q96 -169 111 -169Q163 -169 188 -147Q213 -125 213 -79Q213 -51 211 -15.5Q209 20 202 90Q198 139 196.5 159Q195 179 195 191Q195 216 211.5 233Q228 250 258 255V258Q229 263 212 280.5Q195 298 195 323Q195 337 196.5 359.5Q198 382 202 436Q209 510 211 546.5Q213 583 213 610Q213 645 188.5 663Q164 681 117 681Q101 681 85.5 679.5Q70 678 56 674Q56 674 55.5 685Q55 696 55 717Q72 722 88.5 724Q105 726 122 726Q197 726 228.5 693Q260 660 260 588Q260 565 258.5 537.5Q257 510 251 455Q247 406 245.5 384Q244 362 244 345Q244 316 258.5 303Q273 290 312 283V230Q274 224 259 210.5Q244 197 244 170Q244 153 245.5 131Q247 109 251 61Q257 6 258.5 -22Q260 -50 260 -74Q260 -145 227.5 -178.5Q195 -212 122 -212Z" glyph-name="braceright" horiz-adv-x="357" unicode="}" /><glyph d="M99 -173H294V-218H52V713H294V667H99Z" glyph-name="bracketleft" horiz-adv-x="348" unicode="[" /><glyph d="M295 -218H54V-173H248V667H53V713H295Z" glyph-name="bracketright" horiz-adv-x="348" unicode="]" /><glyph d="M212 596Q252 596 279.5 622.5Q307 649 319 696H355Q355 633 313 588.5Q271 544 211 544Q151 544 109.5 588.5Q68 633 68 696H106Q117 649 144.5 622.5Q172 596 212 596ZM212 460Z" glyph-name="breve" horiz-adv-x="423" unicode="&#728;" /><glyph d="M212 809Q252 809 279.5 835.5Q307 862 319 909H355Q355 846 312.5 801.5Q270 757 211 757Q151 757 109.5 801.5Q68 846 68 909H106Q117 862 144.5 835.5Q172 809 212 809ZM212 682Z" glyph-name="breve.case" horiz-adv-x="423" /><glyph d="M140 -1H94V299H140ZM140 435H94V735H140Z" glyph-name="brokenbar" horiz-adv-x="235" unicode="&#166;" /><glyph d="M237 264Q237 242 232.5 220Q228 198 219 180Q202 171 180 166.5Q158 162 135 162Q113 162 93 166.5Q73 171 57 180Q48 197 43 218.5Q38 240 38 263Q38 286 42.5 306Q47 326 55 342Q76 351 97.5 355.5Q119 360 141 360Q162 360 181 356Q200 352 217 344Q227 328 232 308Q237 288 237 264Z" glyph-name="bullet" horiz-adv-x="275" unicode="&#8226;" /><glyph d="M276 42Q308 42 337 50.5Q366 59 402 82L411 66Q399 34 354 10.5Q309 -13 255 -13Q156 -13 99 47Q42 107 42 214Q42 329 104.5 401.5Q167 474 265 474Q303 474 335 465Q367 456 390 438Q396 434 399.5 427.5Q403 421 403 413Q403 409 402 404.5Q401 400 399 395L369 336L323 341L317 415Q305 419 292 421.5Q279 424 265 424Q197 424 157.5 369Q118 314 118 219Q118 139 162 90.5Q206 42 276 42ZM227 10ZM236 460Z" glyph-name="c" horiz-adv-x="430" unicode="c" /><glyph d="M276 42Q308 42 337 50.5Q366 59 402 82L411 66Q399 34 354 10.5Q309 -13 255 -13Q156 -13 99 47Q42 107 42 214Q42 329 104.5 401.5Q167 474 265 474Q303 474 335 465Q367 456 390 438Q396 434 399.5 427.5Q403 421 403 413Q403 409 402 404.5Q401 400 399 395L369 336L323 341L317 415Q305 419 292 421.5Q279 424 265 424Q197 424 157.5 369Q118 314 118 219Q118 139 162 90.5Q206 42 276 42ZM227 10ZM236 460ZM313 609Q291 591 268.5 575Q246 559 223 545L197 571Q229 599 266 640.5Q303 682 344 736Q355 725 366 713Q377 701 388 688Q378 671 359 651.5Q340 632 313 609ZM235 460Z" glyph-name="cacute" horiz-adv-x="430" unicode="&#263;" /><glyph d="M272 690Q287 701 304 713Q321 725 339 737L366 712Q350 697 340 687.5Q330 678 321 669Q289 638 263 608.5Q237 579 212 546H211Q185 580 159 610Q133 640 103 669Q92 680 75.5 695.5Q59 711 57 712L84 737Q102 725 119 713Q136 701 151 690Q158 684 178.5 666.5Q199 649 212 636Q228 653 243 666.5Q258 680 272 690ZM212 460Z" glyph-name="caron" horiz-adv-x="423" unicode="&#711;" /><glyph d="M272 902Q287 913 304 925Q321 937 339 949L366 924Q350 909 340 899.5Q330 890 321 881Q289 850 263 820.5Q237 791 212 758H211Q185 792 159 822Q133 852 103 881Q92 892 75.5 907.5Q59 923 57 924L84 949Q102 937 119 925Q136 913 151 902Q158 896 178.5 878.5Q199 861 212 848Q228 865 243 878.5Q258 892 272 902ZM212 682Z" glyph-name="caron.case" horiz-adv-x="423" /><glyph d="M93 725Q105 725 114 723Q123 721 131 717Q136 705 139 692Q142 679 142 667Q142 634 127.5 604Q113 574 88 554L61 576Q71 588 76 602Q81 616 83 633Q78 633 72.5 634Q67 635 54 638Q50 648 47.5 658Q45 668 45 677Q45 687 47.5 697.5Q50 708 54 717Q63 721 72.5 723Q82 725 93 725ZM37 682Z" glyph-name="caron.salt" horiz-adv-x="187" /><glyph d="M276 42Q308 42 337 50.5Q366 59 402 82L411 66Q399 34 354 10.5Q309 -13 255 -13Q156 -13 99 47Q42 107 42 214Q42 329 104.5 401.5Q167 474 265 474Q303 474 335 465Q367 456 390 438Q396 434 399.5 427.5Q403 421 403 413Q403 409 402 404.5Q401 400 399 395L369 336L323 341L317 415Q305 419 292 421.5Q279 424 265 424Q197 424 157.5 369Q118 314 118 219Q118 139 162 90.5Q206 42 276 42ZM227 10ZM236 460ZM296 690Q311 701 328 713Q345 725 363 737L390 712Q374 697 364 687.5Q354 678 345 669Q313 638 287 608.5Q261 579 236 546H235Q209 580 183 610Q157 640 127 669Q116 680 99.5 695.5Q83 711 81 712L108 737Q126 725 143 713Q160 701 175 690Q182 684 202.5 666.5Q223 649 236 636Q252 653 267 666.5Q282 680 296 690ZM236 460Z" glyph-name="ccaron" horiz-adv-x="430" unicode="&#269;" /><glyph d="M276 42Q308 42 337 50.5Q366 59 402 82L411 66Q399 34 354 10.5Q309 -13 255 -13Q156 -13 99 47Q42 107 42 214Q42 329 104.5 401.5Q167 474 265 474Q303 474 335 465Q367 456 390 438Q396 434 399.5 427.5Q403 421 403 413Q403 409 402 404.5Q401 400 399 395L369 336L323 341L317 415Q305 419 292 421.5Q279 424 265 424Q197 424 157.5 369Q118 314 118 219Q118 139 162 90.5Q206 42 276 42ZM227 10ZM236 460ZM209 -230Q183 -230 160.5 -222.5Q138 -215 118 -199L123 -170Q145 -177 163 -180.5Q181 -184 195 -184Q206 -184 211 -180.5Q216 -177 216 -169Q216 -163 213 -155Q210 -147 201 -127Q190 -104 186.5 -93.5Q183 -83 183 -76Q183 -66 186.5 -57.5Q190 -49 197 -42Q204 -36 212.5 -31.5Q221 -27 230 -25L255 -27Q249 -34 246 -43.5Q243 -53 243 -65Q243 -78 246 -90.5Q249 -103 260 -124Q270 -145 273 -156.5Q276 -168 276 -180Q276 -205 259 -217.5Q242 -230 209 -230ZM227 10Z" glyph-name="ccedilla" horiz-adv-x="430" unicode="&#231;" /><glyph d="M276 42Q308 42 337 50.5Q366 59 402 82L411 66Q399 34 354 10.5Q309 -13 255 -13Q156 -13 99 47Q42 107 42 214Q42 329 104.5 401.5Q167 474 265 474Q303 474 335 465Q367 456 390 438Q396 434 399.5 427.5Q403 421 403 413Q403 409 402 404.5Q401 400 399 395L369 336L323 341L317 415Q305 419 292 421.5Q279 424 265 424Q197 424 157.5 369Q118 314 118 219Q118 139 162 90.5Q206 42 276 42ZM227 10ZM236 460ZM345 613Q357 601 368.5 590.5Q380 580 390 571L363 545Q345 557 328 569Q311 581 296 592Q282 602 267 615.5Q252 629 236 646Q223 633 202 614.5Q181 596 175 592Q160 581 143 569Q126 557 108 545L81 571Q96 584 107 594Q118 604 127 613Q154 639 181 669.5Q208 700 235 736H236Q262 702 289 671.5Q316 641 345 613ZM236 460Z" glyph-name="ccircumflex" horiz-adv-x="430" unicode="&#265;" /><glyph d="M276 42Q308 42 337 50.5Q366 59 402 82L411 66Q399 34 354 10.5Q309 -13 255 -13Q156 -13 99 47Q42 107 42 214Q42 329 104.5 401.5Q167 474 265 474Q303 474 335 465Q367 456 390 438Q396 434 399.5 427.5Q403 421 403 413Q403 409 402 404.5Q401 400 399 395L369 336L323 341L317 415Q305 419 292 421.5Q279 424 265 424Q197 424 157.5 369Q118 314 118 219Q118 139 162 90.5Q206 42 276 42ZM227 10ZM236 460ZM237 694Q249 694 259 692Q269 690 278 686Q283 678 285.5 667Q288 656 288 643Q288 631 285.5 619.5Q283 608 279 599Q270 595 258 592.5Q246 590 233 590Q220 590 209.5 592Q199 594 192 598Q188 607 185.5 618.5Q183 630 183 642Q183 655 185 666Q187 677 191 685Q202 689 214 691.5Q226 694 237 694ZM236 460Z" glyph-name="cdotaccent" horiz-adv-x="430" unicode="&#267;" /><glyph d="M223 -230Q197 -230 174.5 -222.5Q152 -215 132 -199L137 -170Q159 -177 177 -180.5Q195 -184 209 -184Q220 -184 225 -180.5Q230 -177 230 -169Q230 -163 227 -155Q224 -147 215 -127Q204 -104 200.5 -93.5Q197 -83 197 -76Q197 -66 200.5 -57.5Q204 -49 211 -42Q218 -36 226.5 -31.5Q235 -27 244 -25L269 -27Q263 -34 260 -43.5Q257 -53 257 -65Q257 -78 260 -90.5Q263 -103 274 -124Q284 -145 287 -156.5Q290 -168 290 -180Q290 -205 273 -217.5Q256 -230 223 -230ZM241 10Z" glyph-name="cedilla" horiz-adv-x="423" unicode="&#184;" /><glyph d="M422 33Q402 16 366.5 3.5Q331 -9 295 -12L294 -25Q294 -52 296.5 -77.5Q299 -103 304 -127L293 -138L242 -129L246 -11Q159 -4 109.5 55Q60 114 60 214Q60 318 112.5 389Q165 460 250 471L252 491Q252 517 249.5 542.5Q247 568 242 592L253 603L304 594L300 473Q334 470 365.5 458.5Q397 447 419 430Q424 422 427 411.5Q430 401 430 390Q430 379 427.5 368.5Q425 358 421 349Q409 345 398.5 342.5Q388 340 378 340Q366 340 356 342.5Q346 345 339 349Q335 357 332.5 367.5Q330 378 330 389Q330 398 331 405.5Q332 413 334 420Q325 424 313.5 426Q302 428 288 428Q217 428 175 371.5Q133 315 133 219Q133 137 176.5 87Q220 37 288 37Q304 37 316.5 38.5Q329 40 337 42Q334 51 333 59.5Q332 68 332 75Q332 87 334.5 97Q337 107 342 114Q349 118 358.5 120Q368 122 380 122Q391 122 402.5 120Q414 118 423 114Q427 105 429.5 94Q432 83 432 72Q432 60 429.5 50.5Q427 41 422 33Z" glyph-name="cent" horiz-adv-x="472" unicode="&#162;" /><glyph d="M321 613Q333 601 344.5 590.5Q356 580 366 571L339 545Q321 557 304 569Q287 581 272 592Q258 602 243 615.5Q228 629 212 646Q199 633 178 614.5Q157 596 151 592Q136 581 119 569Q102 557 84 545L57 571Q72 584 83 594Q94 604 103 613Q130 639 157 669.5Q184 700 211 736H212Q238 702 265 671.5Q292 641 321 613ZM212 460Z" glyph-name="circumflex" horiz-adv-x="423" unicode="&#710;" /><glyph d="M321 825Q333 813 344.5 802.5Q356 792 366 783L339 757Q321 769 304 781Q287 793 272 804Q258 814 243 827.5Q228 841 212 858Q199 845 178 826.5Q157 808 151 804Q136 793 119 781Q102 769 84 757L57 783Q72 796 83 806Q94 816 103 825Q130 851 157 881.5Q184 912 211 948H212Q238 914 265 883.5Q292 853 321 825ZM212 682Z" glyph-name="circumflex.case" horiz-adv-x="423" /><glyph d="M137 473Q148 473 158.5 471Q169 469 179 464Q184 456 186.5 445.5Q189 435 189 422Q189 410 186.5 398.5Q184 387 180 378Q168 373 156.5 370.5Q145 368 133 368Q122 368 111.5 370.5Q101 373 93 377Q89 385 86.5 396Q84 407 84 420Q84 432 86.5 443Q89 454 93 463Q104 468 115 470.5Q126 473 137 473ZM137 93Q148 93 158.5 91Q169 89 179 85Q184 77 186.5 66Q189 55 189 42Q189 30 186.5 18.5Q184 7 180 -2Q168 -7 156.5 -9.5Q145 -12 133 -12Q122 -12 111.5 -9.5Q101 -7 93 -3Q89 5 86.5 16Q84 27 84 40Q84 52 86.5 63Q89 74 93 84Q104 88 115 90.5Q126 93 137 93Z" glyph-name="colon" horiz-adv-x="273" unicode=":" /><glyph d="M93 36Q93 47 95.5 59Q98 71 103 81Q113 85 124 87.5Q135 90 146 90Q157 90 167.5 88Q178 86 188 81Q194 68 197 53.5Q200 39 200 25Q200 -30 166.5 -74Q133 -118 82 -127L71 -109Q101 -91 116.5 -68Q132 -45 135 -13Q133 -13 125 -11.5Q117 -10 103 -7Q98 2 95.5 13.5Q93 25 93 36Z" glyph-name="comma" horiz-adv-x="273" unicode="," /><glyph d="M97.7 0.4Q97.7 10.3 99.95 21.1Q102.2 31.9 106.7 40.9Q115.7 44.5 125.6 46.75Q135.5 49 145.4 49Q155.3 49 164.75 47.2Q174.2 45.4 183.2 40.9Q188.6 29.2 191.3 16.15Q194 3.1 194 -9.5Q194 -59 163.85 -98.6Q133.7 -138.2 87.8 -146.3L77.9 -130.1Q104.9 -113.9 118.85 -93.2Q132.8 -72.5 135.5 -43.7Q133.7 -43.7 126.5 -42.35Q119.3 -41 106.7 -38.3Q102.2 -30.2 99.95 -19.85Q97.7 -9.5 97.7 0.4ZM135 -116ZM142 133Z" glyph-name="commaaccent" horiz-adv-x="273" unicode="&#63171;" /><glyph d="M128 590Q117 590 106.5 592.5Q96 595 86 599Q80 612 77 626.5Q74 641 74 655Q74 710 107.5 754Q141 798 192 807L203 789Q173 771 157.5 748Q142 725 139 693Q142 693 150 691.5Q158 690 171 687Q176 678 178.5 666.5Q181 655 181 644Q181 633 178.5 621Q176 609 171 599Q161 595 150 592.5Q139 590 128 590ZM138 460Z" glyph-name="commaaccent.salt" horiz-adv-x="273" /><glyph d="M299 -11Q199 -11 127.5 60Q56 131 56 231Q56 332 127.5 403Q199 474 299 474Q399 474 470 402.5Q541 331 541 231Q541 131 470 60Q399 -11 299 -11ZM299 436Q214 436 154 376Q94 316 94 231Q94 146 154 86Q214 26 299 26Q384 26 444 86Q504 146 504 231Q504 316 444 376Q384 436 299 436ZM170 220Q170 288 207.5 331.5Q245 375 304 375Q329 375 356 367.5Q383 360 395 349Q398 345 399.5 337Q401 329 401 320Q401 310 400 302.5Q399 295 396 291Q391 289 382.5 287.5Q374 286 365 286Q358 286 350 287.5Q342 289 337 291Q335 296 333.5 302Q332 308 332 315Q332 320 333 325Q334 330 335 334Q331 337 324.5 338Q318 339 309 339Q267 339 245.5 310Q224 281 224 223Q224 175 244.5 148.5Q265 122 302 122Q314 122 322.5 123Q331 124 337 126Q336 131 335 136Q334 141 334 146Q334 152 335.5 158Q337 164 339 169Q344 171 352 172.5Q360 174 367 174Q376 174 384.5 172.5Q393 171 398 169Q400 163 401.5 155Q403 147 403 139Q403 130 401.5 122.5Q400 115 397 111Q385 100 356.5 92Q328 84 302 84Q241 84 205.5 120Q170 156 170 220Z" glyph-name="copyright" horiz-adv-x="598" unicode="&#169;" /><glyph d="M509 -14 471 -53 387 31Q359 10 326 -1Q293 -12 257 -12Q221 -12 188 -1Q155 10 127 31L43 -53L5 -14L87 68Q62 97 49 133Q36 169 36 208Q36 249 50.5 286.5Q65 324 92 354L5 441L43 480L132 391Q160 410 192 419.5Q224 429 257 429Q291 429 322.5 419Q354 409 381 390L471 480L509 441L422 354Q449 323 463 285.5Q477 248 477 208Q477 170 464 134Q451 98 427 68ZM105 208Q105 134 149.5 82Q194 30 257 30Q319 30 363.5 82.5Q408 135 408 208Q408 282 363.5 334.5Q319 387 257 387Q194 387 149.5 334.5Q105 282 105 208Z" glyph-name="currency" horiz-adv-x="506" unicode="&#164;" /><glyph d="M522 55 530 22Q500 12 461.5 3Q423 -6 377 -12V71H376Q355 36 314 12Q273 -12 225 -12Q145 -12 93.5 51Q42 114 42 211Q42 328 105 400.5Q168 473 268 473Q291 473 317.5 468.5Q344 464 376 455V540Q376 574 373 604Q370 634 364 665Q344 664 327.5 662Q311 660 297 656L290 687Q322 699 361.5 708Q401 717 449 723V171Q449 138 451.5 108.5Q454 79 461 46Q479 48 494 50Q509 52 522 55ZM246 52Q277 52 313 65Q349 78 375 97V400Q358 411 327.5 418Q297 425 274 425Q206 425 162.5 369Q119 313 119 226Q119 142 152 97Q185 52 246 52ZM520 682Z" glyph-name="d" horiz-adv-x="544" unicode="d" /><glyph d="M303 503Q294 501 285.5 499Q277 497 243 492H229Q231 435 232.5 388.5Q234 342 234 318Q234 289 232 209.5Q230 130 226 0H196Q192 129 190 209Q188 289 188 319Q188 344 190 394Q192 444 195 492H182Q160 495 145 498Q130 501 122 503Q93 511 72 518.5Q51 526 38 534L43 562Q59 562 81.5 558.5Q104 555 133 548Q149 544 164.5 538.5Q180 533 194 526Q192 537 190 561Q188 585 188 605Q188 636 190 663Q192 690 196 714H226Q230 690 232 662.5Q234 635 234 605Q234 585 233 560.5Q232 536 230 525Q243 532 258 538Q273 544 291 548Q321 555 343 558.5Q365 562 380 562L387 534Q374 526 353 518Q332 510 303 503Z" glyph-name="dagger" horiz-adv-x="425" unicode="&#8224;" /><glyph d="M291 167Q271 172 256 178Q241 184 230 190Q232 180 233 155.5Q234 131 234 110Q234 81 232 53.5Q230 26 226 1H196Q192 26 190 53Q188 80 188 110Q188 131 190 155Q192 179 194 189Q180 182 164.5 176.5Q149 171 133 167Q105 160 82.5 156.5Q60 153 43 153L38 181Q51 189 72 197Q93 205 122 212Q151 219 163 221.5Q175 224 182 224H194Q191 257 189.5 294Q188 331 188 356Q188 381 189.5 419Q191 457 194 492H182Q173 492 158.5 494.5Q144 497 122 503Q93 511 72 518.5Q51 526 38 534L43 562Q59 562 81.5 558.5Q104 555 133 548Q149 544 164.5 538.5Q180 533 194 526Q192 537 190 561Q188 585 188 605Q188 636 190 663Q192 690 196 714H226Q230 690 232 662.5Q234 635 234 605Q234 585 233 560.5Q232 536 230 525Q243 532 258 538Q273 544 291 548Q321 555 343 558.5Q365 562 380 562L387 534Q374 526 353 518Q332 510 303 503Q279 497 265.5 494.5Q252 492 243 492H229Q231 448 232.5 413Q234 378 234 355Q234 337 233 308Q232 279 229 224H243Q253 224 267 221Q281 218 303 212Q332 204 353 196Q374 188 387 181L380 153Q365 153 343 156.5Q321 160 291 167Z" glyph-name="daggerdbl" horiz-adv-x="425" unicode="&#8225;" /><glyph d="M522 55 530 22Q500 12 461.5 3Q423 -6 377 -12V71H376Q355 36 314 12Q273 -12 225 -12Q145 -12 93.5 51Q42 114 42 211Q42 328 105 400.5Q168 473 268 473Q291 473 317.5 468.5Q344 464 376 455V540Q376 574 373 604Q370 634 364 665Q344 664 327.5 662Q311 660 297 656L290 687Q322 699 361.5 708Q401 717 449 723V171Q449 138 451.5 108.5Q454 79 461 46Q479 48 494 50Q509 52 522 55ZM246 52Q277 52 313 65Q349 78 375 97V400Q358 411 327.5 418Q297 425 274 425Q206 425 162.5 369Q119 313 119 226Q119 142 152 97Q185 52 246 52ZM520 682ZM576 725Q588 725 597 723Q606 721 614 717Q619 705 622 692Q625 679 625 667Q625 634 610.5 604Q596 574 571 554L544 576Q554 588 559 602Q564 616 566 633Q561 633 555.5 634Q550 635 537 638Q533 648 530.5 658Q528 668 528 677Q528 687 530.5 697.5Q533 708 537 717Q546 721 555.5 723Q565 725 576 725ZM520 682Z" glyph-name="dcaron" horiz-adv-x="544" unicode="&#271;" /><glyph d="M377 -12V71H376Q355 36 314 12Q273 -12 225 -12Q145 -12 93.5 51Q42 114 42 211Q42 328 105 400.5Q168 473 268 473Q291 473 317.5 468.5Q344 464 376 455V540Q376 542 376 544.5Q376 547 376 549H228V593H374Q373 607 371.5 620.5Q370 634 364 665Q344 664 327.5 662Q311 660 297 656L290 687Q322 699 361.5 708Q401 717 449 723V593H520V549H449V171Q449 138 451.5 108.5Q454 79 461 46Q479 48 494 50Q509 52 522 55L530 22Q500 12 461.5 3Q423 -6 377 -12ZM246 52Q277 52 313 65Q349 78 375 97V400Q358 411 327.5 418Q297 425 274 425Q206 425 162.5 369Q119 313 119 226Q119 142 152 97Q185 52 246 52Z" glyph-name="dcroat" horiz-adv-x="544" unicode="&#273;" /><glyph d="M157 215Q104 215 66 253Q28 291 28 344Q28 397 66 435Q104 473 157 473Q210 473 248 435Q286 397 286 344Q286 291 248 253Q210 215 157 215ZM157 435Q119 435 92.5 408.5Q66 382 66 344Q66 306 92.5 279.5Q119 253 157 253Q195 253 221.5 279.5Q248 306 248 344Q248 382 221.5 408.5Q195 435 157 435Z" glyph-name="degree" horiz-adv-x="314" unicode="&#176;" /><glyph d="M131 689Q142 689 151 687Q160 685 167 681Q171 674 173.5 664Q176 654 176 643Q176 631 174 621Q172 611 168 603Q160 599 150 597Q140 595 127 595Q116 595 106.5 597Q97 599 90 602Q86 610 83.5 620.5Q81 631 81 643Q81 653 83 663Q85 673 89 680Q99 684 110 686.5Q121 689 131 689ZM296 689Q307 689 316.5 687Q326 685 333 681Q337 674 339.5 664Q342 654 342 643Q342 631 340 621Q338 611 334 603Q326 599 315.5 597Q305 595 293 595Q282 595 272.5 597Q263 599 256 602Q252 610 249.5 620.5Q247 631 247 643Q247 653 249 663Q251 673 255 680Q265 684 275.5 686.5Q286 689 296 689ZM212 460Z" glyph-name="dieresis" horiz-adv-x="423" unicode="&#168;" /><glyph d="M131 906Q142 906 151 904Q160 902 167 898Q171 891 173.5 881Q176 871 176 860Q176 848 174 838Q172 828 168 820Q160 816 150 814Q140 812 127 812Q116 812 106.5 814Q97 816 90 819Q86 827 83.5 837.5Q81 848 81 860Q81 870 83 880Q85 890 89 897Q99 901 110 903.5Q121 906 131 906ZM296 906Q307 906 316.5 904Q326 902 333 898Q337 891 339.5 881Q342 871 342 860Q342 848 340 838Q338 828 334 820Q326 816 315.5 814Q305 812 293 812Q282 812 272.5 814Q263 816 256 819Q252 827 249.5 837.5Q247 848 247 860Q247 870 249 880Q251 890 255 897Q265 901 275.5 903.5Q286 906 296 906ZM212 682Z" glyph-name="dieresis.case" horiz-adv-x="423" /><glyph d="M487 251V207H76V251ZM283 131Q293 131 302 129Q311 127 319 124Q323 117 325.5 107Q328 97 328 86Q328 76 326 66Q324 56 320 47Q311 43 300.5 40.5Q290 38 278 38Q268 38 259 40Q250 42 242 46Q238 54 235.5 64.5Q233 75 233 86Q233 96 235 106Q237 116 241 123Q252 127 262.5 129Q273 131 283 131ZM282 421Q291 421 300.5 419Q310 417 319 413Q323 406 325.5 396Q328 386 328 375Q328 365 326 354.5Q324 344 320 336Q311 332 300.5 329.5Q290 327 278 327Q268 327 259 329Q250 331 242 335Q238 342 235.5 352.5Q233 363 233 375Q233 385 235 395Q237 405 241 413Q253 417 262.5 419Q272 421 282 421Z" glyph-name="divide" horiz-adv-x="564" unicode="&#247;" /><glyph d="M388 120Q388 73 356 37.5Q324 2 267 -9V-25Q267 -52 269.5 -77.5Q272 -103 277 -127L266 -138L215 -129L219 -13Q176 -12 134.5 0.5Q93 13 73 32Q68 40 65.5 48.5Q63 57 63 67Q63 75 65 84Q67 93 71 103Q81 108 90.5 110Q100 112 110 112Q119 112 127.5 110Q136 108 143 103Q148 96 150.5 88Q153 80 153 70Q153 62 152 55Q151 48 148 41Q157 37 173 34.5Q189 32 211 32Q260 32 286.5 52.5Q313 73 313 112Q313 133 301 147.5Q289 162 257 181L184 223Q133 252 110 282.5Q87 313 87 352Q87 400 123 433.5Q159 467 217 473V491Q217 517 214.5 542.5Q212 568 206 592L218 603L268 594L265 472Q297 469 329 457.5Q361 446 380 430Q386 421 388.5 412.5Q391 404 391 395Q391 386 389 377Q387 368 382 358Q373 354 363 352Q353 350 343 350Q333 350 325 352Q317 354 310 358Q305 365 302.5 373.5Q300 382 300 392Q300 398 301 404.5Q302 411 305 420Q293 426 278.5 428.5Q264 431 246 431Q204 431 181.5 413Q159 395 159 363Q159 343 170.5 327Q182 311 210 295L303 241Q347 215 367.5 186.5Q388 158 388 120Z" glyph-name="dollar" horiz-adv-x="451" unicode="$" /><glyph d="M213 694Q225 694 235 692Q245 690 254 686Q259 678 261.5 667Q264 656 264 643Q264 631 261.5 619.5Q259 608 255 599Q246 595 234 592.5Q222 590 209 590Q196 590 185.5 592Q175 594 168 598Q164 607 161.5 618.5Q159 630 159 642Q159 655 161 666Q163 677 167 685Q178 689 190 691.5Q202 694 213 694ZM212 460Z" glyph-name="dotaccent" horiz-adv-x="423" unicode="&#729;" /><glyph d="M213 912Q225 912 235 910Q245 908 254 904Q259 896 261.5 885Q264 874 264 861Q264 849 261.5 837.5Q259 826 255 817Q246 813 234 810.5Q222 808 209 808Q196 808 185.5 810Q175 812 168 816Q164 825 161.5 836.5Q159 848 159 860Q159 873 161 884Q163 895 167 903Q178 907 190 909.5Q202 912 213 912ZM212 682Z" glyph-name="dotaccent.case" horiz-adv-x="423" /><glyph d="M199 39Q220 38 236.5 34.5Q253 31 265 26L261 0H43L39 26Q51 31 67 34Q83 37 102 39Q109 72 113 113Q117 154 117 191V290Q117 327 113.5 358Q110 389 104 414Q87 413 72 411.5Q57 410 44 407L36 439Q67 451 105.5 459.5Q144 468 190 474V191Q190 174 192.5 136Q195 98 199 39ZM151 460Z" glyph-name="dotlessi" horiz-adv-x="289" unicode="&#305;" /><glyph d="M409 321Q409 296 406 273Q403 250 397 229L290 237Q285 238 280.5 238Q276 238 272 238Q263 238 250.5 237.5Q238 237 206 236Q174 235 155 234Q136 233 118 233V229Q118 140 157 89.5Q196 39 261 39Q288 39 316.5 47.5Q345 56 391 81L400 66Q383 29 341.5 8Q300 -13 248 -13Q149 -13 95.5 48Q42 109 42 222Q42 331 104 402Q166 473 257 473Q330 473 369.5 431Q409 389 409 321ZM248 428Q201 428 165 385.5Q129 343 121 275H243Q258 275 282 278.5Q306 282 339 288Q340 297 340.5 303.5Q341 310 341 313Q341 368 317 398Q293 428 248 428ZM226 460ZM326 0Z" glyph-name="e" horiz-adv-x="445" unicode="e" /><glyph d="M409 321Q409 296 406 273Q403 250 397 229L290 237Q285 238 280.5 238Q276 238 272 238Q263 238 250.5 237.5Q238 237 206 236Q174 235 155 234Q136 233 118 233V229Q118 140 157 89.5Q196 39 261 39Q288 39 316.5 47.5Q345 56 391 81L400 66Q383 29 341.5 8Q300 -13 248 -13Q149 -13 95.5 48Q42 109 42 222Q42 331 104 402Q166 473 257 473Q330 473 369.5 431Q409 389 409 321ZM248 428Q201 428 165 385.5Q129 343 121 275H243Q258 275 282 278.5Q306 282 339 288Q340 297 340.5 303.5Q341 310 341 313Q341 368 317 398Q293 428 248 428ZM226 460ZM326 0ZM304 609Q282 591 259.5 575Q237 559 214 545L188 571Q220 599 257 640.5Q294 682 335 736Q346 725 357 713Q368 701 379 688Q369 671 350 651.5Q331 632 304 609ZM226 460Z" glyph-name="eacute" horiz-adv-x="445" unicode="&#233;" /><glyph d="M409 321Q409 296 406 273Q403 250 397 229L290 237Q285 238 280.5 238Q276 238 272 238Q263 238 250.5 237.5Q238 237 206 236Q174 235 155 234Q136 233 118 233V229Q118 140 157 89.5Q196 39 261 39Q288 39 316.5 47.5Q345 56 391 81L400 66Q383 29 341.5 8Q300 -13 248 -13Q149 -13 95.5 48Q42 109 42 222Q42 331 104 402Q166 473 257 473Q330 473 369.5 431Q409 389 409 321ZM248 428Q201 428 165 385.5Q129 343 121 275H243Q258 275 282 278.5Q306 282 339 288Q340 297 340.5 303.5Q341 310 341 313Q341 368 317 398Q293 428 248 428ZM226 460ZM326 0ZM226 596Q266 596 293.5 622.5Q321 649 333 696H369Q369 633 327 588.5Q285 544 225 544Q165 544 123.5 588.5Q82 633 82 696H120Q131 649 158.5 622.5Q186 596 226 596ZM226 460Z" glyph-name="ebreve" horiz-adv-x="445" unicode="&#277;" /><glyph d="M409 321Q409 296 406 273Q403 250 397 229L290 237Q285 238 280.5 238Q276 238 272 238Q263 238 250.5 237.5Q238 237 206 236Q174 235 155 234Q136 233 118 233V229Q118 140 157 89.5Q196 39 261 39Q288 39 316.5 47.5Q345 56 391 81L400 66Q383 29 341.5 8Q300 -13 248 -13Q149 -13 95.5 48Q42 109 42 222Q42 331 104 402Q166 473 257 473Q330 473 369.5 431Q409 389 409 321ZM248 428Q201 428 165 385.5Q129 343 121 275H243Q258 275 282 278.5Q306 282 339 288Q340 297 340.5 303.5Q341 310 341 313Q341 368 317 398Q293 428 248 428ZM226 460ZM326 0ZM286 690Q301 701 318 713Q335 725 353 737L380 712Q364 697 354 687.5Q344 678 335 669Q303 638 277 608.5Q251 579 226 546H225Q199 580 173 610Q147 640 117 669Q106 680 89.5 695.5Q73 711 71 712L98 737Q116 725 133 713Q150 701 165 690Q172 684 192.5 666.5Q213 649 226 636Q242 653 257 666.5Q272 680 286 690ZM226 460Z" glyph-name="ecaron" horiz-adv-x="445" unicode="&#283;" /><glyph d="M409 321Q409 296 406 273Q403 250 397 229L290 237Q285 238 280.5 238Q276 238 272 238Q263 238 250.5 237.5Q238 237 206 236Q174 235 155 234Q136 233 118 233V229Q118 140 157 89.5Q196 39 261 39Q288 39 316.5 47.5Q345 56 391 81L400 66Q383 29 341.5 8Q300 -13 248 -13Q149 -13 95.5 48Q42 109 42 222Q42 331 104 402Q166 473 257 473Q330 473 369.5 431Q409 389 409 321ZM248 428Q201 428 165 385.5Q129 343 121 275H243Q258 275 282 278.5Q306 282 339 288Q340 297 340.5 303.5Q341 310 341 313Q341 368 317 398Q293 428 248 428ZM226 460ZM326 0ZM335 613Q347 601 358.5 590.5Q370 580 380 571L353 545Q335 557 318 569Q301 581 286 592Q272 602 257 615.5Q242 629 226 646Q213 633 192 614.5Q171 596 165 592Q150 581 133 569Q116 557 98 545L71 571Q86 584 97 594Q108 604 117 613Q144 639 171 669.5Q198 700 225 736H226Q252 702 279 671.5Q306 641 335 613ZM226 460Z" glyph-name="ecircumflex" horiz-adv-x="445" unicode="&#234;" /><glyph d="M409 321Q409 296 406 273Q403 250 397 229L290 237Q285 238 280.5 238Q276 238 272 238Q263 238 250.5 237.5Q238 237 206 236Q174 235 155 234Q136 233 118 233V229Q118 140 157 89.5Q196 39 261 39Q288 39 316.5 47.5Q345 56 391 81L400 66Q383 29 341.5 8Q300 -13 248 -13Q149 -13 95.5 48Q42 109 42 222Q42 331 104 402Q166 473 257 473Q330 473 369.5 431Q409 389 409 321ZM248 428Q201 428 165 385.5Q129 343 121 275H243Q258 275 282 278.5Q306 282 339 288Q340 297 340.5 303.5Q341 310 341 313Q341 368 317 398Q293 428 248 428ZM226 460ZM326 0ZM145 689Q156 689 165 687Q174 685 181 681Q185 674 187.5 664Q190 654 190 643Q190 631 188 621Q186 611 182 603Q174 599 164 597Q154 595 141 595Q130 595 120.5 597Q111 599 104 602Q100 610 97.5 620.5Q95 631 95 643Q95 653 97 663Q99 673 103 680Q113 684 124 686.5Q135 689 145 689ZM310 689Q321 689 330.5 687Q340 685 347 681Q351 674 353.5 664Q356 654 356 643Q356 631 354 621Q352 611 348 603Q340 599 329.5 597Q319 595 307 595Q296 595 286.5 597Q277 599 270 602Q266 610 263.5 620.5Q261 631 261 643Q261 653 263 663Q265 673 269 680Q279 684 289.5 686.5Q300 689 310 689ZM226 460Z" glyph-name="edieresis" horiz-adv-x="445" unicode="&#235;" /><glyph d="M409 321Q409 296 406 273Q403 250 397 229L290 237Q285 238 280.5 238Q276 238 272 238Q263 238 250.5 237.5Q238 237 206 236Q174 235 155 234Q136 233 118 233V229Q118 140 157 89.5Q196 39 261 39Q288 39 316.5 47.5Q345 56 391 81L400 66Q383 29 341.5 8Q300 -13 248 -13Q149 -13 95.5 48Q42 109 42 222Q42 331 104 402Q166 473 257 473Q330 473 369.5 431Q409 389 409 321ZM248 428Q201 428 165 385.5Q129 343 121 275H243Q258 275 282 278.5Q306 282 339 288Q340 297 340.5 303.5Q341 310 341 313Q341 368 317 398Q293 428 248 428ZM226 460ZM326 0ZM227 694Q239 694 249 692Q259 690 268 686Q273 678 275.5 667Q278 656 278 643Q278 631 275.5 619.5Q273 608 269 599Q260 595 248 592.5Q236 590 223 590Q210 590 199.5 592Q189 594 182 598Q178 607 175.5 618.5Q173 630 173 642Q173 655 175 666Q177 677 181 685Q192 689 204 691.5Q216 694 227 694ZM226 460Z" glyph-name="edotaccent" horiz-adv-x="445" unicode="&#279;" /><glyph d="M409 321Q409 296 406 273Q403 250 397 229L290 237Q285 238 280.5 238Q276 238 272 238Q263 238 250.5 237.5Q238 237 206 236Q174 235 155 234Q136 233 118 233V229Q118 140 157 89.5Q196 39 261 39Q288 39 316.5 47.5Q345 56 391 81L400 66Q383 29 341.5 8Q300 -13 248 -13Q149 -13 95.5 48Q42 109 42 222Q42 331 104 402Q166 473 257 473Q330 473 369.5 431Q409 389 409 321ZM248 428Q201 428 165 385.5Q129 343 121 275H243Q258 275 282 278.5Q306 282 339 288Q340 297 340.5 303.5Q341 310 341 313Q341 368 317 398Q293 428 248 428ZM226 460ZM326 0ZM117 736Q159 682 195.5 640.5Q232 599 264 571L238 545Q215 559 192.5 575Q170 591 148 609Q121 632 102 651.5Q83 671 73 688Q84 701 95 713Q106 725 117 736ZM226 460Z" glyph-name="egrave" horiz-adv-x="445" unicode="&#232;" /><glyph d="M83 532Q83 606 132 649Q181 692 256 692Q329 692 369.5 655.5Q410 619 410 553Q410 504 375.5 457Q341 410 290 383Q383 311 412.5 267Q442 223 442 177Q442 88 386.5 38Q331 -12 243 -12Q158 -12 107 30.5Q56 73 56 150Q56 210 96 263.5Q136 317 205 353Q129 413 106 450.5Q83 488 83 532ZM322 254Q309 268 290 284Q271 300 233 330Q173 283 146 242Q119 201 119 160Q119 103 154.5 71Q190 39 245 39Q302 39 335 71Q368 103 368 163Q368 186 357 207.5Q346 229 322 254ZM351 553Q351 591 324.5 616Q298 641 257 641Q213 641 184 616Q155 591 155 549Q155 519 167 495Q179 471 206 449L261 403Q308 444 329.5 480.5Q351 517 351 553Z" glyph-name="eight" horiz-adv-x="494" unicode="8" /><glyph d="M292 100Q292 50 253.5 21.5Q215 -7 154 -7Q96 -7 59.5 18Q23 43 23 87Q23 118 45 144.5Q67 171 109 191Q73 214 56.5 237Q40 260 40 288Q40 330 75 356Q110 382 161 382Q216 382 247 359.5Q278 337 278 299Q278 275 257 252.5Q236 230 198 212Q254 178 273 154Q292 130 292 100ZM161 347Q136 347 119 334.5Q102 322 102 301Q102 283 117.5 266Q133 249 175 226Q199 244 211 262Q223 280 223 299Q223 320 205.5 333.5Q188 347 161 347ZM79 92Q79 63 100.5 46Q122 29 155 29Q189 29 209 42.5Q229 56 229 81Q229 103 213.5 121Q198 139 133 175Q108 157 93.5 135.5Q79 114 79 92Z" glyph-name="eight.denominator" horiz-adv-x="318" unicode="&#63069;" /><glyph d="M292 -52Q292 -102 253.5 -130.5Q215 -159 154 -159Q96 -159 59.5 -134Q23 -109 23 -65Q23 -34 45 -7.5Q67 19 109 39Q73 62 56.5 85Q40 108 40 136Q40 178 75 204Q110 230 161 230Q216 230 247 207.5Q278 185 278 147Q278 123 257 100.5Q236 78 198 60Q254 26 273 2Q292 -22 292 -52ZM161 195Q136 195 119 182.5Q102 170 102 149Q102 131 117.5 114Q133 97 175 74Q199 92 211 110Q223 128 223 147Q223 168 205.5 181.5Q188 195 161 195ZM79 -60Q79 -89 100.5 -106Q122 -123 155 -123Q189 -123 209 -109.5Q229 -96 229 -71Q229 -49 213.5 -31Q198 -13 133 23Q108 5 93.5 -16.5Q79 -38 79 -60Z" glyph-name="eight.inferior" horiz-adv-x="318" unicode="&#8328;" /><glyph d="M292 407Q292 357 253.5 328.5Q215 300 154 300Q96 300 59.5 325Q23 350 23 394Q23 425 45 451.5Q67 478 109 498Q73 521 56.5 544Q40 567 40 595Q40 637 75 663Q110 689 161 689Q216 689 247 666.5Q278 644 278 606Q278 582 257 559.5Q236 537 198 519Q254 485 273 461Q292 437 292 407ZM161 654Q136 654 119 641.5Q102 629 102 608Q102 590 117.5 573Q133 556 175 533Q199 551 211 569Q223 587 223 606Q223 627 205.5 640.5Q188 654 161 654ZM79 399Q79 370 100.5 353Q122 336 155 336Q189 336 209 349.5Q229 363 229 388Q229 410 213.5 428Q198 446 133 482Q108 464 93.5 442.5Q79 421 79 399Z" glyph-name="eight.numerator" horiz-adv-x="318" unicode="&#63081;" /><glyph d="M292 555Q292 505 253.5 476.5Q215 448 154 448Q96 448 59.5 473Q23 498 23 542Q23 573 45 599.5Q67 626 109 646Q73 669 56.5 692Q40 715 40 743Q40 785 75 811Q110 837 161 837Q216 837 247 814.5Q278 792 278 754Q278 730 257 707.5Q236 685 198 667Q254 633 273 609Q292 585 292 555ZM161 802Q136 802 119 789.5Q102 777 102 756Q102 738 117.5 721Q133 704 175 681Q199 699 211 717Q223 735 223 754Q223 775 205.5 788.5Q188 802 161 802ZM79 547Q79 518 100.5 501Q122 484 155 484Q189 484 209 497.5Q229 511 229 536Q229 558 213.5 576Q198 594 133 630Q108 612 93.5 590.5Q79 569 79 547Z" glyph-name="eight.superior" horiz-adv-x="318" unicode="&#8312;" /><glyph d="M483 171Q483 85 420.5 36.5Q358 -12 257 -12Q160 -12 101.5 30.5Q43 73 43 151Q43 209 87 263Q131 317 208 357Q138 402 106.5 444.5Q75 487 75 535Q75 608 132 651.5Q189 695 271 695Q360 695 408 657.5Q456 620 456 551Q456 505 416.5 459.5Q377 414 314 384Q400 333 441.5 280.5Q483 228 483 171ZM271 642Q218 642 184 618Q150 594 150 552Q150 515 182.5 478Q215 441 282 403Q336 440 365 478Q394 516 394 551Q394 591 359 616.5Q324 642 271 642ZM112 161Q112 105 153.5 73Q195 41 259 41Q329 41 367.5 71Q406 101 406 157Q406 198 373 237Q340 276 240 336Q176 290 144 246.5Q112 203 112 161Z" glyph-name="eight.tab" horiz-adv-x="530" unicode="&#65304;" /><glyph d="M138 92Q150 92 160 90Q170 88 179 84Q184 76 186.5 65Q189 54 189 41Q189 29 186.5 17.5Q184 6 180 -3Q170 -8 158 -10.5Q146 -13 134 -13Q122 -13 111.5 -10.5Q101 -8 93 -4Q89 5 86.5 16.5Q84 28 84 40Q84 53 86 64Q88 75 92 83Q103 87 115 89.5Q127 92 138 92ZM298 92Q310 92 320 90Q330 88 338 84Q343 75 346 64Q349 53 349 41Q349 29 346.5 17.5Q344 6 339 -3Q329 -8 317 -10.5Q305 -13 293 -13Q282 -13 271.5 -10.5Q261 -8 253 -4Q249 5 246.5 16.5Q244 28 244 40Q244 53 246 64Q248 75 252 83Q263 87 275 89.5Q287 92 298 92ZM458 92Q470 92 480 90Q490 88 498 84Q503 76 505.5 65Q508 54 508 41Q508 29 505.5 17.5Q503 6 499 -3Q489 -8 477 -10.5Q465 -13 453 -13Q442 -13 431.5 -10.5Q421 -8 413 -4Q408 4 405.5 15Q403 26 403 39Q403 51 405.5 62Q408 73 412 83Q423 87 435 89.5Q447 92 458 92Z" glyph-name="ellipsis" horiz-adv-x="592" unicode="&#8230;" /><glyph d="M409 321Q409 296 406 273Q403 250 397 229L290 237Q285 238 280.5 238Q276 238 272 238Q263 238 250.5 237.5Q238 237 206 236Q174 235 155 234Q136 233 118 233V229Q118 140 157 89.5Q196 39 261 39Q288 39 316.5 47.5Q345 56 391 81L400 66Q383 29 341.5 8Q300 -13 248 -13Q149 -13 95.5 48Q42 109 42 222Q42 331 104 402Q166 473 257 473Q330 473 369.5 431Q409 389 409 321ZM248 428Q201 428 165 385.5Q129 343 121 275H243Q258 275 282 278.5Q306 282 339 288Q340 297 340.5 303.5Q341 310 341 313Q341 368 317 398Q293 428 248 428ZM226 460ZM326 0ZM382 613H69V669H382ZM226 460Z" glyph-name="emacron" horiz-adv-x="445" unicode="&#275;" /><glyph d="M816 222H38V278H816Z" glyph-name="emdash" horiz-adv-x="854" unicode="&#8212;" /><glyph d="M710 320Q728 320 739 306Q750 292 750 269Q750 236 727.5 218.5Q705 201 663 201V161L666 129Q647 123 642.5 122Q638 121 634 121Q629 121 626 123Q623 125 623 129V204L598 201V198Q598 160 580.5 139.5Q563 119 530 119Q511 119 500 128.5Q489 138 489 153Q489 171 505.5 184Q522 197 559 206V248Q551 225 539 212.5Q527 200 513 200Q499 200 492 207.5Q485 215 485 231V234Q475 217 462 209Q449 201 432 201Q419 201 411 209Q403 217 403 231V332L374 330V334Q374 344 377 349Q380 354 386 354H403L400 384Q419 390 423.5 391Q428 392 432 392Q437 392 440 390Q443 388 443 384V355H490V352Q490 341 487 336Q484 331 478 331H443V245Q443 237 446 233Q449 229 456 229Q466 229 475.5 237Q485 245 485 255V280L482 313Q501 319 505.5 320Q510 321 514 321Q519 321 522 318.5Q525 316 525 312V246Q525 238 526.5 234.5Q528 231 532 231Q539 231 549 248.5Q559 266 558 279L556 313Q575 319 579.5 320Q584 321 587 321Q592 321 595 318.5Q598 316 598 312V213L623 216V277L620 313Q639 319 643.5 320Q648 321 652 321Q657 321 660 318.5Q663 316 663 312V272Q671 295 683 307.5Q695 320 710 320ZM351 321Q365 321 372 313Q379 305 379 289V240L382 208Q363 202 358.5 201Q354 200 351 200Q346 200 343 202Q340 204 340 208V274Q340 283 338 286.5Q336 290 332 290Q325 290 315 272.5Q305 255 306 242L308 208Q289 202 284.5 201Q280 200 277 200Q272 200 269 202Q266 204 266 208V274Q266 283 264 286.5Q262 290 258 290Q251 290 241.5 272.5Q232 255 232 242L235 208Q216 202 211.5 201Q207 200 203 200Q198 200 195 202Q192 204 192 208V277L189 313Q208 319 212.5 320Q217 321 221 321Q226 321 229 318.5Q232 316 232 312V272Q238 292 250 306.5Q262 321 277 321Q291 321 298.5 313Q306 305 306 289V272Q312 294 324 307.5Q336 321 351 321ZM1213 257Q1213 262 1213 287.5Q1213 313 1212 332L1183 330V334Q1183 344 1186 349Q1189 354 1195 354H1212L1209 384Q1228 390 1232.5 391Q1237 392 1241 392Q1246 392 1249 390Q1252 388 1252 384V355H1299V352Q1299 341 1296 336Q1293 331 1287 331H1252V241Q1252 233 1256 229.5Q1260 226 1268 226Q1274 226 1281 227Q1288 228 1302 231Q1322 235 1332.5 236Q1343 237 1353 237Q1375 237 1395 230.5Q1415 224 1415 213Q1415 200 1406.5 192.5Q1398 185 1388 185Q1386 185 1383 186Q1380 187 1372 192Q1353 202 1340.5 205.5Q1328 209 1317 209Q1313 209 1308 208.5Q1303 208 1291 206Q1273 203 1262 202Q1251 201 1241 201Q1224 201 1219 210.5Q1214 220 1213 257ZM1406 529H68V537H1406ZM1406 0H68V8H1406ZM1041 321Q1055 321 1062.5 313Q1070 305 1070 289V240L1072 208Q1053 202 1048.5 201Q1044 200 1041 200Q1036 200 1033 202Q1030 204 1030 208V275Q1030 283 1028 286.5Q1026 290 1022 290Q1015 290 1005.5 272.5Q996 255 996 242L999 208Q980 202 975.5 201Q971 200 967 200Q962 200 959 202Q956 204 956 208V277L953 313Q972 319 976.5 320Q981 321 985 321Q990 321 993 318.5Q996 316 996 312V272Q1005 296 1016 308.5Q1027 321 1041 321ZM174 290Q174 278 168 270Q162 262 149 258Q141 255 131 253.5Q121 252 105 252Q106 242 113 236Q120 230 131 230Q140 230 147.5 232Q155 234 163 239Q167 236 169 232Q171 228 171 223Q171 214 158.5 207Q146 200 124 200Q96 200 80 214.5Q64 229 64 253Q64 282 83 301.5Q102 321 133 321Q151 321 162.5 312Q174 303 174 290ZM873 290Q873 278 867 270Q861 262 848 258Q840 255 830 253.5Q820 252 804 252Q805 242 812 236Q819 230 830 230Q839 230 846.5 232Q854 234 862 239Q866 236 868 232Q870 228 870 223Q870 214 857.5 207Q845 200 823 200Q795 200 779 214.5Q763 229 763 253Q763 282 782 301.5Q801 321 832 321Q850 321 861.5 312Q873 303 873 290ZM1196 290Q1196 278 1190 270Q1184 262 1171 258Q1163 255 1153 253.5Q1143 252 1127 252Q1128 242 1135 236Q1142 230 1153 230Q1162 230 1169.5 232Q1177 234 1185 239Q1189 236 1191 232Q1193 228 1193 223Q1193 214 1180.5 207Q1168 200 1146 200Q1118 200 1102 214.5Q1086 229 1086 253Q1086 282 1105 301.5Q1124 321 1155 321Q1173 321 1184.5 312Q1196 303 1196 290ZM663 242V219Q686 222 697 235Q708 248 708 270Q708 280 704.5 285Q701 290 695 290Q683 290 673 272Q663 254 663 242ZM888 226Q888 236 895 243Q902 250 913 250Q924 250 931.5 243Q939 236 939 226Q939 216 931.5 209.5Q924 203 913 203Q902 203 895 209.5Q888 216 888 226ZM531 148Q543 148 550 159Q557 170 558 194Q539 190 528 181.5Q517 173 517 162Q517 155 521 151.5Q525 148 531 148ZM128 298Q119 298 112.5 288.5Q106 279 104 264Q120 264 130.5 269.5Q141 275 141 285Q141 291 137.5 294.5Q134 298 128 298ZM1150 298Q1141 298 1134.5 288.5Q1128 279 1126 264Q1142 264 1152.5 269.5Q1163 275 1163 285Q1163 291 1159.5 294.5Q1156 298 1150 298ZM827 298Q818 298 811.5 288.5Q805 279 803 264Q819 264 829.5 269.5Q840 275 840 285Q840 291 836.5 294.5Q833 298 827 298Z" glyph-name="emtype" horiz-adv-x="1471" /><glyph d="M525 222H38V278H525Z" glyph-name="endash" horiz-adv-x="563" unicode="&#8211;" /><glyph d="M248 428Q201 428 165 385.5Q129 343 121 275H243Q258 275 282 278.5Q306 282 339 288Q340 297 340.5 303.5Q341 310 341 313Q341 368 317 398Q293 428 248 428ZM396 -122V-154Q385 -163 368.5 -167Q352 -171 331 -171Q285 -171 256.5 -150.5Q228 -130 228 -96Q228 -73 241.5 -52.5Q255 -32 284 -10Q275 -12 266 -12.5Q257 -13 248 -13Q149 -13 95.5 48Q42 109 42 222Q42 331 104 402Q166 473 257 473Q330 473 369.5 431Q409 389 409 321Q409 296 406 273Q403 250 397 229L290 237Q285 238 280.5 238Q276 238 272 238Q263 238 250.5 237.5Q238 237 206 236Q174 235 155 234Q136 233 118 233V229Q118 140 157 89.5Q196 39 261 39Q288 39 316.5 47.5Q345 56 391 81L400 66Q393 52 381.5 39Q370 26 355 16Q322 -7 305.5 -30.5Q289 -54 289 -80Q289 -105 303 -118Q317 -131 345 -131Q354 -131 367 -129Q380 -127 396 -122Z" glyph-name="eogonek" horiz-adv-x="445" unicode="&#281;" /><glyph d="M487 321V277H76V321ZM487 169V125H76V169Z" glyph-name="equal" horiz-adv-x="564" unicode="=" /><glyph d="M196 566V358H599V566Q564 605 510.5 627.5Q457 650 397 650Q335 650 284 628.5Q233 607 196 566ZM747 319H196V126Q232 77 284.5 53Q337 29 406 29Q477 29 537.5 54Q598 79 639 126L667 101Q615 44 551.5 17Q488 -10 406 -10Q257 -10 152.5 92Q48 194 48 340Q48 485 150.5 587Q253 689 397 689Q468 689 533.5 660Q599 631 649 579Q696 527 721.5 460.5Q747 394 747 319Z" glyph-name="estimated" horiz-adv-x="794" unicode="&#8494;" /><glyph d="M459 213Q450 109 390 48.5Q330 -12 239 -12Q147 -12 93 44.5Q39 101 39 201Q39 306 102 371Q165 436 259 436Q290 436 320.5 425.5Q351 415 383 393Q376 444 358 489.5Q340 535 314 570L214 516L190 561L278 608Q250 634 214.5 647.5Q179 661 140 661V701H158Q213 701 259 686Q305 671 341 642L438 694L462 649L378 604Q420 552 441 472Q462 392 462 287Q462 269 461.5 250.5Q461 232 459 213ZM118 219Q118 129 152 83.5Q186 38 253 38Q322 38 355.5 92.5Q389 147 389 273Q389 280 389 288Q389 296 388 311Q388 323 388 329.5Q388 336 388 341Q367 360 333.5 372.5Q300 385 267 385Q198 385 158 341.5Q118 298 118 219Z" glyph-name="eth" horiz-adv-x="498" unicode="&#240;" /><glyph d="M71 47Q82 70 100.5 87Q119 104 141 111Q161 105 179.5 85.5Q198 66 205 43Q196 20 176 1Q156 -18 135 -23Q115 -17 96 4Q77 25 71 47ZM198 700Q178 448 168 319Q158 190 158 183H126Q115 376 106.5 500Q98 624 92 680Q111 688 137.5 693Q164 698 198 700Z" glyph-name="exclam" horiz-adv-x="275" unicode="!" /><glyph d="M205 406Q195 383 176.5 366.5Q158 350 134 342Q114 348 96 367.5Q78 387 71 410Q80 433 99.5 452Q119 471 140 476Q160 470 179 449Q198 428 205 406ZM79 -237Q99 11 109 137.5Q119 264 119 270H151Q163 78 171.5 -44Q180 -166 185 -216Q167 -224 140.5 -229Q114 -234 79 -237Z" glyph-name="exclamdown" horiz-adv-x="275" unicode="&#161;" /><glyph d="M307 465V415Q269 416 237 417Q205 418 179 418V192Q179 156 182 116Q185 76 191 41Q213 38 231 34.5Q249 31 263 26L259 0H31L26 26Q39 30 55 34Q71 38 91 41Q97 81 100.5 119.5Q104 158 104 192V418Q86 418 66 417.5Q46 417 24 416L36 465Q53 465 70 464.5Q87 464 104 463V537Q104 626 143.5 675Q183 724 258 724Q281 724 306 717Q331 710 347 701Q361 693 366.5 684.5Q372 676 372 664Q372 652 365 627.5Q358 603 354 596L314 599L289 673Q281 674 276 674.5Q271 675 266 675Q258 675 251 674Q244 673 238 671Q208 662 193.5 634Q179 606 179 547V463Q205 464 237 464.5Q269 465 307 465Z" glyph-name="f" horiz-adv-x="312" unicode="f" /><glyph d="M191 41Q212 38 229 34.5Q246 31 259 26L255 0H31L26 26Q39 30 55 34Q71 38 91 41Q97 81 100.5 119.5Q104 158 104 192V418Q86 418 66 417.5Q46 417 24 416L36 465Q53 465 70 464.5Q87 464 104 463V537Q104 626 143.5 675Q183 724 258 724Q281 724 306 717Q331 710 347 701Q361 693 366.5 684.5Q372 676 372 664Q372 652 365 627.5Q358 603 354 596L314 599L289 673Q281 674 276 674.5Q271 675 266 675Q258 675 251 674Q244 673 238 671Q208 662 193.5 634Q179 606 179 547V463Q251 464 321.5 464.5Q392 465 429 465V537Q429 626 468.5 675Q508 724 583 724Q606 724 631 717Q656 710 672 701Q686 693 691.5 684.5Q697 676 697 664Q697 652 690 627.5Q683 603 679 596L639 599L614 673Q606 674 601 674.5Q596 675 591 675Q583 675 576 674Q569 673 563 671Q533 662 518.5 634Q504 606 504 547V463Q530 464 562 464.5Q594 465 632 465V415Q594 416 562 417Q530 418 504 418V192Q504 156 507 116Q510 76 516 41Q537 38 554 34.5Q571 31 584 26L580 0H356L351 26Q364 30 380 34Q396 38 416 41Q422 81 425.5 119.5Q429 158 429 192V415Q410 415 378.5 415.5Q347 416 272 417Q232 417 213 417.5Q194 418 179 418V192Q179 156 182 116Q185 76 191 41Z" glyph-name="f_f" horiz-adv-x="637" /><glyph d="M191 41Q212 38 229 34.5Q246 31 259 26L255 0H31L26 26Q39 30 55 34Q71 38 91 41Q97 81 100.5 119.5Q104 158 104 192V418Q86 418 66 417.5Q46 417 24 416L36 465Q53 465 70 464.5Q87 464 104 463V537Q104 626 143.5 675Q183 724 258 724Q281 724 306 717Q331 710 347 701Q361 693 366.5 684.5Q372 676 372 664Q372 652 365 627.5Q358 603 354 596L314 599L289 673Q281 674 276 674.5Q271 675 266 675Q258 675 251 674Q244 673 238 671Q208 662 193.5 634Q179 606 179 547V463Q256 464 319.5 464.5Q383 465 416 465V515Q416 616 471.5 670Q527 724 634 724Q686 724 736.5 706.5Q787 689 815 665Q820 657 823 646.5Q826 636 826 625Q826 614 823.5 603.5Q821 593 817 584Q808 580 796.5 577.5Q785 575 773 575Q762 575 752.5 577.5Q743 580 735 584Q731 592 728.5 602.5Q726 613 726 624Q726 633 727 640.5Q728 648 730 654Q706 663 680.5 667.5Q655 672 628 672Q562 672 526.5 634.5Q491 597 491 529V463Q520 464 595.5 464.5Q671 465 722 465Q735 465 748.5 466Q762 467 814 474V191Q814 174 816.5 136Q819 98 823 39Q844 38 860.5 34.5Q877 31 889 26L885 0H667L664 26Q676 31 691.5 34Q707 37 727 39Q733 75 737 115.5Q741 156 741 191V290Q741 328 737.5 360Q734 392 728 415Q714 415 694.5 415.5Q675 416 633 416Q559 417 531 417.5Q503 418 491 418V192Q491 156 494 116Q497 76 503 41Q524 38 542.5 34.5Q561 31 578 26L567 0H343L338 26Q351 30 367 34Q383 38 403 41Q409 81 412.5 119.5Q416 158 416 192V415Q380 416 282 417Q184 418 179 418V192Q179 156 182 116Q185 76 191 41Z" glyph-name="f_f_i" horiz-adv-x="913" /><glyph d="M191 41Q212 38 229 34.5Q246 31 259 26L255 0H31L26 26Q39 30 55 34Q71 38 91 41Q97 81 100.5 119.5Q104 158 104 192V418Q86 418 66 417.5Q46 417 24 416L36 465Q53 465 70 464.5Q87 464 104 463V537Q104 626 143.5 675Q183 724 258 724Q281 724 306 717Q331 710 347 701Q361 693 366.5 684.5Q372 676 372 664Q372 652 365 627.5Q358 603 354 596L314 599L289 673Q281 674 276 674.5Q271 675 266 675Q258 675 251 674Q244 673 238 671Q208 662 193.5 634Q179 606 179 547V463Q256 464 319.5 464.5Q383 465 416 465V521Q416 617 474 670.5Q532 724 636 724Q644 724 653 724Q662 724 678 723Q694 722 701.5 722Q709 722 715 722Q737 722 754.5 724.5Q772 727 787 732L809 725V192Q809 156 812 115.5Q815 75 821 40Q840 37 855 33.5Q870 30 882 26L877 0H660L656 26Q669 30 685 34Q701 38 721 41Q727 81 730.5 119.5Q734 158 734 192V541Q734 575 731.5 604Q729 633 725 655Q702 664 675.5 669Q649 674 623 674Q563 674 527 636Q491 598 491 531V463Q517 464 549 464.5Q581 465 619 465V415Q581 416 549 417Q517 418 491 418V192Q491 156 494 116Q497 76 503 41Q524 38 541 34.5Q558 31 571 26L567 0H343L338 26Q351 30 367 34Q383 38 403 41Q409 81 412.5 119.5Q416 158 416 192V415Q380 416 282 417Q184 418 179 418V192Q179 156 182 116Q185 76 191 41Z" glyph-name="f_f_l" horiz-adv-x="902" /><glyph d="M511 39Q532 38 548.5 34.5Q565 31 577 26L573 0H355L352 26Q364 31 379.5 34Q395 37 415 39Q421 75 425 115.5Q429 156 429 191V290Q429 328 425.5 360Q422 392 416 415Q402 415 382.5 415.5Q363 416 321 416Q247 417 219 417.5Q191 418 179 418V192Q179 156 182 116Q185 76 191 41Q212 38 230.5 34.5Q249 31 266 26L255 0H31L26 26Q39 30 55 34Q71 38 91 41Q97 81 100.5 119.5Q104 158 104 192V418Q86 418 66 417.5Q46 417 24 416L36 465Q53 465 70 464.5Q87 464 104 463V515Q104 616 159.5 670Q215 724 322 724Q374 724 424.5 706.5Q475 689 503 665Q508 657 511 646.5Q514 636 514 625Q514 614 511.5 603.5Q509 593 505 584Q496 580 484.5 577.5Q473 575 461 575Q450 575 440.5 577.5Q431 580 423 584Q419 592 416.5 602.5Q414 613 414 624Q414 633 415 640.5Q416 648 418 654Q394 663 368.5 667.5Q343 672 316 672Q250 672 214.5 634.5Q179 597 179 529V463Q208 464 283.5 464.5Q359 465 410 465Q423 465 436.5 466Q450 467 502 474V191Q502 174 504.5 136Q507 98 511 39Z" glyph-name="fi" horiz-adv-x="601" unicode="&#64257;" /><glyph d="M368 393Q364 393 358 393Q352 393 338 394Q324 395 317 395Q310 395 305 395H130L106 231Q234 223 308.5 167.5Q383 112 383 21Q383 -95 302 -162Q221 -229 92 -229Q70 -229 48.5 -226.5Q27 -224 6 -220V-202Q149 -202 224.5 -147.5Q300 -93 300 13Q300 94 233.5 137Q167 180 53 180H47L88 463H206Q247 463 277.5 466.5Q308 470 325 476Q334 489 341 497Q348 505 353 508H378Q373 478 370.5 449.5Q368 421 368 393Z" glyph-name="five" horiz-adv-x="430" unicode="5" /><glyph d="M57 72 93 20Q147 27 175.5 51.5Q204 76 204 118Q204 157 166.5 177.5Q129 198 63 198H58L84 375H179Q201 375 216 376.5Q231 378 241 382Q246 390 250 394.5Q254 399 256 400H274Q271 375 269.5 355Q268 335 268 319Q266 319 262.5 319Q259 319 251 320Q242 321 237 321Q232 321 228 321H114L105 250Q185 248 231 215.5Q277 183 277 128Q277 67 225.5 30Q174 -7 98 -7Q67 -7 52.5 -2Q38 3 34 13Q32 18 31 26Q30 34 30 45Q30 52 30.5 57.5Q31 63 31 64Z" glyph-name="five.denominator" horiz-adv-x="318" unicode="&#63066;" /><glyph d="M57 -80 93 -132Q147 -125 175.5 -100.5Q204 -76 204 -34Q204 5 166.5 25.5Q129 46 63 46H58L84 223H179Q201 223 216 224.5Q231 226 241 230Q246 238 250 242.5Q254 247 256 248H274Q271 223 269.5 203Q268 183 268 167Q266 167 262.5 167Q259 167 251 168Q242 169 237 169Q232 169 228 169H114L105 98Q185 96 231 63.5Q277 31 277 -24Q277 -85 225.5 -122Q174 -159 98 -159Q67 -159 52.5 -154Q38 -149 34 -139Q32 -134 31 -126Q30 -118 30 -107Q30 -100 30.5 -94.5Q31 -89 31 -88Z" glyph-name="five.inferior" horiz-adv-x="318" unicode="&#8325;" /><glyph d="M57 379 93 327Q147 334 175.5 358.5Q204 383 204 425Q204 464 166.5 484.5Q129 505 63 505H58L84 682H179Q201 682 216 683.5Q231 685 241 689Q246 697 250 701.5Q254 706 256 707H274Q271 682 269.5 662Q268 642 268 626Q266 626 262.5 626Q259 626 251 627Q242 628 237 628Q232 628 228 628H114L105 557Q185 555 231 522.5Q277 490 277 435Q277 374 225.5 337Q174 300 98 300Q67 300 52.5 305Q38 310 34 320Q32 325 31 333Q30 341 30 352Q30 359 30.5 364.5Q31 370 31 371Z" glyph-name="five.numerator" horiz-adv-x="318" unicode="&#63078;" /><glyph d="M57 527 93 475Q147 482 175.5 506.5Q204 531 204 573Q204 612 166.5 632.5Q129 653 63 653H58L84 830H179Q201 830 216 831.5Q231 833 241 837Q246 845 250 849.5Q254 854 256 855H274Q271 830 269.5 810Q268 790 268 774Q266 774 262.5 774Q259 774 251 775Q242 776 237 776Q232 776 228 776H114L105 705Q185 703 231 670.5Q277 638 277 583Q277 522 225.5 485Q174 448 98 448Q67 448 52.5 453Q38 458 34 468Q32 473 31 481Q30 489 30 500Q30 507 30.5 512.5Q31 518 31 519Z" glyph-name="five.superior" horiz-adv-x="318" unicode="&#8309;" /><glyph d="M90 99 144 25Q250 36 307 87.5Q364 139 364 226Q364 304 293.5 347.5Q223 391 113 391H108L151 682H268Q309 682 339.5 685.5Q370 689 388 695Q396 708 403 716Q410 724 415 727H440Q436 696 433.5 666.5Q431 637 431 609Q426 609 419.5 609Q413 609 399 610Q385 611 378.5 611Q372 611 367 611H192L171 457Q299 448 373 389Q447 330 447 232Q447 124 363 56Q279 -12 157 -12Q110 -12 87.5 -5.5Q65 1 58 15Q55 21 53.5 32Q52 43 52 60Q52 71 52.5 78.5Q53 86 53 88Z" glyph-name="five.tab" horiz-adv-x="530" unicode="&#65301;" /><glyph d="M509 40Q528 37 543 33.5Q558 30 570 26L565 0H348L344 26Q357 30 373 34Q389 38 409 41Q415 81 418.5 119.5Q422 158 422 192V541Q422 575 419.5 604Q417 633 413 655Q390 664 363.5 669Q337 674 311 674Q251 674 215 636Q179 598 179 531V463Q205 464 237 464.5Q269 465 307 465V415Q269 416 237 417Q205 418 179 418V192Q179 156 182 116Q185 76 191 41Q212 38 229 34.5Q246 31 259 26L255 0H31L26 26Q39 30 55 34Q71 38 91 41Q97 81 100.5 119.5Q104 158 104 192V418Q86 418 66 417.5Q46 417 24 416L36 465Q53 465 70 464.5Q87 464 104 463V521Q104 617 162 670.5Q220 724 324 724Q332 724 341 724Q350 724 366 723Q382 722 389.5 722Q397 722 403 722Q425 722 442.5 724.5Q460 727 475 732L497 725V192Q497 156 500 115.5Q503 75 509 40Z" glyph-name="fl" horiz-adv-x="590" unicode="&#64258;" /><glyph d="M54 411 146 409 153 537Q159 632 200 678Q241 724 318 724Q341 724 364 718Q387 712 406 701Q417 696 423 686.5Q429 677 429 665Q429 657 423.5 640Q418 623 406 596L367 599L346 673Q342 674 338 674Q334 674 325 674Q280 674 255 642Q230 610 227 547L220 409Q247 410 283.5 410.5Q320 411 367 411L365 361Q318 362 281 363Q244 364 218 364L190 -40Q183 -136 142 -181.5Q101 -227 25 -227Q2 -227 -22.5 -220.5Q-47 -214 -62 -205Q-73 -199 -79 -190Q-85 -181 -85 -170Q-85 -163 -81 -150Q-77 -137 -66 -112Q-63 -104 -62.5 -102Q-62 -100 -62 -100L-24 -102L-3 -177Q1 -178 5 -178Q9 -178 18 -178Q63 -178 87.5 -146.5Q112 -115 116 -51L144 364L44 362Z" glyph-name="florin" horiz-adv-x="379" unicode="&#402;" /><glyph d="M466 9H367V-43Q367 -72 371.5 -113Q376 -154 384 -207L373 -217L281 -220Q287 -150 290 -106Q293 -62 293 -44V9H28V56Q55 107 81.5 153Q108 199 135 241Q162 284 201 342.5Q240 401 290 475L376 462Q372 420 369.5 394.5Q367 369 367 360V57Q398 59 423 61.5Q448 64 466 68ZM177 210Q177 210 152.5 170.5Q128 131 86 56H293V287Q293 314 294 343.5Q295 373 298 410Q287 392 270.5 365Q254 338 220 281Q199 246 190.5 232Q182 218 177 210Z" glyph-name="four" horiz-adv-x="485" unicode="4" /><glyph d="M168 29Q170 52 171 66Q172 80 172 90V114H16V148Q29 176 42.5 201Q56 226 71 249Q87 274 110.5 307Q134 340 165 382L251 374Q249 351 247.5 336.5Q246 322 246 317V152Q263 153 277 155Q291 157 301 159V114H246V90Q246 74 247.5 61Q249 48 253 36Q260 36 267 36Q274 36 281 36V0Q246 0 208.5 -1Q171 -2 130 -3L123 21Q132 23 143 25Q154 27 168 29ZM101 236Q91 219 85 208.5Q79 198 54 152H172V277Q172 285 172 294Q172 303 173 320Q174 331 174 336Q174 341 174 345Q149 308 128.5 277.5Q108 247 101 236Z" glyph-name="four.denominator" horiz-adv-x="318" unicode="&#63065;" /><glyph d="M168 -123Q170 -100 171 -86Q172 -72 172 -62V-38H16V-4Q29 24 42.5 49Q56 74 71 97Q87 122 110.5 155Q134 188 165 230L251 222Q249 199 247.5 184.5Q246 170 246 165V0Q263 1 277 3Q291 5 301 7V-38H246V-62Q246 -78 247.5 -91Q249 -104 253 -116Q260 -116 267 -116Q274 -116 281 -116V-152Q246 -152 208.5 -153Q171 -154 130 -155L123 -131Q132 -129 143 -127Q154 -125 168 -123ZM101 84Q91 67 85 56.5Q79 46 54 0H172V125Q172 133 172 142Q172 151 173 168Q174 179 174 184Q174 189 174 193Q149 156 128.5 125.5Q108 95 101 84Z" glyph-name="four.inferior" horiz-adv-x="318" unicode="&#8324;" /><glyph d="M168 336Q170 359 171 373Q172 387 172 397V421H16V455Q29 483 42.5 508Q56 533 71 556Q87 581 110.5 614Q134 647 165 689L251 681Q249 658 247.5 643.5Q246 629 246 624V459Q263 460 277 462Q291 464 301 466V421H246V397Q246 381 247.5 368Q249 355 253 343Q260 343 267 343Q274 343 281 343V307Q246 307 208.5 306Q171 305 130 304L123 328Q132 330 143 332Q154 334 168 336ZM101 543Q91 526 85 515.5Q79 505 54 459H172V584Q172 592 172 601Q172 610 173 627Q174 638 174 643Q174 648 174 652Q149 615 128.5 584.5Q108 554 101 543Z" glyph-name="four.numerator" horiz-adv-x="318" unicode="&#63077;" /><glyph d="M168 484Q170 507 171 521Q172 535 172 545V569H16V603Q29 631 42.5 656Q56 681 71 704Q87 729 110.5 762Q134 795 165 837L251 829Q249 806 247.5 791.5Q246 777 246 772V607Q263 608 277 610Q291 612 301 614V569H246V545Q246 529 247.5 516Q249 503 253 491Q260 491 267 491Q274 491 281 491V455Q246 455 208.5 454Q171 453 130 452L123 476Q132 478 143 480Q154 482 168 484ZM101 691Q91 674 85 663.5Q79 653 54 607H172V732Q172 740 172 749Q172 758 173 775Q174 786 174 791Q174 796 174 800Q149 763 128.5 732.5Q108 702 101 691Z" glyph-name="four.superior" horiz-adv-x="318" unicode="&#8308;" /><glyph d="M307 35Q312 89 314.5 121Q317 153 317 163V207H33V264Q60 319 86.5 367.5Q113 416 140 458Q167 501 210.5 559.5Q254 618 314 692L405 680Q401 638 398.5 612Q396 586 396 577V265Q427 267 452 269.5Q477 272 496 276V207H396V164Q396 135 399.5 108.5Q403 82 413 44Q420 45 429.5 45Q439 45 459 45V0Q406 0 351.5 -1.5Q297 -3 240 -6L234 22Q248 25 266 28.5Q284 32 307 35ZM181 427Q160 394 149 374Q138 354 90 264H317V504Q317 531 318 560.5Q319 590 322 627Q288 582 242 516.5Q196 451 181 427Z" glyph-name="four.tab" horiz-adv-x="530" unicode="&#65300;" /><glyph d="M505 700 542 671 47 2 9 30Z" glyph-name="fraction" horiz-adv-x="538" unicode="&#8260;" /><glyph d="M865 -11Q838 -11 816.5 -1.5Q795 8 776 28Q767 37 758.5 49Q750 61 719 111Q703 137 693 156Q683 175 678 187H608V156Q608 145 611 117Q614 89 620 44Q642 41 657.5 37Q673 33 681 28L677 0H472L467 28Q476 33 491 37Q506 41 528 44Q537 99 539 119Q541 139 541 156V293Q541 324 537.5 356Q534 388 528 416Q506 420 491 424Q476 428 467 433L472 461H565Q576 461 588.5 461.5Q601 462 628 465Q654 467 666.5 467.5Q679 468 689 468Q775 468 818.5 434Q862 400 862 334Q862 287 832.5 252.5Q803 218 748 199Q750 195 752.5 190.5Q755 186 760 177Q768 162 772 155Q776 148 780 141Q811 88 840.5 61.5Q870 35 912 22L911 0Q895 -6 883.5 -8.5Q872 -11 865 -11ZM608 293V221H742Q766 237 780 263.5Q794 290 794 321Q794 373 765.5 402Q737 431 686 431Q677 431 660 430Q643 429 619 427Q613 377 610.5 346.5Q608 316 608 293ZM284 420H198Q194 393 191 358Q188 323 188 294V242H264Q288 242 309 245.5Q330 249 367 263L375 260L356 186Q326 192 295.5 195.5Q265 199 234 199H188V147Q188 129 190.5 108Q193 87 201 44Q223 41 240.5 37Q258 33 272 28L267 0H52L47 28Q56 33 71 37Q86 41 108 44Q116 87 118.5 108Q121 129 121 147V295Q121 320 118 350.5Q115 381 109 417Q87 421 71.5 425Q56 429 47 433L52 461H334Q354 461 376.5 463.5Q399 466 424 470V445Q424 440 426.5 413Q429 386 433 338H397Q388 351 381.5 370Q375 389 370 415Q318 419 306 419.5Q294 420 284 420Z" glyph-name="franc" horiz-adv-x="921" unicode="&#8355;" /><glyph d="M227 170Q212 170 199 172Q186 174 174 177Q159 164 151.5 150Q144 136 144 122Q144 100 157.5 88Q171 76 194 76H305Q378 76 419 42Q460 8 460 -56Q460 -135 392.5 -185.5Q325 -236 210 -236Q127 -236 75.5 -202Q24 -168 24 -112Q24 -76 49 -45Q74 -14 119 7V9Q95 18 81 37Q67 56 67 81Q67 113 91.5 141.5Q116 170 152 181V184Q111 202 88 236Q65 270 65 314Q65 383 116 428Q167 473 241 473Q254 473 268.5 472Q283 471 312 467Q338 463 350 462Q362 461 372 461Q376 461 397.5 462.5Q419 464 461 467L457 412L378 416L375 413Q389 395 396 373Q403 351 403 326Q403 258 352 214Q301 170 227 170ZM295 4H145Q118 -20 105 -45Q92 -70 92 -98Q92 -141 125.5 -168Q159 -195 212 -195Q292 -195 337.5 -161.5Q383 -128 383 -76Q383 -38 360.5 -17Q338 4 295 4ZM136 324Q136 271 163.5 241Q191 211 237 211Q281 211 306.5 239Q332 267 332 316Q332 370 305 401Q278 432 231 432Q188 432 162 403Q136 374 136 324ZM238 460Z" glyph-name="g" horiz-adv-x="470" unicode="g" /><glyph d="M227 170Q212 170 199 172Q186 174 174 177Q159 164 151.5 150Q144 136 144 122Q144 100 157.5 88Q171 76 194 76H305Q378 76 419 42Q460 8 460 -56Q460 -135 392.5 -185.5Q325 -236 210 -236Q127 -236 75.5 -202Q24 -168 24 -112Q24 -76 49 -45Q74 -14 119 7V9Q95 18 81 37Q67 56 67 81Q67 113 91.5 141.5Q116 170 152 181V184Q111 202 88 236Q65 270 65 314Q65 383 116 428Q167 473 241 473Q254 473 268.5 472Q283 471 312 467Q338 463 350 462Q362 461 372 461Q376 461 397.5 462.5Q419 464 461 467L457 412L378 416L375 413Q389 395 396 373Q403 351 403 326Q403 258 352 214Q301 170 227 170ZM295 4H145Q118 -20 105 -45Q92 -70 92 -98Q92 -141 125.5 -168Q159 -195 212 -195Q292 -195 337.5 -161.5Q383 -128 383 -76Q383 -38 360.5 -17Q338 4 295 4ZM136 324Q136 271 163.5 241Q191 211 237 211Q281 211 306.5 239Q332 267 332 316Q332 370 305 401Q278 432 231 432Q188 432 162 403Q136 374 136 324ZM238 460ZM238 596Q278 596 305.5 622.5Q333 649 345 696H381Q381 633 339 588.5Q297 544 237 544Q177 544 135.5 588.5Q94 633 94 696H132Q143 649 170.5 622.5Q198 596 238 596ZM238 460Z" glyph-name="gbreve" horiz-adv-x="470" unicode="&#287;" /><glyph d="M227 170Q212 170 199 172Q186 174 174 177Q159 164 151.5 150Q144 136 144 122Q144 100 157.5 88Q171 76 194 76H305Q378 76 419 42Q460 8 460 -56Q460 -135 392.5 -185.5Q325 -236 210 -236Q127 -236 75.5 -202Q24 -168 24 -112Q24 -76 49 -45Q74 -14 119 7V9Q95 18 81 37Q67 56 67 81Q67 113 91.5 141.5Q116 170 152 181V184Q111 202 88 236Q65 270 65 314Q65 383 116 428Q167 473 241 473Q254 473 268.5 472Q283 471 312 467Q338 463 350 462Q362 461 372 461Q376 461 397.5 462.5Q419 464 461 467L457 412L378 416L375 413Q389 395 396 373Q403 351 403 326Q403 258 352 214Q301 170 227 170ZM295 4H145Q118 -20 105 -45Q92 -70 92 -98Q92 -141 125.5 -168Q159 -195 212 -195Q292 -195 337.5 -161.5Q383 -128 383 -76Q383 -38 360.5 -17Q338 4 295 4ZM136 324Q136 271 163.5 241Q191 211 237 211Q281 211 306.5 239Q332 267 332 316Q332 370 305 401Q278 432 231 432Q188 432 162 403Q136 374 136 324ZM238 460ZM347 613Q359 601 370.5 590.5Q382 580 392 571L365 545Q347 557 330 569Q313 581 298 592Q284 602 269 615.5Q254 629 238 646Q225 633 204 614.5Q183 596 177 592Q162 581 145 569Q128 557 110 545L83 571Q98 584 109 594Q120 604 129 613Q156 639 183 669.5Q210 700 237 736H238Q264 702 291 671.5Q318 641 347 613ZM238 460Z" glyph-name="gcircumflex" horiz-adv-x="470" unicode="&#285;" /><glyph d="M227 170Q212 170 199 172Q186 174 174 177Q159 164 151.5 150Q144 136 144 122Q144 100 157.5 88Q171 76 194 76H305Q378 76 419 42Q460 8 460 -56Q460 -135 392.5 -185.5Q325 -236 210 -236Q127 -236 75.5 -202Q24 -168 24 -112Q24 -76 49 -45Q74 -14 119 7V9Q95 18 81 37Q67 56 67 81Q67 113 91.5 141.5Q116 170 152 181V184Q111 202 88 236Q65 270 65 314Q65 383 116 428Q167 473 241 473Q254 473 268.5 472Q283 471 312 467Q338 463 350 462Q362 461 372 461Q376 461 397.5 462.5Q419 464 461 467L457 412L378 416L375 413Q389 395 396 373Q403 351 403 326Q403 258 352 214Q301 170 227 170ZM295 4H145Q118 -20 105 -45Q92 -70 92 -98Q92 -141 125.5 -168Q159 -195 212 -195Q292 -195 337.5 -161.5Q383 -128 383 -76Q383 -38 360.5 -17Q338 4 295 4ZM136 324Q136 271 163.5 241Q191 211 237 211Q281 211 306.5 239Q332 267 332 316Q332 370 305 401Q278 432 231 432Q188 432 162 403Q136 374 136 324ZM238 460ZM239 694Q251 694 261 692Q271 690 280 686Q285 678 287.5 667Q290 656 290 643Q290 631 287.5 619.5Q285 608 281 599Q272 595 260 592.5Q248 590 235 590Q222 590 211.5 592Q201 594 194 598Q190 607 187.5 618.5Q185 630 185 642Q185 655 187 666Q189 677 193 685Q204 689 216 691.5Q228 694 239 694ZM238 460Z" glyph-name="gdotaccent" horiz-adv-x="470" unicode="&#289;" /><glyph d="M285 118 320 120 346 41Q372 34 381 33Q390 32 400 32Q446 32 468 51.5Q490 71 490 112Q490 129 479 144Q468 159 431 186L373 229Q334 258 314.5 289Q295 320 295 353Q295 373 301 391Q307 409 320 427Q324 433 337.5 448Q351 463 373 488Q412 531 420 548.5Q428 566 428 584Q428 627 400.5 649Q373 671 321 671Q256 671 217.5 628.5Q179 586 179 521V192Q179 164 181.5 116Q184 68 188 0H31L26 26Q39 30 55 34Q71 38 91 41Q97 81 100.5 119.5Q104 158 104 192V418Q86 418 66 417.5Q46 417 24 416L36 465Q53 465 70 464.5Q87 464 104 463V510Q104 601 167 662.5Q230 724 327 724Q406 724 450 689.5Q494 655 494 589Q494 561 480 533.5Q466 506 423 460Q385 418 376.5 402.5Q368 387 368 372Q368 353 379.5 334.5Q391 316 411 300L489 240Q534 205 551 180Q568 155 568 119Q568 56 526.5 21.5Q485 -13 406 -13Q373 -13 348.5 -9.5Q324 -6 301 2Q285 8 279 17Q273 26 273 41Q273 48 276.5 69.5Q280 91 285 118Z" glyph-name="germandbls" horiz-adv-x="603" unicode="&#223;" /><glyph d="M160 736Q202 682 238.5 640.5Q275 599 307 571L281 545Q258 559 235.5 575Q213 591 191 609Q164 632 145 651.5Q126 671 116 688Q127 701 138 713Q149 725 160 736ZM269 460Z" glyph-name="grave" horiz-adv-x="423" unicode="`" /><glyph d="M160 948Q202 894 238.5 852.5Q275 811 307 783L281 757Q258 771 235.5 787Q213 803 191 821Q164 844 145 863.5Q126 883 116 900Q127 913 138 925Q149 937 160 948ZM269 682Z" glyph-name="grave.case" horiz-adv-x="423" /><glyph d="M55 468 509 268V192L55 -7V44L464 224V236L56 415Q56 415 55.5 428Q55 441 55 468Z" glyph-name="greater" horiz-adv-x="564" unicode="&gt;" /><glyph d="M487 44V0H75V44ZM75 492 488 353V276L75 130V180L444 308V321L75 439Z" glyph-name="greaterequal" horiz-adv-x="564" unicode="&#8805;" /><glyph d="M210 427Q191 367 168 315.5Q145 264 122 232Q146 187 168.5 131.5Q191 76 203 36L154 20L42 232L165 443Q176 438 187 434Q198 430 210 427ZM401 427Q384 370 360.5 317.5Q337 265 314 232Q338 187 360.5 131.5Q383 76 395 36L346 20L234 232L356 443Q367 438 378.5 434Q390 430 401 427Z" glyph-name="guillemotleft" horiz-adv-x="444" unicode="&#171;" /><glyph d="M321 232Q299 264 276 316Q253 368 234 427Q246 430 257.5 434Q269 438 279 443L401 232L290 20L241 36Q253 78 275.5 133.5Q298 189 321 232ZM130 232Q107 264 84 315.5Q61 367 42 427Q54 430 65.5 434Q77 438 87 443L210 232L98 20L49 36Q61 76 83.5 131.5Q106 187 130 232Z" glyph-name="guillemotright" horiz-adv-x="444" unicode="&#187;" /><glyph d="M210 427Q191 367 168 315.5Q145 264 122 232Q146 187 168.5 131.5Q191 76 203 36L154 20L42 232L165 443Q176 438 187 434Q198 430 210 427Z" glyph-name="guilsinglleft" horiz-adv-x="252" unicode="&#8249;" /><glyph d="M130 232Q107 264 84 315.5Q61 367 42 427Q54 430 65.5 434Q77 438 87 443L210 232L98 20L49 36Q61 76 83.5 131.5Q106 187 130 232Z" glyph-name="guilsinglright" horiz-adv-x="252" unicode="&#8250;" /><glyph d="M478 41Q497 38 513 34Q529 30 541 26L537 0H370Q381 51 386 100Q391 149 391 196V318Q391 368 372.5 389Q354 410 313 410Q283 410 242 396.5Q201 383 176 366V192Q176 161 179 125Q182 89 188 40Q207 37 222.5 33.5Q238 30 249 26L246 0H28L24 26Q36 30 52 34Q68 38 88 41Q95 87 98.5 124Q102 161 102 192V541Q102 576 99.5 607Q97 638 91 666Q70 665 53 662.5Q36 660 22 657L13 690Q46 701 86.5 710Q127 719 176 725V474Q176 461 175.5 440.5Q175 420 173 392H175Q199 425 246 449.5Q293 474 339 474Q402 474 433.5 437.5Q465 401 465 324V196Q465 157 468.5 114.5Q472 72 478 41ZM118 694Z" glyph-name="h" horiz-adv-x="565" unicode="h" /><glyph d="M188 40Q207 37 222.5 33.5Q238 30 249 26L246 0H28L24 26Q36 30 52 34Q68 38 88 41Q95 87 98.5 124Q102 161 102 192V541Q102 543 102 545Q102 547 102 549H28V593H100Q99 610 97 627.5Q95 645 91 666Q70 665 53 662.5Q36 660 22 657L13 690Q46 701 86.5 710Q127 719 176 725V593H310V549H176V474Q176 461 175.5 440.5Q175 420 173 392H175Q199 425 246 449.5Q293 474 339 474Q402 474 433.5 437.5Q465 401 465 324V196Q465 157 468.5 114.5Q472 72 478 41Q497 38 513 34Q529 30 541 26L537 0H370Q381 51 386 100Q391 149 391 196V318Q391 368 372.5 389Q354 410 313 410Q283 410 242 396.5Q201 383 176 366V192Q176 161 179 125Q182 89 188 40Z" glyph-name="hbar" horiz-adv-x="565" unicode="&#295;" /><glyph d="M478 41Q497 38 513 34Q529 30 541 26L537 0H370Q381 51 386 100Q391 149 391 196V318Q391 368 372.5 389Q354 410 313 410Q283 410 242 396.5Q201 383 176 366V192Q176 161 179 125Q182 89 188 40Q207 37 222.5 33.5Q238 30 249 26L246 0H28L24 26Q36 30 52 34Q68 38 88 41Q95 87 98.5 124Q102 161 102 192V541Q102 576 99.5 607Q97 638 91 666Q70 665 53 662.5Q36 660 22 657L13 690Q46 701 86.5 710Q127 719 176 725V474Q176 461 175.5 440.5Q175 420 173 392H175Q199 425 246 449.5Q293 474 339 474Q402 474 433.5 437.5Q465 401 465 324V196Q465 157 468.5 114.5Q472 72 478 41ZM118 694ZM227 847Q239 835 250.5 824.5Q262 814 272 805L245 779Q227 791 210 803Q193 815 178 826Q164 836 149 849.5Q134 863 118 880Q105 867 84 848.5Q63 830 57 826Q42 815 25 803Q8 791 -10 779L-37 805Q-22 818 -11 828Q0 838 9 847Q36 873 63 903.5Q90 934 117 970H118Q144 936 171 905.5Q198 875 227 847ZM118 694Z" glyph-name="hcircumflex" horiz-adv-x="565" unicode="&#293;" /><glyph d="M152 602Q132 586 111.5 571.5Q91 557 71 544L47 567Q76 593 109.5 630Q143 667 180 716Q188 708 198 697.5Q208 687 220 673Q211 658 193.5 640Q176 622 152 602ZM308 602Q288 586 267.5 571.5Q247 557 227 544L204 567Q233 593 266.5 630Q300 667 337 716Q347 706 356.5 695.5Q366 685 376 673Q367 658 350 640Q333 622 308 602ZM168 460Z" glyph-name="hungarumlaut" horiz-adv-x="423" unicode="&#733;" /><glyph d="M152 816Q132 800 111.5 785.5Q91 771 71 758L47 781Q76 807 109.5 844Q143 881 180 930Q188 922 198 911.5Q208 901 220 887Q211 872 193.5 854Q176 836 152 816ZM308 816Q288 800 267.5 785.5Q247 771 227 758L204 781Q233 807 266.5 844Q300 881 337 930Q347 920 356.5 909.5Q366 899 376 887Q367 872 350 854Q333 836 308 816ZM153 682Z" glyph-name="hungarumlaut.case" horiz-adv-x="423" /><glyph d="M390 222H38V278H390Z" glyph-name="hyphen" horiz-adv-x="428" unicode="-" /><glyph d="M199 39Q220 38 236.5 34.5Q253 31 265 26L261 0H43L39 26Q51 31 67 34Q83 37 102 39Q109 72 113 113Q117 154 117 191V290Q117 327 113.5 358Q110 389 104 414Q87 413 72 411.5Q57 410 44 407L36 439Q67 451 105.5 459.5Q144 468 190 474V191Q190 174 192.5 136Q195 98 199 39ZM202 643Q202 632 199.5 621.5Q197 611 193 602Q184 598 172.5 595.5Q161 593 149 593Q138 593 128.5 595.5Q119 598 111 602Q107 609 104.5 619.5Q102 630 102 642Q102 652 104 662.5Q106 673 110 682Q122 687 132.5 689.5Q143 692 152 692Q162 692 171.5 689.5Q181 687 191 682Q196 674 199 664Q202 654 202 643ZM161 0Z" glyph-name="i" horiz-adv-x="289" unicode="i" /><glyph d="M199 39Q220 38 236.5 34.5Q253 31 265 26L261 0H43L39 26Q51 31 67 34Q83 37 102 39Q109 72 113 113Q117 154 117 191V290Q117 327 113.5 358Q110 389 104 414Q87 413 72 411.5Q57 410 44 407L36 439Q67 451 105.5 459.5Q144 468 190 474V191Q190 174 192.5 136Q195 98 199 39ZM151 460ZM229 609Q207 591 184.5 575Q162 559 139 545L113 571Q145 599 182 640.5Q219 682 260 736Q271 725 282 713Q293 701 304 688Q294 671 275 651.5Q256 632 229 609ZM151 460Z" glyph-name="iacute" horiz-adv-x="289" unicode="&#237;" /><glyph d="M199 39Q220 38 236.5 34.5Q253 31 265 26L261 0H43L39 26Q51 31 67 34Q83 37 102 39Q109 72 113 113Q117 154 117 191V290Q117 327 113.5 358Q110 389 104 414Q87 413 72 411.5Q57 410 44 407L36 439Q67 451 105.5 459.5Q144 468 190 474V191Q190 174 192.5 136Q195 98 199 39ZM151 460ZM260 613Q272 601 283.5 590.5Q295 580 305 571L278 545Q260 557 243 569Q226 581 211 592Q197 602 182 615.5Q167 629 151 646Q138 633 117 614.5Q96 596 90 592Q75 581 58 569Q41 557 23 545L-4 571Q11 584 22 594Q33 604 42 613Q69 639 96 669.5Q123 700 150 736H151Q177 702 204 671.5Q231 641 260 613ZM151 460Z" glyph-name="icircumflex" horiz-adv-x="289" unicode="&#238;" /><glyph d="M199 39Q220 38 236.5 34.5Q253 31 265 26L261 0H43L39 26Q51 31 67 34Q83 37 102 39Q109 72 113 113Q117 154 117 191V290Q117 327 113.5 358Q110 389 104 414Q87 413 72 411.5Q57 410 44 407L36 439Q67 451 105.5 459.5Q144 468 190 474V191Q190 174 192.5 136Q195 98 199 39ZM151 460ZM70 689Q81 689 90 687Q99 685 106 681Q110 674 112.5 664Q115 654 115 643Q115 631 113 621Q111 611 107 603Q99 599 89 597Q79 595 66 595Q55 595 45.5 597Q36 599 29 602Q25 610 22.5 620.5Q20 631 20 643Q20 653 22 663Q24 673 28 680Q38 684 49 686.5Q60 689 70 689ZM235 689Q246 689 255.5 687Q265 685 272 681Q276 674 278.5 664Q281 654 281 643Q281 631 279 621Q277 611 273 603Q265 599 254.5 597Q244 595 232 595Q221 595 211.5 597Q202 599 195 602Q191 610 188.5 620.5Q186 631 186 643Q186 653 188 663Q190 673 194 680Q204 684 214.5 686.5Q225 689 235 689ZM151 460Z" glyph-name="idieresis" horiz-adv-x="289" unicode="&#239;" /><glyph d="M199 39Q220 38 236.5 34.5Q253 31 265 26L261 0H43L39 26Q51 31 67 34Q83 37 102 39Q109 72 113 113Q117 154 117 191V290Q117 327 113.5 358Q110 389 104 414Q87 413 72 411.5Q57 410 44 407L36 439Q67 451 105.5 459.5Q144 468 190 474V191Q190 174 192.5 136Q195 98 199 39ZM151 460ZM42 736Q84 682 120.5 640.5Q157 599 189 571L163 545Q140 559 117.5 575Q95 591 73 609Q46 632 27 651.5Q8 671 -2 688Q9 701 20 713Q31 725 42 736ZM151 460Z" glyph-name="igrave" horiz-adv-x="289" unicode="&#236;" /><glyph d="M199 39Q220 38 236.5 34.5Q253 31 265 26L261 0H43L39 26Q51 31 67 34Q83 37 102 39Q109 72 113 113Q117 154 117 191V290Q117 327 113.5 358Q110 389 104 414Q87 413 72 411.5Q57 410 44 407L36 439Q67 451 105.5 459.5Q144 468 190 474V191Q190 174 192.5 136Q195 98 199 39ZM202 643Q202 632 199.5 621.5Q197 611 193 602Q184 598 172.5 595.5Q161 593 149 593Q138 593 128.5 595.5Q119 598 111 602Q107 609 104.5 619.5Q102 630 102 642Q102 652 104 662.5Q106 673 110 682Q122 687 132.5 689.5Q143 692 152 692Q162 692 171.5 689.5Q181 687 191 682Q196 674 199 664Q202 654 202 643ZM161 0ZM388 415Q370 414 354 412.5Q338 411 324 408L315 440Q348 451 387.5 460Q427 469 474 475V-29Q474 -135 430 -184Q386 -233 292 -233Q267 -233 244 -226Q221 -219 215 -211Q210 -205 207.5 -199Q205 -193 205 -187Q205 -172 223 -147.5Q241 -123 252 -114L284 -132L281 -188Q283 -188 288 -188.5Q293 -189 296 -189Q309 -189 319.5 -187.5Q330 -186 337 -184Q368 -174 383.5 -137.5Q399 -101 399 -34V290Q399 327 396 358.5Q393 390 388 415ZM436 692Q447 692 456.5 689.5Q466 687 474 683Q479 676 481.5 666Q484 656 484 645Q484 634 481.5 623Q479 612 474 603Q466 599 455 596.5Q444 594 432 594Q422 594 412.5 596Q403 598 395 602Q390 610 387.5 620.5Q385 631 385 644Q385 656 387 665.5Q389 675 393 682Q403 687 413.5 689.5Q424 692 436 692Z" glyph-name="ij" horiz-adv-x="556" unicode="&#307;" /><glyph d="M199 39Q220 38 236.5 34.5Q253 31 265 26L261 0H43L39 26Q51 31 67 34Q83 37 102 39Q109 72 113 113Q117 154 117 191V290Q117 327 113.5 358Q110 389 104 414Q87 413 72 411.5Q57 410 44 407L36 439Q67 451 105.5 459.5Q144 468 190 474V191Q190 174 192.5 136Q195 98 199 39ZM151 460ZM307 613H-6V669H307ZM151 460Z" glyph-name="imacron" horiz-adv-x="289" unicode="&#299;" /><glyph d="M455 180 421 205 398 187Q337 139 286.5 115Q236 91 195 91Q126 91 86.5 130Q47 169 47 235Q47 297 87 337Q127 377 191 377Q214 377 240.5 369Q267 361 298 344Q306 339 329.5 323.5Q353 308 393 282L426 260L454 279Q491 305 515 320.5Q539 336 549 342Q580 359 606 367Q632 375 656 375Q720 375 760 335Q800 295 800 233Q800 167 760.5 128Q721 89 652 89Q615 89 568.5 110Q522 131 455 180ZM370 225 381 233 373 239Q310 286 266 308Q222 330 191 330Q148 330 121 303Q94 276 94 235Q94 191 121.5 164.5Q149 138 195 138Q224 138 261.5 155.5Q299 173 370 225ZM556 293Q547 287 524.5 271.5Q502 256 466 230L481 220Q568 161 598 148.5Q628 136 652 136Q698 136 725.5 162.5Q753 189 753 233Q753 274 726 301Q699 328 656 328Q635 328 610.5 319Q586 310 556 293Z" glyph-name="infinity" horiz-adv-x="847" unicode="&#8734;" /><glyph d="M57 -227H6V-183H57Q114 -183 147 -144Q180 -105 180 -37V479Q180 590 222.5 642.5Q265 695 352 695H402Q403 695 403.5 689.5Q404 684 404 677Q404 671 404 664Q404 657 403 650H352Q289 650 258 608.5Q227 567 227 479V-37Q227 -126 181.5 -176.5Q136 -227 57 -227Z" glyph-name="integral" horiz-adv-x="409" unicode="&#8747;" /><glyph d="M202 643Q202 632 199.5 621.5Q197 611 193 602Q184 598 172.5 595.5Q161 593 149 593Q138 593 128.5 595.5Q119 598 111 602Q107 609 104.5 619.5Q102 630 102 642Q102 652 104 662.5Q106 673 110 682Q122 687 132.5 689.5Q143 692 152 692Q162 692 171.5 689.5Q181 687 191 682Q196 674 199 664Q202 654 202 643ZM231 -122V-154Q220 -163 203.5 -167Q187 -171 166 -171Q120 -171 91.5 -150.5Q63 -130 63 -96Q63 -71 81 -47.5Q99 -24 137 0H43L39 26Q51 31 67 34Q83 37 102 39Q109 72 113 113Q117 154 117 191V290Q117 327 113.5 358Q110 389 104 414Q87 413 72 411.5Q57 410 44 407L36 439Q67 451 105.5 459.5Q144 468 190 474V191Q190 174 192.5 136Q195 98 199 39Q220 38 236.5 34.5Q253 31 265 26L261 0H174Q149 -23 136.5 -42.5Q124 -62 124 -80Q124 -105 138 -118Q152 -131 180 -131Q189 -131 202 -129Q215 -127 231 -122Z" glyph-name="iogonek" horiz-adv-x="289" unicode="&#303;" /><glyph d="M199 39Q220 38 236.5 34.5Q253 31 265 26L261 0H43L39 26Q51 31 67 34Q83 37 102 39Q109 72 113 113Q117 154 117 191V290Q117 327 113.5 358Q110 389 104 414Q87 413 72 411.5Q57 410 44 407L36 439Q67 451 105.5 459.5Q144 468 190 474V191Q190 174 192.5 136Q195 98 199 39ZM151 460ZM85 633Q63 633 43 625.5Q23 618 5 603L-15 632Q-13 636 -0.5 645Q12 654 33 668Q48 676 62.5 679.5Q77 683 92 683Q110 683 126.5 679.5Q143 676 169 664Q192 654 205 651Q218 648 231 648Q249 648 262.5 656Q276 664 286 681L316 666Q313 651 305.5 638.5Q298 626 287 615Q276 605 262 599.5Q248 594 232 594Q216 594 200.5 598Q185 602 156 614Q128 626 113.5 629.5Q99 633 85 633ZM151 460Z" glyph-name="itilde" horiz-adv-x="289" unicode="&#297;" /><glyph d="M99 415Q81 414 65 412.5Q49 411 35 408L26 440Q59 451 98.5 460Q138 469 185 475V-29Q185 -135 141 -184Q97 -233 3 -233Q-22 -233 -45 -226Q-68 -219 -74 -211Q-79 -205 -81.5 -199Q-84 -193 -84 -187Q-84 -172 -66 -147.5Q-48 -123 -37 -114L-5 -132L-8 -188Q-6 -188 -1 -188.5Q4 -189 7 -189Q20 -189 30.5 -187.5Q41 -186 48 -184Q79 -174 94.5 -137.5Q110 -101 110 -34V290Q110 327 107 358.5Q104 390 99 415ZM147 692Q158 692 167.5 689.5Q177 687 185 683Q190 676 192.5 666Q195 656 195 645Q195 634 192.5 623Q190 612 185 603Q177 599 166 596.5Q155 594 143 594Q133 594 123.5 596Q114 598 106 602Q101 610 98.5 620.5Q96 631 96 644Q96 656 98 665.5Q100 675 104 682Q114 687 124.5 689.5Q135 692 147 692Z" glyph-name="j" horiz-adv-x="267" unicode="j" /><glyph d="M99 415Q81 414 65 412.5Q49 411 35 408L26 440Q59 451 98.5 460Q138 469 185 475V-29Q185 -135 141 -184Q97 -233 3 -233Q-22 -233 -45 -226Q-68 -219 -74 -211Q-79 -205 -81.5 -199Q-84 -193 -84 -187Q-84 -172 -66 -147.5Q-48 -123 -37 -114L-5 -132L-8 -188Q-6 -188 -1 -188.5Q4 -189 7 -189Q20 -189 30.5 -187.5Q41 -186 48 -184Q79 -174 94.5 -137.5Q110 -101 110 -34V290Q110 327 107 358.5Q104 390 99 415ZM121 460ZM230 613Q242 601 253.5 590.5Q265 580 275 571L248 545Q230 557 213 569Q196 581 181 592Q167 602 152 615.5Q137 629 121 646Q108 633 87 614.5Q66 596 60 592Q45 581 28 569Q11 557 -7 545L-34 571Q-19 584 -8 594Q3 604 12 613Q39 639 66 669.5Q93 700 120 736H121Q147 702 174 671.5Q201 641 230 613ZM121 460Z" glyph-name="jcircumflex" horiz-adv-x="267" unicode="&#309;" /><glyph d="M170 723V190Q170 170 171.5 147.5Q173 125 182 39Q201 37 216.5 33.5Q232 30 243 25L239 0H21L17 25Q30 30 46.5 33.5Q63 37 83 39Q90 94 93 128.5Q96 163 96 190V539Q96 577 93 608Q90 639 84 664Q64 664 47 662Q30 660 16 656L8 687Q40 699 80.5 708Q121 717 170 723ZM209 240V254L322 372Q327 377 330.5 383Q334 389 338 396Q340 402 343.5 411Q347 420 348 423Q327 426 312 429Q297 432 288 435L294 462H471Q472 446 472.5 434.5Q473 423 473 416Q452 416 442.5 416Q433 416 424 417L279 259Q300 228 316 204Q332 180 343 163Q388 99 424 65.5Q460 32 495 21V-2Q484 -6 473 -8.5Q462 -11 451 -11Q406 -11 361.5 24.5Q317 60 274 133ZM252 0Z" glyph-name="k" horiz-adv-x="481" unicode="k" /><glyph d="M170 476V190Q170 170 171.5 147.5Q173 125 182 39Q201 37 216.5 33.5Q232 30 243 25L239 0H21L17 25Q30 30 46.5 33.5Q63 37 83 39Q90 94 93 128.5Q96 163 96 190V292Q96 330 93 361Q90 392 84 417Q64 417 47 415Q30 413 16 409L8 440Q40 452 80.5 461Q121 470 170 476ZM209 240V254L322 372Q327 377 330.5 383Q334 389 338 396Q340 402 343.5 411Q347 420 348 423Q327 426 312 429Q297 432 288 435L294 462H471Q472 446 472.5 434.5Q473 423 473 416Q452 416 442.5 416Q433 416 424 417L279 259Q300 228 316 204Q332 180 343 163Q388 99 424 65.5Q460 32 495 21V-2Q484 -6 473 -8.5Q462 -11 451 -11Q406 -11 361.5 24.5Q317 60 274 133Z" glyph-name="kgreenlandic" horiz-adv-x="481" unicode="&#312;" /><glyph d="M197 40Q216 37 231 33.5Q246 30 258 26L253 0H36L32 26Q45 30 61 34Q77 38 97 41Q103 81 106.5 119.5Q110 158 110 192V541Q110 580 107 612Q104 644 99 666Q79 665 61.5 662.5Q44 660 30 657L22 690Q55 701 95.5 709.5Q136 718 185 725V192Q185 156 188 115.5Q191 75 197 40ZM140 0ZM140 715ZM248 682ZM231 341Z" glyph-name="l" horiz-adv-x="278" unicode="l" /><glyph d="M197 40Q216 37 231 33.5Q246 30 258 26L253 0H36L32 26Q45 30 61 34Q77 38 97 41Q103 81 106.5 119.5Q110 158 110 192V541Q110 580 107 612Q104 644 99 666Q79 665 61.5 662.5Q44 660 30 657L22 690Q55 701 95.5 709.5Q136 718 185 725V192Q185 156 188 115.5Q191 75 197 40ZM140 0ZM140 715ZM248 682ZM231 341ZM218 824Q196 806 173.5 790Q151 774 128 760L102 786Q134 814 171 855.5Q208 897 249 951Q260 940 271 928Q282 916 293 903Q283 886 264 866.5Q245 847 218 824ZM140 675Z" glyph-name="lacute" horiz-adv-x="278" unicode="&#314;" /><glyph d="M197 40Q216 37 231 33.5Q246 30 258 26L253 0H36L32 26Q45 30 61 34Q77 38 97 41Q103 81 106.5 119.5Q110 158 110 192V541Q110 580 107 612Q104 644 99 666Q79 665 61.5 662.5Q44 660 30 657L22 690Q55 701 95.5 709.5Q136 718 185 725V192Q185 156 188 115.5Q191 75 197 40ZM140 0ZM140 715ZM248 682ZM231 341ZM304 725Q316 725 325 723Q334 721 342 717Q347 705 350 692Q353 679 353 667Q353 634 338.5 604Q324 574 299 554L272 576Q282 588 287 602Q292 616 294 633Q289 633 283.5 634Q278 635 265 638Q261 648 258.5 658Q256 668 256 677Q256 687 258.5 697.5Q261 708 265 717Q274 721 283.5 723Q293 725 304 725ZM248 682Z" glyph-name="lcaron" horiz-adv-x="278" unicode="&#318;" /><glyph d="M197 40Q216 37 231 33.5Q246 30 258 26L253 0H36L32 26Q45 30 61 34Q77 38 97 41Q103 81 106.5 119.5Q110 158 110 192V541Q110 580 107 612Q104 644 99 666Q79 665 61.5 662.5Q44 660 30 657L22 690Q55 701 95.5 709.5Q136 718 185 725V192Q185 156 188 115.5Q191 75 197 40ZM140 0ZM140 715ZM248 682ZM231 341ZM339 339Q339 327 336.5 315.5Q334 304 330 295Q320 290 308 287.5Q296 285 284 285Q272 285 261.5 287.5Q251 290 243 294Q239 303 236.5 314.5Q234 326 234 338Q234 351 236 362Q238 373 242 381Q253 385 265 387.5Q277 390 288 390Q300 390 310 388Q320 386 329 382Q334 374 336.5 363Q339 352 339 339ZM234 341Z" glyph-name="ldot" horiz-adv-x="278" unicode="&#320;" /><glyph d="M507 -7 55 192V268L507 468V415L99 236V224L507 44Z" glyph-name="less" horiz-adv-x="564" unicode="&lt;" /><glyph d="M486 44V0H76V44ZM486 130 75 276V353L486 492V439L119 321V308L486 180Z" glyph-name="lessequal" horiz-adv-x="564" unicode="&#8804;" /><glyph d="M197 40Q216 37 231 33.5Q246 30 258 26L253 0H36L32 26Q45 30 61 34Q77 38 97 41Q103 81 106.5 119.5Q110 158 110 192V541Q110 580 107 612Q104 644 99 666Q79 665 61.5 662.5Q44 660 30 657L22 690Q55 701 95.5 709.5Q136 718 185 725V192Q185 156 188 115.5Q191 75 197 40ZM140 0ZM140 715ZM248 682ZM231 341ZM339 339Q339 327 336.5 315.5Q334 304 330 295Q320 290 308 287.5Q296 285 284 285Q272 285 261.5 287.5Q251 290 243 294Q239 303 236.5 314.5Q234 326 234 338Q234 351 236 362Q238 373 242 381Q253 385 265 387.5Q277 390 288 390Q300 390 310 388Q320 386 329 382Q334 374 336.5 363Q339 352 339 339ZM234 341ZM475 40Q494 37 509 33.5Q524 30 536 26L531 0H314L310 26Q323 30 339 34Q355 38 375 41Q381 81 384.5 119.5Q388 158 388 192V541Q388 580 385 612Q382 644 377 666Q357 665 339.5 662.5Q322 660 308 657L300 690Q333 701 373.5 709.5Q414 718 463 725V192Q463 156 466 115.5Q469 75 475 40ZM418 0ZM418 715ZM526 682ZM509 341Z" glyph-name="lgeminada" horiz-adv-x="556" /><glyph d="M486 317V87H440V272H76V317Z" glyph-name="logicalnot" horiz-adv-x="564" unicode="&#172;" /><glyph d="M238 671Q208 662 193.5 634Q179 606 179 547V192Q179 156 182 116Q185 76 191 41Q212 38 229 34.5Q246 31 259 26L255 0H31L26 26Q39 30 55 34Q71 38 91 41Q97 81 100.5 119.5Q104 158 104 192V418Q86 418 66 417.5Q46 417 24 416L36 465Q53 465 70 464.5Q87 464 104 463V537Q104 626 143.5 675Q183 724 258 724Q281 724 306 717Q331 710 347 701Q361 693 366.5 684.5Q372 676 372 664Q372 652 365 627.5Q358 603 354 596L314 599L289 673Q281 674 276 674.5Q271 675 266 675Q258 675 251 674Q244 673 238 671Z" glyph-name="longs" horiz-adv-x="312" unicode="&#383;" /><glyph d="M238 671Q208 662 193.5 634Q179 606 179 547V192Q179 156 182 116Q185 76 191 41Q212 38 229 34.5Q246 31 259 26L255 0H31L26 26Q39 30 55 34Q71 38 91 41Q97 81 100.5 119.5Q104 158 104 192V418Q86 418 66 417.5Q46 417 24 416L36 465Q53 465 70 464.5Q87 464 104 463V537Q104 626 143.5 675Q183 724 258 724Q281 724 306 717Q331 710 347 701Q361 693 366.5 684.5Q372 676 372 664Q372 652 365 627.5Q358 603 354 596L314 599L289 673Q281 674 276 674.5Q271 675 266 675Q258 675 251 674Q244 673 238 671ZM536 49Q556 49 576 56Q596 63 615 76Q618 74 621 71Q624 68 626 64Q621 46 609.5 31.5Q598 17 580 5Q565 -5 546 -10.5Q527 -16 506 -16Q459 -16 432 12.5Q405 41 405 92Q405 110 406 134Q407 158 409 208Q410 237 411 251Q412 265 412 276Q413 299 413 331.5Q413 364 413 415Q395 415 375 414Q355 413 334 412L348 462Q364 461 380 460.5Q396 460 413 460Q413 510 410.5 542Q408 574 403 588L489 603Q488 572 487.5 536Q487 500 486 460Q511 460 540.5 460.5Q570 461 604 462V412Q569 413 539 414Q509 415 485 415Q484 346 483 270Q482 194 480 111Q480 78 492.5 63.5Q505 49 536 49ZM507 10ZM445 0ZM533 685Z" glyph-name="longs_t" horiz-adv-x="619" /><glyph d="M615 342 337 0H290L11 342L288 684H338ZM74 342 313 44 552 342 313 642Z" glyph-name="lozenge" horiz-adv-x="635" unicode="&#9674;" /><glyph d="M184 40Q203 37 218 33.5Q233 30 245 26L240 0H24L19 26Q32 30 48.5 34Q65 38 85 41Q91 90 94 126Q97 162 97 192V300L11 255V313L97 358V541Q97 580 94 612Q91 644 86 666Q66 665 48.5 662.5Q31 660 17 657L9 690Q42 701 82.5 709.5Q123 718 172 725V399L264 448V390L172 340V192Q172 161 175 124.5Q178 88 184 40Z" glyph-name="lslash" horiz-adv-x="273" unicode="&#322;" /><glyph d="M768 41Q788 39 803.5 35.5Q819 32 831 27L826 0H663Q673 51 677.5 100Q682 149 682 195V317Q682 366 661 388.5Q640 411 592 411Q565 411 534.5 399.5Q504 388 474 368V195Q474 165 476.5 130Q479 95 486 41Q506 39 522 35.5Q538 32 550 27L545 0H381Q391 51 395.5 100Q400 149 400 195V317Q400 366 379 388.5Q358 411 312 411Q286 411 257 400.5Q228 390 191 367V192Q191 159 194.5 120.5Q198 82 204 41Q224 39 239.5 35.5Q255 32 267 27L263 0H44L41 27Q53 32 69 35.5Q85 39 104 41Q112 105 114.5 136Q117 167 117 192V290Q117 331 114 362.5Q111 394 105 415Q88 414 72.5 412.5Q57 411 44 408L36 440Q67 452 105.5 460.5Q144 469 190 475L187 393H190Q218 431 258 453Q298 475 342 475Q390 475 421 454Q452 433 463 393H467Q496 430 537.5 452.5Q579 475 624 475Q689 475 722 436.5Q755 398 755 320V195Q755 162 758.5 123Q762 84 768 41Z" glyph-name="m" horiz-adv-x="855" unicode="m" /><glyph d="M368 613H55V669H368ZM212 460Z" glyph-name="macron" horiz-adv-x="423" unicode="&#175;" /><glyph d="M368 792H55V848H368ZM212 682Z" glyph-name="macron.case" horiz-adv-x="423" /><glyph d="M487 251V207H76V251Z" glyph-name="minus" horiz-adv-x="564" unicode="&#8722;" /><glyph d="M165 -227H92V268Q92 307 90.5 346.5Q89 386 87 413Q72 411 59.5 409Q47 407 37 404L30 438Q63 449 102.5 457.5Q142 466 188 473Q178 417 172.5 365.5Q167 314 167 268V144Q167 94 185 74Q203 54 244 54Q274 54 314 67Q354 80 377 96V270Q377 303 373.5 340.5Q370 378 364 414Q344 412 327.5 409.5Q311 407 297 404L289 438Q324 449 367.5 457.5Q411 466 462 473Q456 416 453 365.5Q450 315 450 270V171Q450 131 453 99.5Q456 68 462 46Q480 48 495.5 50Q511 52 524 55L530 22Q500 11 462 2Q424 -7 377 -13L380 71H378Q350 35 306 11Q262 -13 218 -13Q204 -13 190.5 -11Q177 -9 163 -4Z" glyph-name="mu" horiz-adv-x="556" unicode="&#181;" /><glyph d="M410 390 443 357 314 228 444 100 411 68 282 196 152 67 119 100 249 229 120 358 153 390 281 261Z" glyph-name="multiply" horiz-adv-x="564" unicode="&#215;" /><glyph d="M492 40Q511 38 527 34.5Q543 31 555 26L550 0H384Q394 51 399 99.5Q404 148 404 194V318Q404 368 385.5 388.5Q367 409 325 409Q296 409 255 396Q214 383 189 367V191Q189 155 192.5 115Q196 75 203 40Q223 38 238.5 34.5Q254 31 265 26L261 0H44L39 26Q52 31 67.5 34.5Q83 38 102 40Q109 86 112.5 123Q116 160 116 191V290Q116 327 113 358.5Q110 390 104 415Q86 414 71 412Q56 410 44 407L36 439Q66 451 104 460Q142 469 189 475L185 392H188Q214 426 261 450.5Q308 475 353 475Q416 475 447 438.5Q478 402 478 325V194Q478 159 482 118Q486 77 492 40ZM296 460ZM296 0ZM56 510Z" glyph-name="n" horiz-adv-x="579" unicode="n" /><glyph d="M492 40Q511 38 527 34.5Q543 31 555 26L550 0H384Q394 51 399 99.5Q404 148 404 194V318Q404 368 385.5 388.5Q367 409 325 409Q296 409 255 396Q214 383 189 367V191Q189 155 192.5 115Q196 75 203 40Q223 38 238.5 34.5Q254 31 265 26L261 0H44L39 26Q52 31 67.5 34.5Q83 38 102 40Q109 86 112.5 123Q116 160 116 191V290Q116 327 113 358.5Q110 390 104 415Q86 414 71 412Q56 410 44 407L36 439Q66 451 104 460Q142 469 189 475L185 392H188Q214 426 261 450.5Q308 475 353 475Q416 475 447 438.5Q478 402 478 325V194Q478 159 482 118Q486 77 492 40ZM296 460ZM296 0ZM56 510ZM374 609Q352 591 329.5 575Q307 559 284 545L258 571Q290 599 327 640.5Q364 682 405 736Q416 725 427 713Q438 701 449 688Q439 671 420 651.5Q401 632 374 609ZM296 460Z" glyph-name="nacute" horiz-adv-x="579" unicode="&#324;" /><glyph d="M492 40Q511 38 527 34.5Q543 31 555 26L550 0H384Q394 51 399 99.5Q404 148 404 194V318Q404 368 385.5 388.5Q367 409 325 409Q296 409 255 396Q214 383 189 367V191Q189 155 192.5 115Q196 75 203 40Q223 38 238.5 34.5Q254 31 265 26L261 0H44L39 26Q52 31 67.5 34.5Q83 38 102 40Q109 86 112.5 123Q116 160 116 191V290Q116 327 113 358.5Q110 390 104 415Q86 414 71 412Q56 410 44 407L36 439Q66 451 104 460Q142 469 189 475L185 392H188Q214 426 261 450.5Q308 475 353 475Q416 475 447 438.5Q478 402 478 325V194Q478 159 482 118Q486 77 492 40ZM296 460ZM296 0ZM56 510ZM18.7 626.4Q18.7 636.3 20.95 647.1Q23.2 657.9 27.7 666.9Q36.7 670.5 46.6 672.75Q56.5 675 66.4 675Q76.3 675 85.75 673.2Q95.2 671.4 104.2 666.9Q109.6 655.2 112.3 642.15Q115 629.1 115 616.5Q115 567 84.85 527.4Q54.7 487.8 8.8 479.7L-1.1 495.9Q25.9 512.1 39.85 532.8Q53.8 553.5 56.5 582.3Q54.7 582.3 47.5 583.65Q40.3 585 27.7 587.7Q23.2 595.8 20.95 606.15Q18.7 616.5 18.7 626.4Z" glyph-name="napostrophe" horiz-adv-x="579" unicode="&#329;" /><glyph d="M492 40Q511 38 527 34.5Q543 31 555 26L550 0H384Q394 51 399 99.5Q404 148 404 194V318Q404 368 385.5 388.5Q367 409 325 409Q296 409 255 396Q214 383 189 367V191Q189 155 192.5 115Q196 75 203 40Q223 38 238.5 34.5Q254 31 265 26L261 0H44L39 26Q52 31 67.5 34.5Q83 38 102 40Q109 86 112.5 123Q116 160 116 191V290Q116 327 113 358.5Q110 390 104 415Q86 414 71 412Q56 410 44 407L36 439Q66 451 104 460Q142 469 189 475L185 392H188Q214 426 261 450.5Q308 475 353 475Q416 475 447 438.5Q478 402 478 325V194Q478 159 482 118Q486 77 492 40ZM296 460ZM296 0ZM56 510ZM356 690Q371 701 388 713Q405 725 423 737L450 712Q434 697 424 687.5Q414 678 405 669Q373 638 347 608.5Q321 579 296 546H295Q269 580 243 610Q217 640 187 669Q176 680 159.5 695.5Q143 711 141 712L168 737Q186 725 203 713Q220 701 235 690Q242 684 262.5 666.5Q283 649 296 636Q312 653 327 666.5Q342 680 356 690ZM296 460Z" glyph-name="ncaron" horiz-adv-x="579" unicode="&#328;" /><glyph d="M316 140Q317 137 320.5 132.5Q324 128 325 126Q315 101 281.5 84.5Q248 68 207 68Q133 68 88 124.5Q43 181 43 267Q43 354 102.5 415Q162 476 249 476Q347 476 402 397Q457 318 457 176Q457 97 438.5 30Q420 -37 383 -90Q340 -153 277 -189.5Q214 -226 151 -226Q135 -226 120.5 -223.5Q106 -221 94 -216L95 -196H110Q166 -196 222.5 -164.5Q279 -133 317 -77Q348 -31 363.5 28.5Q379 88 379 160Q379 288 343 358Q307 428 238 428Q185 428 152 387.5Q119 347 119 280Q119 197 148.5 156Q178 115 238 115Q255 115 275.5 121.5Q296 128 316 140Z" glyph-name="nine" horiz-adv-x="514" unicode="9" /><glyph d="M184 205Q185 205 189 198Q193 191 193 190Q187 176 166.5 167Q146 158 121 158Q77 158 50 186.5Q23 215 23 264Q23 317 60 349.5Q97 382 157 382Q217 382 254 337.5Q291 293 291 222Q291 118 237.5 55.5Q184 -7 105 -7Q95 -7 85 -5.5Q75 -4 65 -1L66 17Q68 16 70.5 16Q73 16 79 16Q140 16 179 65.5Q218 115 218 204Q218 271 200.5 308Q183 345 151 345Q126 345 111 325.5Q96 306 96 272Q96 233 109 214.5Q122 196 149 196Q159 196 168.5 198.5Q178 201 184 205Z" glyph-name="nine.denominator" horiz-adv-x="318" unicode="&#63070;" /><glyph d="M184 53Q185 53 189 46Q193 39 193 38Q187 24 166.5 15Q146 6 121 6Q77 6 50 34.5Q23 63 23 112Q23 165 60 197.5Q97 230 157 230Q217 230 254 185.5Q291 141 291 70Q291 -34 237.5 -96.5Q184 -159 105 -159Q95 -159 85 -157.5Q75 -156 65 -153L66 -135Q68 -136 70.5 -136Q73 -136 79 -136Q140 -136 179 -86.5Q218 -37 218 52Q218 119 200.5 156Q183 193 151 193Q126 193 111 173.5Q96 154 96 120Q96 81 109 62.5Q122 44 149 44Q159 44 168.5 46.5Q178 49 184 53Z" glyph-name="nine.inferior" horiz-adv-x="318" unicode="&#8329;" /><glyph d="M184 512Q185 512 189 505Q193 498 193 497Q187 483 166.5 474Q146 465 121 465Q77 465 50 493.5Q23 522 23 571Q23 624 60 656.5Q97 689 157 689Q217 689 254 644.5Q291 600 291 529Q291 425 237.5 362.5Q184 300 105 300Q95 300 85 301.5Q75 303 65 306L66 324Q68 323 70.5 323Q73 323 79 323Q140 323 179 372.5Q218 422 218 511Q218 578 200.5 615Q183 652 151 652Q126 652 111 632.5Q96 613 96 579Q96 540 109 521.5Q122 503 149 503Q159 503 168.5 505.5Q178 508 184 512Z" glyph-name="nine.numerator" horiz-adv-x="318" unicode="&#63082;" /><glyph d="M184 660Q185 660 189 653Q193 646 193 645Q187 631 166.5 622Q146 613 121 613Q77 613 50 641.5Q23 670 23 719Q23 772 60 804.5Q97 837 157 837Q217 837 254 792.5Q291 748 291 677Q291 573 237.5 510.5Q184 448 105 448Q95 448 85 449.5Q75 451 65 454L66 472Q68 471 70.5 471Q73 471 79 471Q140 471 179 520.5Q218 570 218 659Q218 726 200.5 763Q183 800 151 800Q126 800 111 780.5Q96 761 96 727Q96 688 109 669.5Q122 651 149 651Q159 651 168.5 653.5Q178 656 184 660Z" glyph-name="nine.superior" horiz-adv-x="318" unicode="&#8313;" /></font>
</defs>
</svg>
